<svg xmlns="http://www.w3.org/2000/svg" xmlns:xlink="http://www.w3.org/1999/xlink" width="500" zoomAndPan="magnify" viewBox="0 0 375 374.999991" height="500" preserveAspectRatio="xMidYMid meet" version="1.0"><defs><g/><clipPath id="5ab5499e5f"><path d="M 71 311 L 107 311 L 107 346.945312 L 71 346.945312 Z M 71 311 " clip-rule="nonzero"/></clipPath><clipPath id="6a70948bf5"><path d="M 218 311 L 254 311 L 254 346.945312 L 218 346.945312 Z M 218 311 " clip-rule="nonzero"/></clipPath><clipPath id="d57d9b7910"><path d="M 2.082031 93 L 94 93 L 94 111 L 2.082031 111 Z M 2.082031 93 " clip-rule="nonzero"/></clipPath><clipPath id="08fbceb241"><path d="M 123 311 L 159 311 L 159 346.945312 L 123 346.945312 Z M 123 311 " clip-rule="nonzero"/></clipPath><clipPath id="275ea850fa"><path d="M 269 311 L 304 311 L 304 346.945312 L 269 346.945312 Z M 269 311 " clip-rule="nonzero"/></clipPath><clipPath id="9cbd3955c6"><path d="M 12 341 L 287 341 L 287 346.945312 L 12 346.945312 Z M 12 341 " clip-rule="nonzero"/></clipPath><clipPath id="a92806d1eb"><path d="M 286 28.195312 L 305 28.195312 L 305 59 L 286 59 Z M 286 28.195312 " clip-rule="nonzero"/></clipPath><clipPath id="6dd283f9b2"><path d="M 270 201 L 372.582031 201 L 372.582031 304 L 270 304 Z M 270 201 " clip-rule="nonzero"/></clipPath></defs><path fill="#f5f5f5" d="M 117.265625 129.96875 L 141.027344 274.421875 L 307.621094 274.421875 L 318.851562 151.621094 Z M 117.265625 129.96875 " fill-opacity="1" fill-rule="nonzero"/><path fill="#a6a6a6" d="M 282.515625 175.554688 C 283.09375 175.605469 283.664062 175.714844 284.222656 175.878906 C 284.78125 176.042969 285.316406 176.261719 285.832031 176.53125 C 286.347656 176.800781 286.832031 177.121094 287.285156 177.488281 C 287.734375 177.855469 288.148438 178.261719 288.519531 178.710938 C 288.890625 179.160156 289.210938 179.640625 289.488281 180.152344 C 289.761719 180.664062 289.984375 181.199219 290.15625 181.757812 C 290.324219 182.3125 290.4375 182.882812 290.492188 183.460938 C 290.546875 184.039062 290.546875 184.621094 290.488281 185.199219 L 284.492188 244.640625 C 284.453125 245 284.382812 245.351562 284.273438 245.699219 C 284.167969 246.046875 284.03125 246.378906 283.863281 246.699219 C 283.695312 247.019531 283.496094 247.320312 283.269531 247.605469 C 283.042969 247.886719 282.792969 248.144531 282.515625 248.382812 C 282.242188 248.617188 281.945312 248.824219 281.632812 249.003906 C 281.316406 249.183594 280.988281 249.332031 280.644531 249.449219 C 280.300781 249.566406 279.953125 249.648438 279.59375 249.699219 C 279.234375 249.75 278.875 249.765625 278.511719 249.75 C 278.148438 249.730469 277.792969 249.679688 277.441406 249.59375 C 277.089844 249.507812 276.746094 249.390625 276.417969 249.238281 C 276.089844 249.089844 275.777344 248.910156 275.480469 248.699219 C 275.183594 248.492188 274.910156 248.253906 274.660156 247.992188 C 274.410156 247.730469 274.1875 247.449219 273.988281 247.144531 C 273.789062 246.84375 273.625 246.523438 273.488281 246.1875 C 273.351562 245.851562 273.246094 245.503906 273.175781 245.152344 C 273.105469 244.796875 273.066406 244.4375 273.0625 244.074219 L 272.941406 184.335938 C 272.9375 183.722656 273 183.117188 273.125 182.519531 C 273.25 181.921875 273.433594 181.34375 273.679688 180.785156 C 273.925781 180.222656 274.226562 179.695312 274.582031 179.199219 C 274.9375 178.703125 275.339844 178.246094 275.792969 177.832031 C 276.242188 177.421875 276.730469 177.058594 277.257812 176.746094 C 277.78125 176.4375 278.335938 176.183594 278.914062 175.984375 C 279.492188 175.789062 280.085938 175.65625 280.691406 175.582031 C 281.300781 175.511719 281.90625 175.503906 282.515625 175.554688 Z M 282.515625 175.554688 " fill-opacity="1" fill-rule="nonzero"/><path fill="#000000" d="M 250.78125 329.367188 C 250.78125 330.347656 250.683594 331.320312 250.496094 332.28125 C 250.304688 333.242188 250.019531 334.175781 249.644531 335.082031 C 249.269531 335.988281 248.808594 336.851562 248.265625 337.664062 C 247.71875 338.480469 247.101562 339.234375 246.40625 339.929688 C 245.714844 340.621094 244.960938 341.242188 244.144531 341.785156 C 243.328125 342.328125 242.46875 342.789062 241.5625 343.164062 C 240.65625 343.539062 239.722656 343.824219 238.761719 344.015625 C 237.800781 344.207031 236.828125 344.300781 235.847656 344.300781 C 234.867188 344.300781 233.898438 344.207031 232.933594 344.015625 C 231.972656 343.824219 231.039062 343.539062 230.132812 343.164062 C 229.226562 342.789062 228.367188 342.328125 227.550781 341.785156 C 226.738281 341.242188 225.984375 340.621094 225.289062 339.929688 C 224.597656 339.234375 223.976562 338.480469 223.433594 337.664062 C 222.886719 336.851562 222.425781 335.988281 222.050781 335.082031 C 221.675781 334.175781 221.394531 333.242188 221.203125 332.28125 C 221.011719 331.320312 220.914062 330.347656 220.914062 329.367188 C 220.914062 328.386719 221.011719 327.417969 221.203125 326.457031 C 221.394531 325.492188 221.675781 324.558594 222.050781 323.65625 C 222.425781 322.75 222.886719 321.886719 223.433594 321.074219 C 223.976562 320.257812 224.597656 319.503906 225.289062 318.808594 C 225.984375 318.117188 226.738281 317.496094 227.550781 316.953125 C 228.367188 316.40625 229.226562 315.949219 230.132812 315.574219 C 231.039062 315.199219 231.972656 314.914062 232.933594 314.722656 C 233.898438 314.53125 234.867188 314.4375 235.847656 314.4375 C 236.828125 314.4375 237.800781 314.53125 238.761719 314.722656 C 239.722656 314.914062 240.65625 315.199219 241.5625 315.574219 C 242.46875 315.949219 243.328125 316.40625 244.144531 316.953125 C 244.960938 317.496094 245.714844 318.117188 246.40625 318.808594 C 247.101562 319.503906 247.71875 320.257812 248.265625 321.074219 C 248.808594 321.886719 249.269531 322.75 249.644531 323.65625 C 250.019531 324.558594 250.304688 325.492188 250.496094 326.457031 C 250.683594 327.417969 250.78125 328.386719 250.78125 329.367188 Z M 250.78125 329.367188 " fill-opacity="1" fill-rule="nonzero"/><path fill="#000000" d="M 103.753906 329.367188 C 103.753906 330.347656 103.65625 331.320312 103.46875 332.28125 C 103.277344 333.242188 102.992188 334.175781 102.617188 335.082031 C 102.242188 335.988281 101.78125 336.851562 101.238281 337.664062 C 100.691406 338.480469 100.074219 339.234375 99.378906 339.929688 C 98.6875 340.621094 97.933594 341.242188 97.117188 341.785156 C 96.300781 342.328125 95.441406 342.789062 94.535156 343.164062 C 93.628906 343.539062 92.695312 343.824219 91.734375 344.015625 C 90.773438 344.207031 89.800781 344.300781 88.820312 344.300781 C 87.839844 344.300781 86.871094 344.207031 85.90625 344.015625 C 84.945312 343.824219 84.011719 343.539062 83.105469 343.164062 C 82.199219 342.789062 81.339844 342.328125 80.523438 341.785156 C 79.710938 341.242188 78.957031 340.621094 78.261719 339.929688 C 77.570312 339.234375 76.949219 338.480469 76.40625 337.664062 C 75.859375 336.851562 75.398438 335.988281 75.023438 335.082031 C 74.648438 334.175781 74.367188 333.242188 74.175781 332.28125 C 73.984375 331.320312 73.886719 330.347656 73.886719 329.367188 C 73.886719 328.386719 73.984375 327.417969 74.175781 326.457031 C 74.367188 325.492188 74.648438 324.558594 75.023438 323.65625 C 75.398438 322.75 75.859375 321.886719 76.40625 321.074219 C 76.949219 320.257812 77.570312 319.503906 78.261719 318.808594 C 78.957031 318.117188 79.710938 317.496094 80.523438 316.953125 C 81.339844 316.40625 82.199219 315.949219 83.105469 315.574219 C 84.011719 315.199219 84.945312 314.914062 85.90625 314.722656 C 86.871094 314.53125 87.839844 314.4375 88.820312 314.4375 C 89.800781 314.4375 90.773438 314.53125 91.734375 314.722656 C 92.695312 314.914062 93.628906 315.199219 94.535156 315.574219 C 95.441406 315.949219 96.300781 316.40625 97.117188 316.953125 C 97.933594 317.496094 98.6875 318.117188 99.378906 318.808594 C 100.074219 319.503906 100.691406 320.257812 101.238281 321.074219 C 101.78125 321.886719 102.242188 322.75 102.617188 323.65625 C 102.992188 324.558594 103.277344 325.492188 103.46875 326.457031 C 103.65625 327.417969 103.753906 328.386719 103.753906 329.367188 Z M 103.753906 329.367188 " fill-opacity="1" fill-rule="nonzero"/><g clip-path="url(#5ab5499e5f)"><path fill="#000000" d="M 88.820312 346.800781 C 88.25 346.800781 87.679688 346.773438 87.113281 346.71875 C 86.542969 346.660156 85.980469 346.578125 85.417969 346.464844 C 84.859375 346.355469 84.304688 346.214844 83.757812 346.050781 C 83.210938 345.882812 82.675781 345.691406 82.148438 345.472656 C 81.617188 345.253906 81.101562 345.011719 80.597656 344.742188 C 80.09375 344.472656 79.605469 344.179688 79.132812 343.863281 C 78.65625 343.542969 78.199219 343.203125 77.757812 342.84375 C 77.316406 342.480469 76.890625 342.097656 76.488281 341.691406 C 76.085938 341.289062 75.703125 340.867188 75.339844 340.425781 C 74.976562 339.984375 74.636719 339.523438 74.320312 339.050781 C 74.003906 338.574219 73.707031 338.085938 73.441406 337.582031 C 73.171875 337.078125 72.925781 336.5625 72.707031 336.035156 C 72.488281 335.507812 72.296875 334.96875 72.132812 334.421875 C 71.964844 333.875 71.828125 333.324219 71.714844 332.761719 C 71.605469 332.203125 71.519531 331.636719 71.464844 331.070312 C 71.40625 330.5 71.378906 329.933594 71.378906 329.359375 C 71.378906 328.789062 71.40625 328.21875 71.464844 327.652344 C 71.519531 327.082031 71.605469 326.519531 71.714844 325.957031 C 71.828125 325.398438 71.964844 324.84375 72.132812 324.296875 C 72.296875 323.75 72.488281 323.214844 72.707031 322.6875 C 72.925781 322.160156 73.171875 321.644531 73.441406 321.140625 C 73.707031 320.636719 74.003906 320.144531 74.320312 319.671875 C 74.636719 319.195312 74.976562 318.738281 75.339844 318.296875 C 75.703125 317.855469 76.085938 317.433594 76.488281 317.027344 C 76.890625 316.625 77.316406 316.242188 77.757812 315.878906 C 78.199219 315.515625 78.65625 315.175781 79.132812 314.859375 C 79.605469 314.542969 80.09375 314.25 80.597656 313.980469 C 81.101562 313.710938 81.617188 313.464844 82.148438 313.246094 C 82.675781 313.027344 83.210938 312.835938 83.757812 312.671875 C 84.304688 312.503906 84.859375 312.367188 85.417969 312.253906 C 85.980469 312.144531 86.542969 312.058594 87.113281 312.003906 C 87.679688 311.949219 88.25 311.917969 88.820312 311.917969 C 89.390625 311.917969 89.960938 311.949219 90.53125 312.003906 C 91.097656 312.058594 91.664062 312.144531 92.222656 312.253906 C 92.785156 312.367188 93.335938 312.503906 93.882812 312.671875 C 94.429688 312.835938 94.96875 313.027344 95.496094 313.246094 C 96.023438 313.464844 96.539062 313.710938 97.042969 313.980469 C 97.546875 314.25 98.035156 314.542969 98.511719 314.859375 C 98.984375 315.175781 99.445312 315.515625 99.886719 315.878906 C 100.328125 316.242188 100.75 316.625 101.152344 317.027344 C 101.558594 317.433594 101.941406 317.855469 102.304688 318.296875 C 102.664062 318.738281 103.003906 319.195312 103.324219 319.671875 C 103.640625 320.144531 103.933594 320.636719 104.203125 321.140625 C 104.472656 321.644531 104.714844 322.160156 104.933594 322.6875 C 105.152344 323.214844 105.34375 323.75 105.511719 324.296875 C 105.675781 324.84375 105.816406 325.398438 105.925781 325.957031 C 106.039062 326.519531 106.121094 327.082031 106.179688 327.652344 C 106.234375 328.21875 106.261719 328.789062 106.261719 329.359375 C 106.261719 329.933594 106.234375 330.5 106.179688 331.070312 C 106.121094 331.636719 106.039062 332.203125 105.925781 332.761719 C 105.816406 333.324219 105.675781 333.875 105.511719 334.421875 C 105.34375 334.96875 105.152344 335.507812 104.933594 336.035156 C 104.714844 336.5625 104.472656 337.078125 104.203125 337.582031 C 103.933594 338.085938 103.640625 338.574219 103.324219 339.050781 C 103.003906 339.523438 102.664062 339.984375 102.304688 340.425781 C 101.941406 340.867188 101.558594 341.289062 101.152344 341.691406 C 100.75 342.097656 100.328125 342.480469 99.886719 342.84375 C 99.445312 343.203125 98.984375 343.542969 98.511719 343.863281 C 98.035156 344.179688 97.546875 344.472656 97.042969 344.742188 C 96.539062 345.011719 96.023438 345.253906 95.496094 345.472656 C 94.96875 345.691406 94.429688 345.882812 93.882812 346.050781 C 93.335938 346.214844 92.785156 346.355469 92.222656 346.464844 C 91.664062 346.578125 91.097656 346.660156 90.53125 346.71875 C 89.960938 346.773438 89.390625 346.800781 88.820312 346.800781 Z M 88.820312 316.902344 C 88.003906 316.902344 87.191406 316.984375 86.390625 317.140625 C 85.589844 317.300781 84.808594 317.539062 84.054688 317.851562 C 83.296875 318.164062 82.578125 318.546875 81.898438 319.003906 C 81.21875 319.457031 80.589844 319.972656 80.011719 320.550781 C 79.433594 321.128906 78.917969 321.757812 78.460938 322.4375 C 78.007812 323.121094 77.625 323.835938 77.3125 324.59375 C 77 325.347656 76.761719 326.128906 76.601562 326.929688 C 76.441406 327.734375 76.363281 328.542969 76.363281 329.359375 C 76.363281 330.179688 76.441406 330.988281 76.601562 331.789062 C 76.761719 332.59375 77 333.371094 77.3125 334.128906 C 77.625 334.882812 78.007812 335.601562 78.460938 336.28125 C 78.917969 336.960938 79.433594 337.589844 80.011719 338.167969 C 80.589844 338.746094 81.21875 339.265625 81.898438 339.71875 C 82.578125 340.171875 83.296875 340.558594 84.054688 340.871094 C 84.808594 341.183594 85.589844 341.417969 86.390625 341.578125 C 87.191406 341.738281 88.003906 341.820312 88.820312 341.820312 C 89.640625 341.820312 90.449219 341.738281 91.25 341.578125 C 92.054688 341.417969 92.832031 341.183594 93.589844 340.871094 C 94.34375 340.558594 95.0625 340.171875 95.742188 339.71875 C 96.421875 339.265625 97.050781 338.746094 97.628906 338.167969 C 98.207031 337.589844 98.726562 336.960938 99.179688 336.28125 C 99.632812 335.601562 100.015625 334.882812 100.332031 334.128906 C 100.644531 333.371094 100.878906 332.59375 101.039062 331.789062 C 101.199219 330.988281 101.277344 330.179688 101.277344 329.359375 C 101.277344 328.542969 101.195312 327.734375 101.035156 326.933594 C 100.875 326.132812 100.636719 325.355469 100.324219 324.601562 C 100.007812 323.847656 99.625 323.128906 99.171875 322.453125 C 98.714844 321.773438 98.199219 321.144531 97.621094 320.566406 C 97.042969 319.992188 96.414062 319.476562 95.734375 319.023438 C 95.054688 318.570312 94.335938 318.1875 93.582031 317.875 C 92.828125 317.5625 92.050781 317.324219 91.25 317.167969 C 90.445312 317.007812 89.636719 316.925781 88.820312 316.925781 Z M 88.820312 316.902344 " fill-opacity="1" fill-rule="nonzero"/></g><g clip-path="url(#6a70948bf5)"><path fill="#000000" d="M 235.875 346.800781 C 235.300781 346.800781 234.730469 346.773438 234.164062 346.71875 C 233.59375 346.660156 233.03125 346.578125 232.472656 346.464844 C 231.910156 346.355469 231.355469 346.214844 230.808594 346.050781 C 230.265625 345.882812 229.726562 345.691406 229.199219 345.472656 C 228.671875 345.253906 228.15625 345.011719 227.652344 344.742188 C 227.148438 344.472656 226.660156 344.179688 226.183594 343.863281 C 225.707031 343.542969 225.25 343.203125 224.808594 342.84375 C 224.367188 342.480469 223.945312 342.097656 223.539062 341.691406 C 223.136719 341.289062 222.753906 340.867188 222.390625 340.425781 C 222.027344 339.984375 221.6875 339.523438 221.371094 339.050781 C 221.054688 338.574219 220.761719 338.085938 220.492188 337.582031 C 220.222656 337.078125 219.976562 336.5625 219.761719 336.035156 C 219.542969 335.507812 219.347656 334.96875 219.183594 334.421875 C 219.015625 333.875 218.878906 333.324219 218.765625 332.761719 C 218.65625 332.203125 218.570312 331.636719 218.515625 331.070312 C 218.460938 330.5 218.433594 329.933594 218.433594 329.359375 C 218.433594 328.789062 218.460938 328.21875 218.515625 327.652344 C 218.570312 327.082031 218.65625 326.519531 218.765625 325.957031 C 218.878906 325.398438 219.015625 324.84375 219.183594 324.296875 C 219.347656 323.75 219.542969 323.214844 219.761719 322.6875 C 219.976562 322.160156 220.222656 321.644531 220.492188 321.140625 C 220.761719 320.636719 221.054688 320.144531 221.371094 319.671875 C 221.6875 319.195312 222.027344 318.738281 222.390625 318.296875 C 222.753906 317.855469 223.136719 317.433594 223.539062 317.027344 C 223.945312 316.625 224.367188 316.242188 224.808594 315.878906 C 225.25 315.515625 225.707031 315.175781 226.183594 314.859375 C 226.660156 314.542969 227.148438 314.25 227.652344 313.980469 C 228.15625 313.710938 228.671875 313.464844 229.199219 313.246094 C 229.726562 313.027344 230.265625 312.835938 230.808594 312.671875 C 231.355469 312.503906 231.910156 312.367188 232.472656 312.253906 C 233.03125 312.144531 233.59375 312.058594 234.164062 312.003906 C 234.730469 311.949219 235.300781 311.917969 235.875 311.917969 C 236.445312 311.917969 237.015625 311.949219 237.582031 312.003906 C 238.152344 312.058594 238.714844 312.144531 239.277344 312.253906 C 239.835938 312.367188 240.390625 312.503906 240.9375 312.671875 C 241.484375 312.835938 242.019531 313.027344 242.546875 313.246094 C 243.074219 313.464844 243.589844 313.710938 244.09375 313.980469 C 244.597656 314.25 245.089844 314.542969 245.5625 314.859375 C 246.039062 315.175781 246.496094 315.515625 246.9375 315.878906 C 247.378906 316.242188 247.800781 316.625 248.207031 317.027344 C 248.609375 317.433594 248.992188 317.855469 249.355469 318.296875 C 249.71875 318.738281 250.058594 319.195312 250.375 319.671875 C 250.691406 320.144531 250.984375 320.636719 251.253906 321.140625 C 251.523438 321.644531 251.769531 322.160156 251.988281 322.6875 C 252.207031 323.214844 252.398438 323.75 252.5625 324.296875 C 252.730469 324.84375 252.867188 325.398438 252.980469 325.957031 C 253.089844 326.519531 253.175781 327.082031 253.230469 327.652344 C 253.285156 328.21875 253.3125 328.789062 253.3125 329.359375 C 253.3125 329.933594 253.285156 330.5 253.230469 331.070312 C 253.175781 331.636719 253.089844 332.203125 252.980469 332.761719 C 252.867188 333.324219 252.730469 333.875 252.5625 334.421875 C 252.398438 334.96875 252.207031 335.507812 251.988281 336.035156 C 251.769531 336.5625 251.523438 337.078125 251.253906 337.582031 C 250.984375 338.085938 250.691406 338.574219 250.375 339.050781 C 250.058594 339.523438 249.71875 339.984375 249.355469 340.425781 C 248.992188 340.867188 248.609375 341.289062 248.207031 341.691406 C 247.800781 342.097656 247.378906 342.480469 246.9375 342.84375 C 246.496094 343.203125 246.039062 343.542969 245.5625 343.863281 C 245.089844 344.179688 244.597656 344.472656 244.09375 344.742188 C 243.589844 345.011719 243.074219 345.253906 242.546875 345.472656 C 242.019531 345.691406 241.484375 345.882812 240.9375 346.050781 C 240.390625 346.214844 239.835938 346.355469 239.277344 346.464844 C 238.714844 346.578125 238.152344 346.660156 237.582031 346.71875 C 237.015625 346.773438 236.445312 346.800781 235.875 346.800781 Z M 235.875 316.902344 C 235.054688 316.902344 234.246094 316.984375 233.441406 317.140625 C 232.640625 317.300781 231.863281 317.539062 231.105469 317.851562 C 230.351562 318.164062 229.632812 318.546875 228.953125 319.003906 C 228.273438 319.457031 227.644531 319.972656 227.0625 320.550781 C 226.484375 321.128906 225.96875 321.757812 225.515625 322.4375 C 225.058594 323.121094 224.675781 323.835938 224.363281 324.59375 C 224.050781 325.347656 223.8125 326.128906 223.65625 326.929688 C 223.496094 327.734375 223.414062 328.542969 223.414062 329.359375 C 223.414062 330.179688 223.496094 330.988281 223.65625 331.789062 C 223.8125 332.59375 224.050781 333.371094 224.363281 334.128906 C 224.675781 334.882812 225.058594 335.601562 225.515625 336.28125 C 225.96875 336.960938 226.484375 337.589844 227.0625 338.167969 C 227.644531 338.746094 228.273438 339.265625 228.953125 339.71875 C 229.632812 340.171875 230.351562 340.558594 231.105469 340.871094 C 231.863281 341.183594 232.640625 341.417969 233.441406 341.578125 C 234.246094 341.738281 235.054688 341.820312 235.875 341.820312 C 236.691406 341.820312 237.5 341.738281 238.304688 341.578125 C 239.105469 341.417969 239.886719 341.183594 240.640625 340.871094 C 241.394531 340.558594 242.113281 340.171875 242.792969 339.71875 C 243.472656 339.265625 244.105469 338.746094 244.683594 338.167969 C 245.261719 337.589844 245.777344 336.960938 246.230469 336.28125 C 246.6875 335.601562 247.070312 334.882812 247.382812 334.128906 C 247.695312 333.371094 247.933594 332.59375 248.089844 331.789062 C 248.25 330.988281 248.332031 330.179688 248.332031 329.359375 C 248.328125 328.542969 248.25 327.734375 248.085938 326.933594 C 247.925781 326.132812 247.6875 325.355469 247.375 324.601562 C 247.0625 323.847656 246.675781 323.128906 246.222656 322.453125 C 245.769531 321.773438 245.25 321.144531 244.671875 320.566406 C 244.09375 319.992188 243.464844 319.476562 242.785156 319.023438 C 242.105469 318.570312 241.390625 318.1875 240.636719 317.875 C 239.878906 317.5625 239.101562 317.324219 238.300781 317.167969 C 237.5 317.007812 236.691406 316.925781 235.875 316.925781 Z M 235.875 316.902344 " fill-opacity="1" fill-rule="nonzero"/></g><path fill="#000000" d="M 96.21875 82.71875 L 106.796875 72.140625 L 110.320312 75.664062 L 99.746094 86.242188 Z M 96.21875 82.71875 " fill-opacity="1" fill-rule="nonzero"/><path fill="#000000" d="M 83.164062 61.691406 L 88.148438 61.691406 L 88.148438 76.648438 L 83.164062 76.648438 Z M 83.164062 61.691406 " fill-opacity="1" fill-rule="nonzero"/><path fill="#000000" d="M 106.230469 93.417969 L 121.1875 93.417969 L 121.1875 98.402344 L 106.230469 98.402344 Z M 106.230469 93.417969 " fill-opacity="1" fill-rule="nonzero"/><path fill="#f5f5f5" d="M 117.265625 129.96875 L 52.292969 129.96875 L 91.28125 274.421875 L 141.027344 274.421875 Z M 117.265625 129.96875 " fill-opacity="1" fill-rule="nonzero"/><path fill="#000000" d="M 309.898438 276.914062 L 138.910156 276.914062 L 114.277344 127.144531 L 321.558594 149.402344 Z M 143.144531 271.929688 L 305.347656 271.929688 L 316.144531 153.839844 L 120.257812 132.800781 Z M 143.144531 271.929688 " fill-opacity="1" fill-rule="nonzero"/><path fill="#000000" d="M 143.960938 276.914062 L 89.371094 276.914062 L 49.003906 127.476562 L 119.351562 127.476562 Z M 93.191406 271.929688 L 138.097656 271.929688 L 115.148438 132.460938 L 55.550781 132.460938 Z M 93.191406 271.929688 " fill-opacity="1" fill-rule="nonzero"/><path fill="#000000" d="M 123.039062 132.460938 L 51.230469 132.460938 L 19.605469 99.503906 L 91.945312 99.503906 Z M 53.359375 127.476562 L 111.496094 127.476562 L 89.792969 104.488281 L 31.289062 104.488281 Z M 53.359375 127.476562 " fill-opacity="1" fill-rule="nonzero"/><g clip-path="url(#d57d9b7910)"><path fill="#000000" d="M 84.785156 110.507812 L 11.042969 110.507812 C 10.480469 110.507812 9.925781 110.453125 9.375 110.34375 C 8.824219 110.234375 8.289062 110.074219 7.773438 109.859375 C 7.253906 109.644531 6.761719 109.382812 6.292969 109.070312 C 5.828125 108.757812 5.394531 108.402344 5 108.007812 C 4.601562 107.609375 4.25 107.179688 3.9375 106.710938 C 3.625 106.246094 3.363281 105.753906 3.148438 105.234375 C 2.933594 104.714844 2.769531 104.179688 2.660156 103.632812 C 2.550781 103.082031 2.496094 102.523438 2.496094 101.964844 C 2.496094 101.402344 2.550781 100.847656 2.660156 100.296875 C 2.769531 99.746094 2.933594 99.210938 3.148438 98.691406 C 3.363281 98.175781 3.625 97.683594 3.9375 97.214844 C 4.25 96.75 4.601562 96.316406 5 95.921875 C 5.394531 95.523438 5.828125 95.167969 6.292969 94.859375 C 6.761719 94.546875 7.253906 94.28125 7.773438 94.066406 C 8.289062 93.851562 8.824219 93.691406 9.375 93.582031 C 9.925781 93.472656 10.480469 93.417969 11.042969 93.417969 L 84.785156 93.417969 C 85.347656 93.417969 85.902344 93.472656 86.453125 93.582031 C 87.003906 93.691406 87.535156 93.851562 88.054688 94.066406 C 88.574219 94.28125 89.066406 94.546875 89.53125 94.859375 C 90 95.167969 90.429688 95.523438 90.828125 95.921875 C 91.222656 96.316406 91.578125 96.75 91.890625 97.214844 C 92.203125 97.683594 92.464844 98.175781 92.679688 98.691406 C 92.894531 99.210938 93.058594 99.746094 93.167969 100.296875 C 93.277344 100.847656 93.332031 101.402344 93.332031 101.964844 C 93.332031 102.523438 93.277344 103.082031 93.167969 103.632812 C 93.058594 104.179688 92.894531 104.714844 92.679688 105.234375 C 92.464844 105.753906 92.203125 106.246094 91.890625 106.710938 C 91.578125 107.179688 91.222656 107.609375 90.828125 108.007812 C 90.429688 108.402344 90 108.757812 89.53125 109.070312 C 89.066406 109.382812 88.574219 109.644531 88.054688 109.859375 C 87.535156 110.074219 87.003906 110.234375 86.453125 110.34375 C 85.902344 110.453125 85.347656 110.507812 84.785156 110.507812 Z M 11.042969 98.402344 C 10.570312 98.402344 10.117188 98.492188 9.679688 98.671875 C 9.242188 98.851562 8.855469 99.109375 8.523438 99.445312 C 8.1875 99.777344 7.933594 100.164062 7.75 100.601562 C 7.570312 101.035156 7.480469 101.492188 7.480469 101.964844 C 7.480469 102.4375 7.570312 102.890625 7.75 103.328125 C 7.933594 103.761719 8.1875 104.148438 8.523438 104.484375 C 8.855469 104.816406 9.242188 105.074219 9.679688 105.253906 C 10.117188 105.4375 10.570312 105.527344 11.042969 105.527344 L 84.785156 105.527344 C 85.257812 105.527344 85.710938 105.4375 86.148438 105.253906 C 86.585938 105.074219 86.96875 104.816406 87.304688 104.484375 C 87.636719 104.148438 87.894531 103.761719 88.078125 103.328125 C 88.257812 102.890625 88.347656 102.4375 88.347656 101.964844 C 88.347656 101.492188 88.257812 101.035156 88.078125 100.601562 C 87.894531 100.164062 87.636719 99.777344 87.304688 99.445312 C 86.96875 99.109375 86.585938 98.851562 86.148438 98.671875 C 85.710938 98.492188 85.257812 98.402344 84.785156 98.402344 Z M 11.042969 98.402344 " fill-opacity="1" fill-rule="nonzero"/></g><path fill="#000000" d="M 84.785156 95.910156 L 11.042969 95.910156 C 10.644531 95.910156 10.25 95.949219 9.863281 96.027344 C 9.472656 96.101562 9.09375 96.21875 8.726562 96.371094 C 8.359375 96.523438 8.007812 96.707031 7.679688 96.929688 C 7.347656 97.148438 7.042969 97.402344 6.761719 97.683594 C 6.480469 97.964844 6.230469 98.269531 6.007812 98.601562 C 5.789062 98.929688 5.601562 99.28125 5.449219 99.648438 C 5.296875 100.015625 5.183594 100.390625 5.105469 100.78125 C 5.027344 101.171875 4.988281 101.566406 4.988281 101.964844 C 4.988281 102.359375 5.027344 102.753906 5.105469 103.144531 C 5.183594 103.535156 5.296875 103.914062 5.449219 104.28125 C 5.601562 104.648438 5.789062 104.996094 6.007812 105.328125 C 6.230469 105.65625 6.480469 105.964844 6.761719 106.246094 C 7.042969 106.527344 7.347656 106.777344 7.679688 106.996094 C 8.007812 107.21875 8.359375 107.40625 8.726562 107.558594 C 9.09375 107.710938 9.472656 107.824219 9.863281 107.902344 C 10.25 107.980469 10.644531 108.019531 11.042969 108.019531 L 84.785156 108.019531 C 85.183594 108.019531 85.574219 107.980469 85.964844 107.902344 C 86.355469 107.824219 86.734375 107.710938 87.101562 107.558594 C 87.46875 107.40625 87.816406 107.21875 88.148438 106.996094 C 88.480469 106.777344 88.785156 106.527344 89.066406 106.246094 C 89.347656 105.964844 89.597656 105.65625 89.820312 105.328125 C 90.039062 104.996094 90.226562 104.648438 90.378906 104.28125 C 90.53125 103.914062 90.644531 103.535156 90.722656 103.144531 C 90.800781 102.753906 90.839844 102.359375 90.839844 101.964844 C 90.839844 101.566406 90.800781 101.171875 90.722656 100.78125 C 90.644531 100.390625 90.53125 100.015625 90.378906 99.648438 C 90.226562 99.28125 90.039062 98.929688 89.820312 98.601562 C 89.597656 98.269531 89.347656 97.964844 89.066406 97.683594 C 88.785156 97.402344 88.480469 97.148438 88.148438 96.929688 C 87.816406 96.707031 87.46875 96.523438 87.101562 96.371094 C 86.734375 96.21875 86.355469 96.101562 85.964844 96.027344 C 85.574219 95.949219 85.183594 95.910156 84.785156 95.910156 Z M 84.785156 95.910156 " fill-opacity="1" fill-rule="nonzero"/><path fill="#000000" d="M 143.519531 331.859375 L 88.789062 331.859375 L 88.789062 274.421875 L 93.769531 274.421875 L 93.769531 326.878906 L 138.535156 326.878906 L 138.535156 274.421875 L 143.519531 274.421875 Z M 143.519531 331.859375 " fill-opacity="1" fill-rule="nonzero"/><path fill="#000000" d="M 286.550781 331.859375 L 138.535156 331.859375 L 138.535156 274.421875 L 143.519531 274.421875 L 143.519531 326.878906 L 286.550781 326.878906 Z M 286.550781 331.859375 " fill-opacity="1" fill-rule="nonzero"/><path fill="#000000" d="M 155.960938 329.367188 C 155.960938 330.347656 155.863281 331.320312 155.671875 332.28125 C 155.480469 333.242188 155.199219 334.175781 154.824219 335.082031 C 154.449219 335.988281 153.988281 336.851562 153.445312 337.664062 C 152.898438 338.480469 152.28125 339.234375 151.585938 339.929688 C 150.894531 340.621094 150.140625 341.242188 149.324219 341.785156 C 148.507812 342.328125 147.648438 342.789062 146.742188 343.164062 C 145.835938 343.539062 144.902344 343.824219 143.941406 344.015625 C 142.980469 344.207031 142.007812 344.300781 141.027344 344.300781 C 140.046875 344.300781 139.074219 344.207031 138.113281 344.015625 C 137.152344 343.824219 136.21875 343.539062 135.3125 343.164062 C 134.40625 342.789062 133.546875 342.328125 132.730469 341.785156 C 131.917969 341.242188 131.160156 340.621094 130.46875 339.929688 C 129.773438 339.234375 129.15625 338.480469 128.613281 337.664062 C 128.066406 336.851562 127.605469 335.988281 127.230469 335.082031 C 126.855469 334.175781 126.574219 333.242188 126.382812 332.28125 C 126.191406 331.320312 126.09375 330.347656 126.09375 329.367188 C 126.09375 328.386719 126.191406 327.417969 126.382812 326.457031 C 126.574219 325.492188 126.855469 324.558594 127.230469 323.65625 C 127.605469 322.75 128.066406 321.886719 128.613281 321.074219 C 129.15625 320.257812 129.773438 319.503906 130.46875 318.808594 C 131.160156 318.117188 131.917969 317.496094 132.730469 316.953125 C 133.546875 316.40625 134.40625 315.949219 135.3125 315.574219 C 136.21875 315.199219 137.152344 314.914062 138.113281 314.722656 C 139.074219 314.53125 140.046875 314.4375 141.027344 314.4375 C 142.007812 314.4375 142.980469 314.53125 143.941406 314.722656 C 144.902344 314.914062 145.835938 315.199219 146.742188 315.574219 C 147.648438 315.949219 148.507812 316.40625 149.324219 316.953125 C 150.140625 317.496094 150.894531 318.117188 151.585938 318.808594 C 152.28125 319.503906 152.898438 320.257812 153.445312 321.074219 C 153.988281 321.886719 154.449219 322.75 154.824219 323.65625 C 155.199219 324.558594 155.480469 325.492188 155.671875 326.457031 C 155.863281 327.417969 155.960938 328.386719 155.960938 329.367188 Z M 155.960938 329.367188 " fill-opacity="1" fill-rule="nonzero"/><path fill="#000000" d="M 301.492188 329.367188 C 301.492188 330.347656 301.398438 331.320312 301.207031 332.28125 C 301.015625 333.242188 300.730469 334.175781 300.355469 335.082031 C 299.980469 335.988281 299.519531 336.851562 298.976562 337.664062 C 298.429688 338.480469 297.8125 339.234375 297.117188 339.929688 C 296.425781 340.621094 295.671875 341.242188 294.855469 341.785156 C 294.039062 342.328125 293.179688 342.789062 292.273438 343.164062 C 291.367188 343.539062 290.433594 343.824219 289.472656 344.015625 C 288.511719 344.207031 287.539062 344.300781 286.558594 344.300781 C 285.578125 344.300781 284.609375 344.207031 283.648438 344.015625 C 282.683594 343.824219 281.75 343.539062 280.84375 343.164062 C 279.941406 342.789062 279.078125 342.328125 278.265625 341.785156 C 277.449219 341.242188 276.695312 340.621094 276 339.929688 C 275.308594 339.234375 274.6875 338.480469 274.144531 337.664062 C 273.597656 336.851562 273.140625 335.988281 272.765625 335.082031 C 272.390625 334.175781 272.105469 333.242188 271.914062 332.28125 C 271.722656 331.320312 271.628906 330.347656 271.628906 329.367188 C 271.628906 328.386719 271.722656 327.417969 271.914062 326.457031 C 272.105469 325.492188 272.390625 324.558594 272.765625 323.65625 C 273.140625 322.75 273.597656 321.886719 274.144531 321.074219 C 274.6875 320.257812 275.308594 319.503906 276 318.808594 C 276.695312 318.117188 277.449219 317.496094 278.265625 316.953125 C 279.078125 316.40625 279.941406 315.949219 280.84375 315.574219 C 281.75 315.199219 282.683594 314.914062 283.648438 314.722656 C 284.609375 314.53125 285.578125 314.4375 286.558594 314.4375 C 287.539062 314.4375 288.511719 314.53125 289.472656 314.722656 C 290.433594 314.914062 291.367188 315.199219 292.273438 315.574219 C 293.179688 315.949219 294.039062 316.40625 294.855469 316.953125 C 295.671875 317.496094 296.425781 318.117188 297.117188 318.808594 C 297.8125 319.503906 298.429688 320.257812 298.976562 321.074219 C 299.519531 321.886719 299.980469 322.75 300.355469 323.65625 C 300.730469 324.558594 301.015625 325.492188 301.207031 326.457031 C 301.398438 327.417969 301.492188 328.386719 301.492188 329.367188 Z M 301.492188 329.367188 " fill-opacity="1" fill-rule="nonzero"/><g clip-path="url(#08fbceb241)"><path fill="#000000" d="M 141.027344 346.800781 C 140.457031 346.800781 139.886719 346.773438 139.316406 346.71875 C 138.75 346.660156 138.183594 346.578125 137.625 346.464844 C 137.066406 346.355469 136.511719 346.214844 135.964844 346.050781 C 135.417969 345.882812 134.882812 345.691406 134.351562 345.472656 C 133.824219 345.253906 133.308594 345.011719 132.804688 344.742188 C 132.300781 344.472656 131.8125 344.179688 131.339844 343.863281 C 130.863281 343.542969 130.40625 343.203125 129.964844 342.84375 C 129.523438 342.480469 129.097656 342.097656 128.695312 341.691406 C 128.292969 341.289062 127.90625 340.867188 127.546875 340.425781 C 127.183594 339.984375 126.84375 339.523438 126.527344 339.050781 C 126.207031 338.574219 125.914062 338.085938 125.644531 337.582031 C 125.375 337.078125 125.132812 336.5625 124.914062 336.035156 C 124.695312 335.507812 124.503906 334.96875 124.335938 334.421875 C 124.171875 333.875 124.035156 333.324219 123.921875 332.761719 C 123.808594 332.203125 123.726562 331.636719 123.671875 331.070312 C 123.613281 330.5 123.585938 329.933594 123.585938 329.359375 C 123.585938 328.789062 123.613281 328.21875 123.671875 327.652344 C 123.726562 327.082031 123.808594 326.519531 123.921875 325.957031 C 124.035156 325.398438 124.171875 324.84375 124.335938 324.296875 C 124.503906 323.75 124.695312 323.214844 124.914062 322.6875 C 125.132812 322.160156 125.375 321.644531 125.644531 321.140625 C 125.914062 320.636719 126.207031 320.144531 126.527344 319.671875 C 126.84375 319.195312 127.183594 318.738281 127.546875 318.296875 C 127.90625 317.855469 128.292969 317.433594 128.695312 317.027344 C 129.097656 316.625 129.523438 316.242188 129.964844 315.878906 C 130.40625 315.515625 130.863281 315.175781 131.339844 314.859375 C 131.8125 314.542969 132.300781 314.25 132.804688 313.980469 C 133.308594 313.710938 133.824219 313.464844 134.351562 313.246094 C 134.882812 313.027344 135.417969 312.835938 135.964844 312.671875 C 136.511719 312.503906 137.066406 312.367188 137.625 312.253906 C 138.183594 312.144531 138.75 312.058594 139.316406 312.003906 C 139.886719 311.949219 140.457031 311.917969 141.027344 311.917969 C 141.597656 311.917969 142.167969 311.949219 142.738281 312.003906 C 143.304688 312.058594 143.871094 312.144531 144.429688 312.253906 C 144.992188 312.367188 145.542969 312.503906 146.089844 312.671875 C 146.636719 312.835938 147.175781 313.027344 147.703125 313.246094 C 148.230469 313.464844 148.746094 313.710938 149.25 313.980469 C 149.753906 314.25 150.242188 314.542969 150.71875 314.859375 C 151.191406 315.175781 151.652344 315.515625 152.09375 315.878906 C 152.535156 316.242188 152.957031 316.625 153.359375 317.027344 C 153.765625 317.433594 154.148438 317.855469 154.507812 318.296875 C 154.871094 318.738281 155.210938 319.195312 155.527344 319.671875 C 155.847656 320.144531 156.140625 320.636719 156.410156 321.140625 C 156.679688 321.644531 156.921875 322.160156 157.140625 322.6875 C 157.359375 323.214844 157.550781 323.75 157.71875 324.296875 C 157.882812 324.84375 158.023438 325.398438 158.132812 325.957031 C 158.246094 326.519531 158.328125 327.082031 158.382812 327.652344 C 158.441406 328.21875 158.46875 328.789062 158.46875 329.359375 C 158.46875 329.933594 158.441406 330.5 158.382812 331.070312 C 158.328125 331.636719 158.246094 332.203125 158.132812 332.761719 C 158.023438 333.324219 157.882812 333.875 157.71875 334.421875 C 157.550781 334.96875 157.359375 335.507812 157.140625 336.035156 C 156.921875 336.5625 156.679688 337.078125 156.410156 337.582031 C 156.140625 338.085938 155.847656 338.574219 155.527344 339.050781 C 155.210938 339.523438 154.871094 339.984375 154.507812 340.425781 C 154.148438 340.867188 153.765625 341.289062 153.359375 341.691406 C 152.957031 342.097656 152.535156 342.480469 152.09375 342.84375 C 151.652344 343.203125 151.191406 343.542969 150.71875 343.863281 C 150.242188 344.179688 149.753906 344.472656 149.25 344.742188 C 148.746094 345.011719 148.230469 345.253906 147.703125 345.472656 C 147.175781 345.691406 146.636719 345.882812 146.089844 346.050781 C 145.542969 346.214844 144.992188 346.355469 144.429688 346.464844 C 143.871094 346.578125 143.304688 346.660156 142.738281 346.71875 C 142.167969 346.773438 141.597656 346.800781 141.027344 346.800781 Z M 141.027344 316.902344 C 140.210938 316.902344 139.398438 316.984375 138.597656 317.140625 C 137.796875 317.300781 137.015625 317.539062 136.261719 317.851562 C 135.503906 318.164062 134.785156 318.546875 134.105469 319.003906 C 133.425781 319.457031 132.796875 319.972656 132.21875 320.550781 C 131.640625 321.128906 131.125 321.757812 130.667969 322.4375 C 130.214844 323.121094 129.832031 323.835938 129.519531 324.59375 C 129.203125 325.347656 128.96875 326.128906 128.808594 326.929688 C 128.648438 327.734375 128.570312 328.542969 128.570312 329.359375 C 128.570312 330.179688 128.648438 330.988281 128.808594 331.789062 C 128.96875 332.59375 129.203125 333.371094 129.519531 334.128906 C 129.832031 334.882812 130.214844 335.601562 130.667969 336.28125 C 131.125 336.960938 131.640625 337.589844 132.21875 338.167969 C 132.796875 338.746094 133.425781 339.265625 134.105469 339.71875 C 134.785156 340.171875 135.503906 340.558594 136.261719 340.871094 C 137.015625 341.183594 137.796875 341.417969 138.597656 341.578125 C 139.398438 341.738281 140.210938 341.820312 141.027344 341.820312 C 141.84375 341.820312 142.65625 341.738281 143.457031 341.578125 C 144.261719 341.417969 145.039062 341.183594 145.796875 340.871094 C 146.550781 340.558594 147.269531 340.171875 147.949219 339.71875 C 148.628906 339.265625 149.257812 338.746094 149.835938 338.167969 C 150.414062 337.589844 150.929688 336.960938 151.386719 336.28125 C 151.839844 335.601562 152.222656 334.882812 152.539062 334.128906 C 152.851562 333.371094 153.085938 332.59375 153.246094 331.789062 C 153.40625 330.988281 153.484375 330.179688 153.484375 329.359375 C 153.484375 328.542969 153.402344 327.734375 153.242188 326.933594 C 153.082031 326.132812 152.84375 325.355469 152.53125 324.601562 C 152.214844 323.847656 151.832031 323.128906 151.378906 322.453125 C 150.921875 321.773438 150.40625 321.144531 149.828125 320.566406 C 149.25 319.992188 148.621094 319.476562 147.941406 319.023438 C 147.261719 318.570312 146.542969 318.1875 145.789062 317.875 C 145.035156 317.5625 144.257812 317.324219 143.453125 317.167969 C 142.652344 317.007812 141.84375 316.925781 141.027344 316.925781 Z M 141.027344 316.902344 " fill-opacity="1" fill-rule="nonzero"/></g><g clip-path="url(#275ea850fa)"><path fill="#000000" d="M 286.535156 346.800781 C 285.964844 346.800781 285.394531 346.773438 284.824219 346.71875 C 284.257812 346.660156 283.691406 346.578125 283.132812 346.464844 C 282.574219 346.355469 282.019531 346.214844 281.472656 346.050781 C 280.925781 345.882812 280.386719 345.691406 279.859375 345.472656 C 279.332031 345.253906 278.816406 345.011719 278.3125 344.742188 C 277.808594 344.472656 277.320312 344.179688 276.84375 343.863281 C 276.371094 343.542969 275.914062 343.203125 275.46875 342.84375 C 275.027344 342.480469 274.605469 342.097656 274.203125 341.691406 C 273.796875 341.289062 273.414062 340.867188 273.054688 340.425781 C 272.691406 339.984375 272.351562 339.523438 272.035156 339.050781 C 271.714844 338.574219 271.421875 338.085938 271.152344 337.582031 C 270.882812 337.078125 270.640625 336.5625 270.421875 336.035156 C 270.203125 335.507812 270.011719 334.96875 269.84375 334.421875 C 269.679688 333.875 269.539062 333.324219 269.429688 332.761719 C 269.316406 332.203125 269.234375 331.636719 269.179688 331.070312 C 269.121094 330.5 269.09375 329.933594 269.09375 329.359375 C 269.09375 328.789062 269.121094 328.21875 269.179688 327.652344 C 269.234375 327.082031 269.316406 326.519531 269.429688 325.957031 C 269.539062 325.398438 269.679688 324.84375 269.84375 324.296875 C 270.011719 323.75 270.203125 323.214844 270.421875 322.6875 C 270.640625 322.160156 270.882812 321.644531 271.152344 321.140625 C 271.421875 320.636719 271.714844 320.144531 272.035156 319.671875 C 272.351562 319.195312 272.691406 318.738281 273.054688 318.296875 C 273.414062 317.855469 273.796875 317.433594 274.203125 317.027344 C 274.605469 316.625 275.027344 316.242188 275.46875 315.878906 C 275.914062 315.515625 276.371094 315.175781 276.84375 314.859375 C 277.320312 314.542969 277.808594 314.25 278.3125 313.980469 C 278.816406 313.710938 279.332031 313.464844 279.859375 313.246094 C 280.386719 313.027344 280.925781 312.835938 281.472656 312.671875 C 282.019531 312.503906 282.574219 312.367188 283.132812 312.253906 C 283.691406 312.144531 284.257812 312.058594 284.824219 312.003906 C 285.394531 311.949219 285.964844 311.917969 286.535156 311.917969 C 287.105469 311.917969 287.675781 311.949219 288.246094 312.003906 C 288.8125 312.058594 289.378906 312.144531 289.9375 312.253906 C 290.496094 312.367188 291.050781 312.503906 291.597656 312.671875 C 292.144531 312.835938 292.683594 313.027344 293.210938 313.246094 C 293.738281 313.464844 294.253906 313.710938 294.757812 313.980469 C 295.261719 314.25 295.75 314.542969 296.226562 314.859375 C 296.699219 315.175781 297.15625 315.515625 297.597656 315.878906 C 298.042969 316.242188 298.464844 316.625 298.867188 317.027344 C 299.273438 317.433594 299.65625 317.855469 300.015625 318.296875 C 300.378906 318.738281 300.71875 319.195312 301.035156 319.671875 C 301.355469 320.144531 301.648438 320.636719 301.917969 321.140625 C 302.1875 321.644531 302.429688 322.160156 302.648438 322.6875 C 302.867188 323.214844 303.058594 323.75 303.226562 324.296875 C 303.390625 324.84375 303.53125 325.398438 303.640625 325.957031 C 303.753906 326.519531 303.835938 327.082031 303.890625 327.652344 C 303.949219 328.21875 303.976562 328.789062 303.976562 329.359375 C 303.976562 329.933594 303.949219 330.5 303.890625 331.070312 C 303.835938 331.636719 303.753906 332.203125 303.640625 332.761719 C 303.53125 333.324219 303.390625 333.875 303.226562 334.421875 C 303.058594 334.96875 302.867188 335.507812 302.648438 336.035156 C 302.429688 336.5625 302.1875 337.078125 301.917969 337.582031 C 301.648438 338.085938 301.355469 338.574219 301.035156 339.050781 C 300.71875 339.523438 300.378906 339.984375 300.015625 340.425781 C 299.65625 340.867188 299.273438 341.289062 298.867188 341.691406 C 298.464844 342.097656 298.042969 342.480469 297.597656 342.84375 C 297.15625 343.203125 296.699219 343.542969 296.226562 343.863281 C 295.75 344.179688 295.261719 344.472656 294.757812 344.742188 C 294.253906 345.011719 293.738281 345.253906 293.210938 345.472656 C 292.683594 345.691406 292.144531 345.882812 291.597656 346.050781 C 291.050781 346.214844 290.496094 346.355469 289.9375 346.464844 C 289.378906 346.578125 288.8125 346.660156 288.246094 346.71875 C 287.675781 346.773438 287.105469 346.800781 286.535156 346.800781 Z M 286.535156 316.902344 C 285.71875 316.902344 284.90625 316.984375 284.105469 317.140625 C 283.300781 317.300781 282.523438 317.539062 281.769531 317.851562 C 281.011719 318.164062 280.292969 318.546875 279.613281 319.003906 C 278.933594 319.457031 278.304688 319.972656 277.726562 320.550781 C 277.148438 321.128906 276.632812 321.757812 276.175781 322.4375 C 275.722656 323.121094 275.339844 323.835938 275.027344 324.59375 C 274.710938 325.347656 274.476562 326.128906 274.316406 326.929688 C 274.15625 327.734375 274.078125 328.542969 274.078125 329.359375 C 274.078125 330.179688 274.15625 330.988281 274.316406 331.789062 C 274.476562 332.59375 274.710938 333.371094 275.027344 334.128906 C 275.339844 334.882812 275.722656 335.601562 276.175781 336.28125 C 276.632812 336.960938 277.148438 337.589844 277.726562 338.167969 C 278.304688 338.746094 278.933594 339.265625 279.613281 339.71875 C 280.292969 340.171875 281.011719 340.558594 281.769531 340.871094 C 282.523438 341.183594 283.300781 341.417969 284.105469 341.578125 C 284.90625 341.738281 285.71875 341.820312 286.535156 341.820312 C 287.351562 341.820312 288.164062 341.738281 288.964844 341.578125 C 289.769531 341.417969 290.546875 341.183594 291.300781 340.871094 C 292.058594 340.558594 292.777344 340.171875 293.457031 339.71875 C 294.136719 339.265625 294.765625 338.746094 295.34375 338.167969 C 295.921875 337.589844 296.4375 336.960938 296.894531 336.28125 C 297.347656 335.601562 297.730469 334.882812 298.042969 334.128906 C 298.359375 333.371094 298.59375 332.59375 298.753906 331.789062 C 298.914062 330.988281 298.992188 330.179688 298.992188 329.359375 C 298.992188 328.542969 298.910156 327.734375 298.75 326.933594 C 298.589844 326.132812 298.351562 325.355469 298.039062 324.601562 C 297.722656 323.847656 297.339844 323.128906 296.886719 322.453125 C 296.429688 321.773438 295.914062 321.144531 295.335938 320.566406 C 294.757812 319.992188 294.128906 319.476562 293.449219 319.023438 C 292.769531 318.570312 292.050781 318.1875 291.296875 317.875 C 290.542969 317.5625 289.765625 317.324219 288.960938 317.167969 C 288.160156 317.007812 287.351562 316.925781 286.535156 316.925781 Z M 286.535156 316.902344 " fill-opacity="1" fill-rule="nonzero"/></g><path fill="#f5f5f5" d="M 146.359375 329.367188 C 146.359375 329.722656 146.324219 330.070312 146.257812 330.417969 C 146.1875 330.765625 146.085938 331.101562 145.949219 331.429688 C 145.816406 331.753906 145.648438 332.066406 145.453125 332.359375 C 145.257812 332.652344 145.03125 332.925781 144.785156 333.175781 C 144.535156 333.425781 144.261719 333.648438 143.96875 333.84375 C 143.675781 334.039062 143.363281 334.207031 143.039062 334.339844 C 142.710938 334.476562 142.375 334.578125 142.027344 334.648438 C 141.679688 334.714844 141.332031 334.75 140.976562 334.75 C 140.625 334.75 140.273438 334.714844 139.929688 334.648438 C 139.582031 334.578125 139.246094 334.476562 138.917969 334.339844 C 138.59375 334.207031 138.28125 334.039062 137.988281 333.84375 C 137.695312 333.648438 137.421875 333.425781 137.171875 333.175781 C 136.921875 332.925781 136.699219 332.652344 136.503906 332.359375 C 136.308594 332.066406 136.140625 331.753906 136.003906 331.429688 C 135.871094 331.101562 135.769531 330.765625 135.699219 330.417969 C 135.628906 330.070312 135.597656 329.722656 135.597656 329.367188 C 135.597656 329.015625 135.628906 328.664062 135.699219 328.320312 C 135.769531 327.972656 135.871094 327.636719 136.003906 327.308594 C 136.140625 326.984375 136.308594 326.671875 136.503906 326.378906 C 136.699219 326.085938 136.921875 325.8125 137.171875 325.5625 C 137.421875 325.3125 137.695312 325.089844 137.988281 324.894531 C 138.28125 324.699219 138.59375 324.53125 138.917969 324.398438 C 139.246094 324.261719 139.582031 324.160156 139.929688 324.089844 C 140.273438 324.023438 140.625 323.988281 140.976562 323.988281 C 141.332031 323.988281 141.679688 324.023438 142.027344 324.089844 C 142.375 324.160156 142.710938 324.261719 143.039062 324.398438 C 143.363281 324.53125 143.675781 324.699219 143.96875 324.894531 C 144.261719 325.089844 144.535156 325.3125 144.785156 325.5625 C 145.03125 325.8125 145.257812 326.085938 145.453125 326.378906 C 145.648438 326.671875 145.816406 326.984375 145.949219 327.308594 C 146.085938 327.636719 146.1875 327.972656 146.257812 328.320312 C 146.324219 328.664062 146.359375 329.015625 146.359375 329.367188 Z M 146.359375 329.367188 " fill-opacity="1" fill-rule="nonzero"/><path fill="#f5f5f5" d="M 291.941406 329.367188 C 291.941406 329.722656 291.90625 330.070312 291.839844 330.417969 C 291.769531 330.765625 291.667969 331.101562 291.53125 331.429688 C 291.398438 331.753906 291.230469 332.066406 291.035156 332.359375 C 290.839844 332.652344 290.617188 332.925781 290.367188 333.175781 C 290.117188 333.425781 289.84375 333.648438 289.550781 333.84375 C 289.257812 334.039062 288.945312 334.207031 288.621094 334.339844 C 288.292969 334.476562 287.957031 334.578125 287.609375 334.648438 C 287.261719 334.714844 286.914062 334.75 286.558594 334.75 C 286.207031 334.75 285.855469 334.714844 285.511719 334.648438 C 285.164062 334.578125 284.828125 334.476562 284.5 334.339844 C 284.175781 334.207031 283.863281 334.039062 283.570312 333.84375 C 283.277344 333.648438 283.003906 333.425781 282.753906 333.175781 C 282.503906 332.925781 282.28125 332.652344 282.085938 332.359375 C 281.890625 332.066406 281.722656 331.753906 281.589844 331.429688 C 281.453125 331.101562 281.351562 330.765625 281.28125 330.417969 C 281.210938 330.070312 281.179688 329.722656 281.179688 329.367188 C 281.179688 329.015625 281.210938 328.664062 281.28125 328.320312 C 281.351562 327.972656 281.453125 327.636719 281.585938 327.308594 C 281.722656 326.984375 281.890625 326.671875 282.085938 326.378906 C 282.28125 326.085938 282.503906 325.8125 282.753906 325.5625 C 283.003906 325.3125 283.277344 325.089844 283.570312 324.894531 C 283.863281 324.699219 284.175781 324.53125 284.5 324.398438 C 284.828125 324.261719 285.164062 324.160156 285.511719 324.089844 C 285.855469 324.023438 286.207031 323.988281 286.558594 323.988281 C 286.914062 323.988281 287.261719 324.023438 287.609375 324.089844 C 287.957031 324.160156 288.292969 324.261719 288.621094 324.398438 C 288.945312 324.53125 289.257812 324.699219 289.550781 324.894531 C 289.84375 325.089844 290.117188 325.3125 290.367188 325.5625 C 290.617188 325.8125 290.839844 326.085938 291.035156 326.378906 C 291.230469 326.671875 291.398438 326.984375 291.53125 327.308594 C 291.667969 327.636719 291.769531 327.972656 291.839844 328.320312 C 291.90625 328.664062 291.941406 329.015625 291.941406 329.367188 Z M 291.941406 329.367188 " fill-opacity="1" fill-rule="nonzero"/><path fill="#a6a6a6" d="M 170.496094 164.71875 C 171.121094 164.773438 171.734375 164.886719 172.339844 165.054688 C 172.945312 165.222656 173.527344 165.449219 174.09375 165.726562 C 174.65625 166.003906 175.1875 166.332031 175.691406 166.710938 C 176.191406 167.085938 176.65625 167.507812 177.082031 167.96875 C 177.503906 168.433594 177.882812 168.933594 178.214844 169.464844 C 178.542969 170 178.824219 170.558594 179.050781 171.144531 C 179.277344 171.730469 179.449219 172.332031 179.566406 172.949219 C 179.679688 173.566406 179.738281 174.1875 179.738281 174.816406 L 179.738281 244.015625 C 179.722656 244.371094 179.675781 244.722656 179.59375 245.066406 C 179.511719 245.414062 179.402344 245.75 179.261719 246.074219 C 179.117188 246.402344 178.949219 246.710938 178.75 247.003906 C 178.550781 247.300781 178.328125 247.574219 178.078125 247.828125 C 177.828125 248.082031 177.558594 248.308594 177.269531 248.511719 C 176.976562 248.71875 176.671875 248.894531 176.347656 249.042969 C 176.023438 249.1875 175.691406 249.304688 175.347656 249.390625 C 175.003906 249.480469 174.652344 249.535156 174.296875 249.554688 C 173.945312 249.578125 173.589844 249.570312 173.238281 249.527344 C 172.882812 249.484375 172.539062 249.410156 172.199219 249.304688 C 171.859375 249.199219 171.535156 249.0625 171.21875 248.898438 C 170.90625 248.730469 170.609375 248.539062 170.328125 248.316406 C 170.050781 248.097656 169.792969 247.855469 169.558594 247.585938 C 169.324219 247.320312 169.117188 247.035156 168.9375 246.730469 C 168.753906 246.425781 168.601562 246.105469 168.476562 245.773438 C 168.355469 245.4375 168.261719 245.097656 168.203125 244.746094 L 159.53125 176.105469 C 159.484375 175.730469 159.457031 175.351562 159.449219 174.976562 C 159.445312 174.597656 159.460938 174.21875 159.496094 173.84375 C 159.53125 173.46875 159.589844 173.09375 159.667969 172.726562 C 159.746094 172.355469 159.84375 171.992188 159.964844 171.632812 C 160.082031 171.273438 160.21875 170.921875 160.378906 170.578125 C 160.535156 170.234375 160.714844 169.902344 160.910156 169.578125 C 161.105469 169.253906 161.316406 168.941406 161.546875 168.644531 C 161.777344 168.34375 162.023438 168.058594 162.285156 167.785156 C 162.546875 167.511719 162.824219 167.253906 163.113281 167.015625 C 163.40625 166.773438 163.710938 166.546875 164.023438 166.339844 C 164.339844 166.132812 164.667969 165.945312 165.003906 165.773438 C 165.34375 165.601562 165.6875 165.449219 166.042969 165.320312 C 166.394531 165.1875 166.757812 165.074219 167.121094 164.984375 C 167.488281 164.890625 167.859375 164.820312 168.234375 164.769531 C 168.609375 164.71875 168.984375 164.6875 169.363281 164.679688 C 169.742188 164.671875 170.117188 164.683594 170.496094 164.71875 Z M 170.496094 164.71875 " fill-opacity="1" fill-rule="nonzero"/><path fill="#a6a6a6" d="M 229.410156 170.753906 C 230.078125 170.816406 230.734375 170.9375 231.375 171.128906 C 232.019531 171.316406 232.636719 171.566406 233.230469 171.875 C 233.824219 172.1875 234.378906 172.554688 234.902344 172.972656 C 235.421875 173.394531 235.898438 173.859375 236.328125 174.375 C 236.753906 174.890625 237.128906 175.441406 237.449219 176.027344 C 237.769531 176.617188 238.03125 177.230469 238.230469 177.871094 C 238.429688 178.507812 238.5625 179.160156 238.632812 179.828125 C 238.703125 180.492188 238.707031 181.160156 238.648438 181.828125 L 232.933594 244.480469 C 232.925781 244.863281 232.878906 245.238281 232.796875 245.613281 C 232.714844 245.984375 232.597656 246.347656 232.441406 246.695312 C 232.289062 247.046875 232.101562 247.378906 231.882812 247.691406 C 231.664062 248.003906 231.417969 248.292969 231.140625 248.554688 C 230.867188 248.820312 230.566406 249.054688 230.246094 249.257812 C 229.925781 249.464844 229.585938 249.636719 229.230469 249.777344 C 228.875 249.914062 228.507812 250.015625 228.132812 250.082031 C 227.753906 250.148438 227.375 250.179688 226.996094 250.171875 C 226.613281 250.164062 226.234375 250.117188 225.863281 250.035156 C 225.492188 249.953125 225.128906 249.832031 224.78125 249.679688 C 224.429688 249.527344 224.097656 249.339844 223.785156 249.121094 C 223.472656 248.902344 223.183594 248.65625 222.921875 248.378906 C 222.65625 248.105469 222.421875 247.804688 222.214844 247.484375 C 222.011719 247.160156 221.839844 246.820312 221.699219 246.464844 C 221.5625 246.109375 221.460938 245.746094 221.394531 245.367188 C 221.328125 244.992188 221.296875 244.613281 221.304688 244.230469 L 218.339844 181.378906 C 218.308594 180.652344 218.351562 179.929688 218.472656 179.214844 C 218.59375 178.5 218.789062 177.804688 219.058594 177.128906 C 219.324219 176.453125 219.664062 175.816406 220.070312 175.210938 C 220.476562 174.609375 220.941406 174.058594 221.464844 173.554688 C 221.988281 173.050781 222.5625 172.609375 223.179688 172.226562 C 223.796875 171.847656 224.449219 171.535156 225.136719 171.296875 C 225.820312 171.054688 226.523438 170.886719 227.246094 170.796875 C 227.964844 170.707031 228.6875 170.691406 229.410156 170.753906 Z M 229.410156 170.753906 " fill-opacity="1" fill-rule="nonzero"/><g clip-path="url(#9cbd3955c6)"><path fill="#000000" d="M 12.835938 341.820312 L 286.558594 341.820312 L 286.558594 346.800781 L 12.835938 346.800781 Z M 12.835938 341.820312 " fill-opacity="1" fill-rule="nonzero"/></g><path fill="#a6a6a6" d="M 182.886719 121.53125 L 182.886719 116.546875 C 184.347656 116.652344 185.792969 116.558594 187.230469 116.273438 L 188.449219 121.097656 C 186.617188 121.503906 184.761719 121.648438 182.886719 121.53125 Z M 174.582031 121.53125 L 169.597656 121.53125 L 169.597656 116.546875 L 174.582031 116.546875 Z M 196.554688 115.46875 L 192.460938 112.636719 C 193.21875 111.546875 193.710938 110.351562 193.941406 109.046875 L 198.847656 109.878906 C 198.5 111.914062 197.738281 113.777344 196.554688 115.46875 Z M 192.769531 102.828125 C 192.082031 101.691406 191.191406 100.75 190.09375 100.003906 L 192.902344 95.851562 C 194.601562 97.003906 195.984375 98.457031 197.054688 100.210938 Z M 183.632812 98.441406 L 178.648438 98.441406 L 178.648438 93.460938 L 183.632812 93.460938 Z M 170.34375 98.441406 C 168.53125 98.535156 166.726562 98.449219 164.929688 98.183594 L 165.820312 93.277344 C 167.320312 93.480469 168.832031 93.542969 170.34375 93.460938 Z M 156.382812 93.601562 C 155 92.167969 153.921875 90.53125 153.152344 88.691406 L 157.746094 86.773438 C 158.277344 88.019531 159.015625 89.128906 159.964844 90.09375 Z M 157.214844 80.144531 L 152.355469 79.042969 C 152.796875 77.09375 153.582031 75.296875 154.707031 73.652344 L 158.859375 76.457031 C 158.058594 77.566406 157.488281 78.78125 157.148438 80.105469 Z M 164.066406 72.363281 L 162.347656 67.6875 C 164.203125 67.007812 166.117188 66.683594 168.09375 66.714844 L 168.09375 71.699219 C 166.6875 71.644531 165.324219 71.851562 164 72.324219 Z M 216.265625 71.699219 L 216.265625 66.714844 C 217.757812 66.8125 219.246094 66.75 220.722656 66.523438 L 221.738281 71.410156 C 219.902344 71.703125 218.054688 71.785156 216.199219 71.65625 Z M 207.960938 71.699219 L 202.976562 71.699219 L 202.976562 66.714844 L 207.960938 66.714844 Z M 194.671875 71.699219 L 189.6875 71.699219 L 189.6875 66.714844 L 194.671875 66.714844 Z M 181.382812 71.699219 L 176.398438 71.699219 L 176.398438 66.714844 L 181.382812 66.714844 Z M 230.058594 66.078125 L 226.082031 63.070312 C 226.894531 62.023438 227.449219 60.851562 227.742188 59.558594 L 232.609375 60.621094 C 232.160156 62.625 231.308594 64.445312 230.058594 66.078125 Z M 227.917969 51.800781 C 227.917969 51.71875 227.527344 51.75 232.898438 51.75 Z M 227.917969 51.800781 " fill-opacity="1" fill-rule="nonzero"/><path fill="#a6a6a6" d="M 230.367188 48.910156 C 230.367188 48.140625 230.445312 47.378906 230.597656 46.625 C 230.75 45.875 230.972656 45.140625 231.269531 44.433594 C 231.566406 43.722656 231.925781 43.050781 232.355469 42.410156 C 232.78125 41.773438 233.269531 41.183594 233.8125 40.640625 C 234.359375 40.097656 234.949219 39.613281 235.589844 39.1875 C 236.230469 38.757812 236.902344 38.398438 237.613281 38.105469 C 238.324219 37.8125 239.054688 37.589844 239.808594 37.441406 C 240.5625 37.289062 241.324219 37.214844 242.09375 37.214844 L 251.121094 37.214844 C 251.121094 37.988281 251.046875 38.75 250.894531 39.503906 C 250.746094 40.261719 250.523438 40.992188 250.226562 41.707031 C 249.933594 42.417969 249.570312 43.09375 249.144531 43.734375 C 248.714844 44.375 248.230469 44.964844 247.683594 45.511719 C 247.140625 46.054688 246.546875 46.542969 245.90625 46.96875 C 245.265625 47.398438 244.589844 47.757812 243.875 48.054688 C 243.164062 48.347656 242.429688 48.570312 241.675781 48.71875 C 240.917969 48.867188 240.15625 48.945312 239.386719 48.941406 Z M 230.367188 48.910156 " fill-opacity="1" fill-rule="nonzero"/><path fill="#a6a6a6" d="M 230.367188 48.910156 C 230.363281 48.140625 230.289062 47.378906 230.136719 46.625 C 229.984375 45.875 229.761719 45.140625 229.464844 44.433594 C 229.167969 43.722656 228.808594 43.050781 228.378906 42.410156 C 227.949219 41.773438 227.464844 41.183594 226.921875 40.640625 C 226.375 40.097656 225.785156 39.613281 225.144531 39.1875 C 224.503906 38.757812 223.832031 38.398438 223.121094 38.105469 C 222.410156 37.8125 221.675781 37.589844 220.921875 37.441406 C 220.167969 37.289062 219.410156 37.214844 218.640625 37.214844 L 209.613281 37.214844 C 209.613281 37.988281 209.6875 38.75 209.835938 39.503906 C 209.988281 40.261719 210.210938 40.992188 210.503906 41.707031 C 210.800781 42.417969 211.164062 43.09375 211.589844 43.734375 C 212.019531 44.375 212.503906 44.964844 213.050781 45.511719 C 213.59375 46.054688 214.1875 46.542969 214.828125 46.96875 C 215.46875 47.398438 216.144531 47.757812 216.855469 48.054688 C 217.570312 48.347656 218.304688 48.570312 219.058594 48.71875 C 219.8125 48.867188 220.578125 48.945312 221.347656 48.941406 Z M 230.367188 48.910156 " fill-opacity="1" fill-rule="nonzero"/><path fill="#000000" d="M 239.386719 51.402344 L 227.875 51.402344 L 227.875 48.910156 C 227.878906 47.976562 227.972656 47.054688 228.15625 46.140625 C 228.339844 45.226562 228.613281 44.339844 228.972656 43.480469 C 229.332031 42.621094 229.769531 41.804688 230.289062 41.03125 C 230.808594 40.257812 231.398438 39.539062 232.054688 38.882812 C 232.714844 38.222656 233.433594 37.636719 234.207031 37.117188 C 234.984375 36.601562 235.800781 36.164062 236.664062 35.808594 C 237.523438 35.453125 238.410156 35.183594 239.324219 35 C 240.238281 34.816406 241.160156 34.726562 242.09375 34.722656 L 253.613281 34.722656 L 253.613281 37.214844 C 253.609375 38.148438 253.515625 39.070312 253.332031 39.984375 C 253.148438 40.898438 252.875 41.785156 252.515625 42.644531 C 252.15625 43.507812 251.71875 44.324219 251.199219 45.097656 C 250.679688 45.871094 250.089844 46.589844 249.429688 47.246094 C 248.769531 47.90625 248.050781 48.492188 247.277344 49.011719 C 246.5 49.527344 245.679688 49.964844 244.820312 50.320312 C 243.957031 50.675781 243.070312 50.945312 242.15625 51.128906 C 241.242188 51.308594 240.320312 51.402344 239.386719 51.402344 Z M 233.199219 46.417969 L 239.386719 46.417969 C 240.394531 46.421875 241.378906 46.265625 242.335938 45.949219 C 243.296875 45.632812 244.179688 45.171875 244.984375 44.566406 C 245.792969 43.960938 246.484375 43.242188 247.054688 42.410156 C 247.628906 41.578125 248.054688 40.679688 248.332031 39.707031 L 242.136719 39.707031 C 241.125 39.703125 240.144531 39.859375 239.1875 40.175781 C 238.226562 40.492188 237.347656 40.957031 236.539062 41.5625 C 235.734375 42.167969 235.042969 42.886719 234.472656 43.714844 C 233.902344 44.546875 233.476562 45.449219 233.199219 46.417969 Z M 233.199219 46.417969 " fill-opacity="1" fill-rule="nonzero"/><path fill="#000000" d="M 232.859375 51.402344 L 221.347656 51.402344 C 220.414062 51.402344 219.492188 51.308594 218.578125 51.128906 C 217.664062 50.945312 216.777344 50.675781 215.914062 50.320312 C 215.050781 49.964844 214.234375 49.527344 213.457031 49.011719 C 212.683594 48.492188 211.964844 47.90625 211.304688 47.246094 C 210.644531 46.589844 210.054688 45.871094 209.535156 45.097656 C 209.015625 44.324219 208.578125 43.507812 208.21875 42.648438 C 207.859375 41.785156 207.585938 40.898438 207.402344 39.984375 C 207.21875 39.070312 207.125 38.148438 207.121094 37.214844 L 207.121094 34.722656 L 218.640625 34.722656 C 219.574219 34.726562 220.496094 34.816406 221.414062 35 C 222.328125 35.183594 223.214844 35.453125 224.078125 35.8125 C 224.941406 36.167969 225.757812 36.605469 226.535156 37.125 C 227.3125 37.644531 228.027344 38.234375 228.6875 38.894531 C 229.347656 39.554688 229.9375 40.273438 230.457031 41.046875 C 230.976562 41.824219 231.414062 42.640625 231.773438 43.503906 C 232.128906 44.367188 232.398438 45.253906 232.582031 46.171875 C 232.765625 47.085938 232.855469 48.011719 232.859375 48.941406 Z M 212.445312 39.707031 C 212.71875 40.675781 213.140625 41.578125 213.707031 42.410156 C 214.277344 43.242188 214.960938 43.964844 215.765625 44.574219 C 216.566406 45.179688 217.449219 45.648438 218.402344 45.96875 C 219.359375 46.289062 220.339844 46.449219 221.347656 46.453125 L 227.566406 46.453125 C 227.433594 45.96875 227.257812 45.5 227.046875 45.046875 C 226.832031 44.589844 226.585938 44.15625 226.300781 43.742188 C 226.019531 43.328125 225.707031 42.9375 225.359375 42.574219 C 225.011719 42.210938 224.640625 41.878906 224.238281 41.578125 C 223.839844 41.273438 223.417969 41.007812 222.972656 40.773438 C 222.527344 40.539062 222.070312 40.34375 221.59375 40.183594 C 221.117188 40.023438 220.632812 39.90625 220.136719 39.824219 C 219.640625 39.746094 219.140625 39.707031 218.640625 39.707031 Z M 212.445312 39.707031 " fill-opacity="1" fill-rule="nonzero"/><path fill="#a6a6a6" d="M 292.347656 54.773438 C 291.804688 54.226562 291.316406 53.636719 290.886719 52.996094 C 290.457031 52.351562 290.09375 51.675781 289.800781 50.964844 C 289.503906 50.25 289.28125 49.515625 289.128906 48.761719 C 288.980469 48.003906 288.90625 47.238281 288.90625 46.46875 C 288.90625 45.695312 288.980469 44.933594 289.128906 44.175781 C 289.28125 43.417969 289.503906 42.683594 289.800781 41.972656 C 290.09375 41.261719 290.457031 40.582031 290.886719 39.941406 C 291.316406 39.300781 291.804688 38.707031 292.347656 38.164062 L 298.734375 31.777344 C 299.28125 32.320312 299.769531 32.914062 300.195312 33.554688 C 300.625 34.195312 300.988281 34.875 301.28125 35.585938 C 301.578125 36.300781 301.800781 37.035156 301.949219 37.789062 C 302.101562 38.546875 302.175781 39.308594 302.175781 40.082031 C 302.175781 40.851562 302.101562 41.617188 301.949219 42.371094 C 301.800781 43.128906 301.578125 43.863281 301.28125 44.578125 C 300.988281 45.289062 300.625 45.964844 300.195312 46.605469 C 299.769531 47.25 299.28125 47.839844 298.734375 48.386719 Z M 292.347656 54.773438 " fill-opacity="1" fill-rule="nonzero"/><path fill="#a6a6a6" d="M 292.347656 54.773438 C 291.804688 54.226562 291.210938 53.738281 290.570312 53.308594 C 289.929688 52.878906 289.253906 52.519531 288.539062 52.222656 C 287.828125 51.925781 287.09375 51.703125 286.335938 51.550781 C 285.578125 51.402344 284.816406 51.324219 284.042969 51.324219 C 283.273438 51.324219 282.507812 51.402344 281.75 51.550781 C 280.996094 51.703125 280.261719 51.925781 279.546875 52.222656 C 278.835938 52.519531 278.15625 52.878906 277.515625 53.308594 C 276.875 53.738281 276.28125 54.226562 275.738281 54.773438 L 269.359375 61.152344 C 269.90625 61.699219 270.496094 62.1875 271.136719 62.617188 C 271.777344 63.046875 272.457031 63.410156 273.167969 63.707031 C 273.882812 64.003906 274.617188 64.226562 275.371094 64.375 C 276.128906 64.527344 276.894531 64.601562 277.664062 64.601562 C 278.4375 64.601562 279.199219 64.527344 279.957031 64.375 C 280.714844 64.226562 281.449219 64.003906 282.160156 63.707031 C 282.875 63.410156 283.550781 63.046875 284.191406 62.617188 C 284.832031 62.1875 285.425781 61.699219 285.96875 61.152344 Z M 292.347656 54.773438 " fill-opacity="1" fill-rule="nonzero"/><g clip-path="url(#a92806d1eb)"><path fill="#000000" d="M 292.347656 58.292969 L 290.589844 56.535156 C 289.925781 55.875 289.335938 55.15625 288.820312 54.378906 C 288.300781 53.605469 287.863281 52.785156 287.503906 51.921875 C 287.144531 51.058594 286.875 50.171875 286.695312 49.253906 C 286.511719 48.339844 286.421875 47.414062 286.421875 46.480469 C 286.421875 45.546875 286.511719 44.621094 286.695312 43.707031 C 286.875 42.789062 287.144531 41.902344 287.503906 41.039062 C 287.863281 40.175781 288.300781 39.355469 288.820312 38.582031 C 289.335938 37.804688 289.925781 37.085938 290.589844 36.425781 L 298.734375 28.28125 L 300.496094 30.039062 C 301.15625 30.699219 301.746094 31.417969 302.265625 32.195312 C 302.785156 32.972656 303.222656 33.792969 303.582031 34.65625 C 303.9375 35.515625 304.207031 36.40625 304.390625 37.324219 C 304.574219 38.238281 304.664062 39.164062 304.664062 40.097656 C 304.664062 41.03125 304.574219 41.957031 304.390625 42.875 C 304.207031 43.789062 303.9375 44.679688 303.582031 45.542969 C 303.222656 46.40625 302.785156 47.222656 302.265625 48 C 301.746094 48.777344 301.15625 49.496094 300.496094 50.15625 Z M 298.511719 35.554688 L 294.132812 39.933594 C 293.421875 40.644531 292.839844 41.453125 292.390625 42.355469 C 291.945312 43.257812 291.652344 44.207031 291.511719 45.207031 C 291.375 46.207031 291.402344 47.199219 291.589844 48.191406 C 291.777344 49.179688 292.121094 50.117188 292.613281 50.996094 L 296.992188 46.617188 C 297.703125 45.90625 298.285156 45.097656 298.734375 44.195312 C 299.179688 43.292969 299.472656 42.339844 299.609375 41.34375 C 299.746094 40.34375 299.722656 39.347656 299.535156 38.359375 C 299.347656 37.367188 299.003906 36.433594 298.511719 35.554688 Z M 298.511719 35.554688 " fill-opacity="1" fill-rule="nonzero"/></g><path fill="#000000" d="M 267.640625 62.914062 L 265.878906 61.152344 L 274.019531 53.011719 C 274.679688 52.351562 275.398438 51.761719 276.175781 51.242188 C 276.949219 50.722656 277.769531 50.285156 278.632812 49.929688 C 279.496094 49.570312 280.386719 49.300781 281.300781 49.117188 C 282.21875 48.9375 283.144531 48.84375 284.078125 48.84375 C 285.011719 48.84375 285.9375 48.9375 286.851562 49.117188 C 287.769531 49.300781 288.65625 49.570312 289.519531 49.929688 C 290.382812 50.285156 291.203125 50.722656 291.980469 51.242188 C 292.753906 51.761719 293.472656 52.351562 294.132812 53.011719 L 295.894531 54.773438 L 287.746094 62.914062 C 287.089844 63.574219 286.371094 64.164062 285.59375 64.683594 C 284.820312 65.203125 284 65.644531 283.136719 66 C 282.273438 66.359375 281.386719 66.628906 280.46875 66.8125 C 279.554688 66.996094 278.628906 67.085938 277.695312 67.085938 C 276.761719 67.085938 275.835938 66.996094 274.917969 66.8125 C 274.003906 66.628906 273.113281 66.359375 272.25 66 C 271.390625 65.644531 270.570312 65.203125 269.792969 64.683594 C 269.019531 64.164062 268.300781 63.574219 267.640625 62.914062 Z M 273.164062 60.917969 C 273.601562 61.164062 274.054688 61.375 274.523438 61.546875 C 274.996094 61.71875 275.476562 61.851562 275.96875 61.945312 C 276.460938 62.035156 276.957031 62.089844 277.457031 62.101562 C 277.957031 62.117188 278.457031 62.085938 278.953125 62.019531 C 279.449219 61.949219 279.9375 61.84375 280.414062 61.695312 C 280.894531 61.546875 281.355469 61.359375 281.804688 61.136719 C 282.253906 60.914062 282.679688 60.65625 283.085938 60.363281 C 283.492188 60.070312 283.871094 59.746094 284.226562 59.390625 L 288.601562 55.015625 C 287.722656 54.519531 286.789062 54.179688 285.800781 53.992188 C 284.808594 53.804688 283.816406 53.777344 282.816406 53.914062 C 281.816406 54.050781 280.867188 54.34375 279.964844 54.792969 C 279.0625 55.242188 278.253906 55.820312 277.539062 56.535156 Z M 273.164062 60.917969 " fill-opacity="1" fill-rule="nonzero"/><path fill="#a6a6a6" d="M 321.574219 132.460938 L 321.46875 127.476562 C 322.824219 127.453125 324.128906 127.175781 325.378906 126.648438 L 327.347656 131.222656 C 325.503906 132.007812 323.578125 132.421875 321.574219 132.460938 Z M 243.714844 129.96875 L 238.730469 129.96875 L 238.730469 124.984375 L 243.714844 124.984375 Z M 312.28125 129.613281 C 310.648438 128.453125 309.289062 127.035156 308.203125 125.351562 L 312.355469 122.652344 C 313.097656 123.792969 314.019531 124.761719 315.128906 125.550781 Z M 334.628906 124.769531 L 330.328125 122.277344 C 331.011719 121.105469 331.449219 119.851562 331.640625 118.507812 L 336.574219 119.214844 C 336.289062 121.191406 335.640625 123.042969 334.628906 124.769531 Z M 243.714844 116.679688 L 238.730469 116.679688 C 238.617188 114.808594 238.769531 112.960938 239.195312 111.132812 L 244.019531 112.371094 C 243.714844 113.792969 243.613281 115.230469 243.714844 116.679688 Z M 310.71875 116.089844 L 305.738281 116.089844 C 305.828125 114.667969 305.679688 113.269531 305.289062 111.898438 L 310.054688 110.441406 C 310.597656 112.296875 310.820312 114.1875 310.71875 116.117188 Z M 336.730469 110.535156 L 331.75 110.535156 L 331.75 105.550781 L 336.730469 105.550781 Z M 247.609375 106.796875 L 244.46875 102.925781 C 246.023438 101.664062 247.761719 100.742188 249.675781 100.152344 L 251.136719 104.910156 C 249.839844 105.3125 248.664062 105.941406 247.609375 106.796875 Z M 301.46875 106.507812 C 300.378906 105.695312 299.179688 105.125 297.863281 104.789062 L 299.109375 99.960938 C 301.050781 100.457031 302.824219 101.304688 304.433594 102.503906 Z M 290.214844 104.488281 L 285.230469 104.488281 L 285.230469 99.503906 L 290.214844 99.503906 Z M 276.925781 104.488281 L 271.941406 104.488281 L 271.941406 99.503906 L 276.925781 99.503906 Z M 263.636719 104.488281 L 258.65625 104.488281 L 258.65625 99.503906 L 263.636719 99.503906 Z M 336.722656 97.28125 L 331.742188 97.28125 L 331.742188 92.296875 L 336.722656 92.296875 Z M 336.722656 83.992188 L 331.742188 83.992188 L 331.742188 79.007812 L 336.722656 79.007812 Z M 331.242188 71.535156 C 330.828125 70.242188 330.191406 69.074219 329.324219 68.027344 L 333.152344 64.847656 C 334.4375 66.386719 335.382812 68.113281 335.992188 70.023438 Z M 323.765625 64.523438 C 322.324219 64.226562 320.867188 64.128906 319.398438 64.226562 L 319.398438 59.242188 C 321.269531 59.132812 323.117188 59.28125 324.945312 59.683594 Z M 311.09375 64.226562 L 306.109375 64.226562 L 306.109375 59.242188 L 311.09375 59.242188 Z M 311.09375 64.226562 " fill-opacity="1" fill-rule="nonzero"/><path fill="#000000" d="M 63.78125 269.5625 C 63.472656 269.5625 63.160156 269.542969 62.855469 269.507812 C 62.546875 269.46875 62.242188 269.410156 61.941406 269.335938 C 61.640625 269.261719 61.34375 269.167969 61.054688 269.058594 C 60.765625 268.945312 60.484375 268.816406 60.210938 268.671875 C 59.9375 268.523438 59.675781 268.363281 59.421875 268.183594 C 59.167969 268.007812 58.925781 267.8125 58.695312 267.605469 C 58.464844 267.398438 58.25 267.175781 58.046875 266.941406 C 57.84375 266.707031 57.65625 266.460938 57.484375 266.203125 C 57.308594 265.945312 57.152344 265.679688 57.011719 265.402344 C 56.875 265.125 56.75 264.84375 56.644531 264.550781 C 56.539062 264.257812 56.453125 263.960938 56.386719 263.660156 C 56.316406 263.359375 56.265625 263.050781 56.234375 262.742188 C 56.203125 262.433594 56.191406 262.125 56.199219 261.816406 C 56.207031 261.507812 56.230469 261.199219 56.277344 260.890625 C 56.320312 260.585938 56.382812 260.28125 56.464844 259.980469 C 56.546875 259.683594 56.644531 259.390625 56.765625 259.101562 C 56.882812 258.816406 57.015625 258.539062 57.167969 258.265625 C 57.320312 257.996094 57.488281 257.738281 57.671875 257.488281 C 57.855469 257.238281 58.054688 257 58.265625 256.773438 C 58.480469 256.550781 58.703125 256.335938 58.945312 256.140625 C 59.183594 255.941406 59.433594 255.757812 59.695312 255.59375 C 59.953125 255.425781 60.226562 255.273438 60.503906 255.140625 C 60.785156 255.007812 61.070312 254.890625 61.367188 254.792969 C 61.660156 254.695312 61.957031 254.613281 62.261719 254.550781 C 62.566406 254.488281 62.871094 254.445312 63.179688 254.421875 C 63.488281 254.398438 63.800781 254.390625 64.109375 254.40625 C 64.417969 254.417969 64.726562 254.449219 65.03125 254.5 C 65.339844 254.554688 65.640625 254.621094 65.9375 254.710938 C 66.234375 254.800781 66.523438 254.90625 66.808594 255.027344 C 67.09375 255.152344 67.367188 255.292969 67.636719 255.453125 C 67.902344 255.609375 68.160156 255.78125 68.40625 255.972656 C 68.652344 256.160156 68.882812 256.363281 69.105469 256.582031 C 69.640625 257.109375 70.089844 257.703125 70.449219 258.363281 C 70.8125 259.027344 71.066406 259.726562 71.21875 260.460938 C 71.371094 261.199219 71.410156 261.945312 71.339844 262.691406 C 71.269531 263.441406 71.09375 264.167969 70.808594 264.863281 C 70.523438 265.558594 70.140625 266.199219 69.664062 266.78125 C 69.1875 267.363281 68.636719 267.867188 68.011719 268.285156 C 67.386719 268.703125 66.710938 269.019531 65.992188 269.238281 C 65.269531 269.457031 64.535156 269.566406 63.78125 269.5625 Z M 63.78125 259.390625 C 63.433594 259.390625 63.101562 259.457031 62.785156 259.585938 C 62.464844 259.71875 62.183594 259.910156 61.941406 260.152344 C 61.695312 260.398438 61.507812 260.679688 61.375 261 C 61.246094 261.320312 61.179688 261.652344 61.179688 261.996094 C 61.183594 262.34375 61.25 262.675781 61.382812 262.992188 C 61.515625 263.3125 61.707031 263.59375 61.953125 263.835938 C 62.195312 264.078125 62.480469 264.265625 62.800781 264.394531 C 63.121094 264.527344 63.453125 264.589844 63.796875 264.589844 C 64.144531 264.585938 64.476562 264.519531 64.792969 264.382812 C 65.109375 264.25 65.390625 264.058594 65.632812 263.8125 C 65.875 263.566406 66.0625 263.28125 66.191406 262.960938 C 66.320312 262.640625 66.382812 262.308594 66.378906 261.964844 C 66.378906 261.621094 66.308594 261.292969 66.175781 260.976562 C 66.042969 260.660156 65.855469 260.378906 65.613281 260.140625 C 65.367188 259.898438 65.089844 259.710938 64.769531 259.582031 C 64.453125 259.453125 64.125 259.386719 63.78125 259.390625 Z M 63.78125 259.390625 " fill-opacity="1" fill-rule="nonzero"/><path fill="#000000" d="M 37.421875 308.945312 C 36.742188 308.945312 36.070312 308.878906 35.40625 308.746094 C 34.742188 308.613281 34.097656 308.417969 33.472656 308.160156 C 32.84375 307.898438 32.25 307.582031 31.6875 307.207031 C 31.121094 306.828125 30.601562 306.402344 30.121094 305.921875 C 29.640625 305.445312 29.214844 304.921875 28.835938 304.359375 C 28.460938 303.796875 28.140625 303.203125 27.882812 302.578125 C 27.621094 301.949219 27.425781 301.304688 27.289062 300.640625 C 27.15625 299.976562 27.089844 299.304688 27.089844 298.628906 C 27.085938 297.949219 27.152344 297.28125 27.28125 296.613281 C 27.414062 295.949219 27.605469 295.304688 27.863281 294.675781 C 28.121094 294.050781 28.4375 293.453125 28.8125 292.890625 C 29.1875 292.324219 29.613281 291.800781 30.089844 291.320312 C 30.570312 290.839844 31.089844 290.410156 31.648438 290.03125 C 32.210938 289.652344 32.804688 289.332031 33.429688 289.070312 C 34.054688 288.808594 34.699219 288.609375 35.363281 288.476562 C 36.027344 288.339844 36.699219 288.269531 37.375 288.265625 C 38.054688 288.261719 38.726562 288.324219 39.390625 288.453125 C 40.054688 288.582031 40.703125 288.773438 41.328125 289.03125 C 41.957031 289.285156 42.554688 289.601562 43.121094 289.972656 C 43.6875 290.347656 44.210938 290.769531 44.691406 291.246094 C 45.175781 291.722656 45.605469 292.242188 45.984375 292.800781 C 46.367188 293.363281 46.6875 293.957031 46.953125 294.578125 C 47.214844 295.203125 47.417969 295.847656 47.554688 296.511719 C 47.691406 297.175781 47.761719 297.847656 47.769531 298.523438 C 47.773438 299.207031 47.710938 299.882812 47.582031 300.550781 C 47.453125 301.222656 47.257812 301.875 47 302.503906 C 46.742188 303.136719 46.425781 303.738281 46.046875 304.304688 C 45.671875 304.875 45.242188 305.402344 44.761719 305.886719 C 44.28125 306.371094 43.757812 306.804688 43.191406 307.183594 C 42.625 307.566406 42.027344 307.886719 41.394531 308.148438 C 40.765625 308.410156 40.117188 308.609375 39.449219 308.746094 C 38.777344 308.878906 38.101562 308.945312 37.421875 308.945312 Z M 37.421875 293.25 C 37.066406 293.25 36.71875 293.285156 36.375 293.355469 C 36.027344 293.421875 35.691406 293.527344 35.367188 293.660156 C 35.042969 293.796875 34.734375 293.964844 34.441406 294.160156 C 34.148438 294.355469 33.878906 294.578125 33.628906 294.828125 C 33.382812 295.078125 33.160156 295.351562 32.964844 295.644531 C 32.769531 295.9375 32.605469 296.246094 32.472656 296.570312 C 32.339844 296.898438 32.238281 297.234375 32.171875 297.578125 C 32.101562 297.925781 32.070312 298.273438 32.070312 298.625 C 32.074219 298.976562 32.109375 299.328125 32.179688 299.671875 C 32.25 300.015625 32.351562 300.351562 32.488281 300.675781 C 32.625 301 32.789062 301.308594 32.988281 301.601562 C 33.183594 301.894531 33.40625 302.164062 33.660156 302.410156 C 33.910156 302.660156 34.179688 302.882812 34.472656 303.074219 C 34.769531 303.269531 35.078125 303.433594 35.402344 303.566406 C 35.730469 303.699219 36.066406 303.800781 36.410156 303.867188 C 36.757812 303.933594 37.105469 303.964844 37.460938 303.964844 C 37.8125 303.960938 38.160156 303.925781 38.503906 303.855469 C 38.851562 303.785156 39.183594 303.679688 39.507812 303.542969 C 39.832031 303.40625 40.140625 303.238281 40.433594 303.042969 C 40.726562 302.84375 40.996094 302.621094 41.242188 302.367188 C 41.488281 302.117188 41.710938 301.84375 41.902344 301.550781 C 42.097656 301.257812 42.261719 300.945312 42.390625 300.621094 C 42.523438 300.292969 42.625 299.957031 42.691406 299.613281 C 42.757812 299.265625 42.789062 298.917969 42.785156 298.566406 C 42.78125 298.214844 42.746094 297.867188 42.671875 297.523438 C 42.601562 297.183594 42.5 296.847656 42.363281 296.527344 C 42.226562 296.203125 42.058594 295.898438 41.863281 295.609375 C 41.667969 295.316406 41.445312 295.050781 41.195312 294.804688 C 40.949219 294.558594 40.675781 294.335938 40.386719 294.144531 C 40.09375 293.949219 39.785156 293.785156 39.460938 293.652344 C 39.136719 293.519531 38.804688 293.417969 38.460938 293.351562 C 38.117188 293.285156 37.769531 293.25 37.421875 293.25 Z M 37.421875 293.25 " fill-opacity="1" fill-rule="nonzero"/><path fill="#f5f5f5" d="M 370.417969 252.414062 C 370.417969 254.007812 370.339844 255.601562 370.183594 257.191406 C 370.027344 258.777344 369.792969 260.355469 369.480469 261.921875 C 369.171875 263.484375 368.78125 265.03125 368.320312 266.558594 C 367.855469 268.085938 367.320312 269.589844 366.707031 271.0625 C 366.097656 272.539062 365.414062 273.980469 364.664062 275.386719 C 363.910156 276.792969 363.089844 278.160156 362.203125 279.488281 C 361.316406 280.816406 360.367188 282.097656 359.355469 283.328125 C 358.34375 284.5625 357.273438 285.746094 356.144531 286.875 C 355.015625 288.003906 353.832031 289.074219 352.601562 290.085938 C 351.367188 291.097656 350.085938 292.046875 348.757812 292.933594 C 347.429688 293.820312 346.0625 294.640625 344.65625 295.394531 C 343.25 296.144531 341.808594 296.828125 340.332031 297.4375 C 338.859375 298.046875 337.355469 298.585938 335.828125 299.050781 C 334.300781 299.511719 332.757812 299.898438 331.191406 300.210938 C 329.625 300.523438 328.046875 300.757812 326.460938 300.914062 C 324.871094 301.070312 323.277344 301.148438 321.683594 301.148438 C 320.085938 301.148438 318.496094 301.070312 316.90625 300.914062 C 315.316406 300.757812 313.742188 300.523438 312.175781 300.210938 C 310.609375 299.898438 309.0625 299.511719 307.535156 299.050781 C 306.007812 298.585938 304.507812 298.046875 303.03125 297.4375 C 301.558594 296.828125 300.117188 296.144531 298.710938 295.394531 C 297.300781 294.640625 295.933594 293.820312 294.605469 292.933594 C 293.28125 292.046875 292 291.097656 290.765625 290.085938 C 289.53125 289.074219 288.351562 288.003906 287.222656 286.875 C 286.09375 285.746094 285.023438 284.5625 284.011719 283.328125 C 282.996094 282.097656 282.046875 280.816406 281.160156 279.488281 C 280.273438 278.160156 279.453125 276.792969 278.703125 275.386719 C 277.949219 273.980469 277.269531 272.539062 276.65625 271.0625 C 276.046875 269.589844 275.507812 268.085938 275.046875 266.558594 C 274.582031 265.03125 274.195312 263.484375 273.882812 261.921875 C 273.574219 260.355469 273.339844 258.777344 273.183594 257.191406 C 273.027344 255.601562 272.949219 254.007812 272.949219 252.414062 C 272.949219 250.816406 273.027344 249.222656 273.183594 247.636719 C 273.339844 246.046875 273.574219 244.46875 273.882812 242.90625 C 274.195312 241.339844 274.582031 239.792969 275.046875 238.265625 C 275.507812 236.738281 276.046875 235.238281 276.65625 233.761719 C 277.269531 232.289062 277.949219 230.847656 278.703125 229.4375 C 279.453125 228.03125 280.273438 226.664062 281.160156 225.335938 C 282.046875 224.011719 282.996094 222.730469 284.011719 221.496094 C 285.023438 220.261719 286.09375 219.082031 287.222656 217.953125 C 288.351562 216.824219 289.53125 215.753906 290.765625 214.738281 C 292 213.726562 293.28125 212.777344 294.605469 211.890625 C 295.933594 211.003906 297.300781 210.183594 298.710938 209.433594 C 300.117188 208.679688 301.558594 208 303.03125 207.386719 C 304.507812 206.777344 306.007812 206.238281 307.535156 205.777344 C 309.0625 205.3125 310.609375 204.925781 312.175781 204.613281 C 313.742188 204.304688 315.316406 204.070312 316.90625 203.914062 C 318.496094 203.757812 320.085938 203.675781 321.683594 203.675781 C 323.277344 203.675781 324.871094 203.757812 326.460938 203.914062 C 328.046875 204.070312 329.625 204.304688 331.191406 204.613281 C 332.757812 204.925781 334.300781 205.3125 335.828125 205.777344 C 337.355469 206.238281 338.859375 206.777344 340.332031 207.386719 C 341.808594 208 343.25 208.679688 344.65625 209.433594 C 346.0625 210.183594 347.429688 211.003906 348.757812 211.890625 C 350.085938 212.777344 351.367188 213.726562 352.601562 214.738281 C 353.832031 215.753906 355.015625 216.824219 356.144531 217.953125 C 357.273438 219.082031 358.34375 220.261719 359.355469 221.496094 C 360.367188 222.730469 361.316406 224.011719 362.203125 225.335938 C 363.089844 226.664062 363.910156 228.03125 364.664062 229.4375 C 365.414062 230.847656 366.097656 232.289062 366.707031 233.761719 C 367.320312 235.238281 367.855469 236.738281 368.320312 238.265625 C 368.78125 239.792969 369.171875 241.339844 369.480469 242.90625 C 369.792969 244.46875 370.027344 246.046875 370.183594 247.636719 C 370.339844 249.222656 370.417969 250.816406 370.417969 252.414062 Z M 370.417969 252.414062 " fill-opacity="1" fill-rule="nonzero"/><g clip-path="url(#6dd283f9b2)"><path fill="#000000" d="M 321.683594 303.648438 C 320.003906 303.648438 318.332031 303.566406 316.660156 303.402344 C 314.992188 303.238281 313.332031 302.992188 311.6875 302.664062 C 310.039062 302.335938 308.414062 301.929688 306.808594 301.445312 C 305.203125 300.957031 303.625 300.390625 302.074219 299.75 C 300.523438 299.109375 299.007812 298.390625 297.527344 297.601562 C 296.046875 296.808594 294.609375 295.949219 293.214844 295.015625 C 291.820312 294.085938 290.472656 293.085938 289.175781 292.023438 C 287.878906 290.957031 286.636719 289.832031 285.449219 288.644531 C 284.261719 287.457031 283.136719 286.21875 282.074219 284.917969 C 281.007812 283.621094 280.007812 282.277344 279.078125 280.882812 C 278.144531 279.484375 277.28125 278.046875 276.492188 276.570312 C 275.699219 275.089844 274.984375 273.574219 274.339844 272.023438 C 273.699219 270.472656 273.132812 268.894531 272.648438 267.289062 C 272.160156 265.683594 271.753906 264.058594 271.425781 262.410156 C 271.097656 260.765625 270.851562 259.109375 270.6875 257.4375 C 270.523438 255.769531 270.441406 254.09375 270.441406 252.414062 C 270.441406 250.738281 270.523438 249.0625 270.6875 247.394531 C 270.851562 245.722656 271.097656 244.066406 271.421875 242.417969 C 271.75 240.773438 272.15625 239.148438 272.644531 237.542969 C 273.132812 235.9375 273.695312 234.359375 274.339844 232.808594 C 274.980469 231.257812 275.699219 229.742188 276.488281 228.261719 C 277.28125 226.78125 278.140625 225.34375 279.074219 223.949219 C 280.007812 222.554688 281.003906 221.207031 282.070312 219.910156 C 283.132812 218.613281 284.257812 217.371094 285.445312 216.183594 C 286.632812 214.996094 287.875 213.871094 289.171875 212.808594 C 290.46875 211.742188 291.816406 210.746094 293.210938 209.8125 C 294.605469 208.878906 296.042969 208.019531 297.523438 207.226562 C 299.003906 206.4375 300.519531 205.71875 302.070312 205.078125 C 303.621094 204.433594 305.199219 203.871094 306.804688 203.382812 C 308.410156 202.894531 310.035156 202.488281 311.679688 202.160156 C 313.328125 201.835938 314.984375 201.589844 316.65625 201.425781 C 318.324219 201.261719 320 201.179688 321.675781 201.179688 C 323.355469 201.179688 325.03125 201.261719 326.699219 201.425781 C 328.371094 201.589844 330.027344 201.835938 331.671875 202.164062 C 333.320312 202.492188 334.945312 202.898438 336.550781 203.386719 C 338.15625 203.871094 339.734375 204.4375 341.285156 205.078125 C 342.835938 205.722656 344.351562 206.4375 345.832031 207.230469 C 347.308594 208.019531 348.746094 208.882812 350.144531 209.816406 C 351.539062 210.746094 352.882812 211.746094 354.179688 212.8125 C 355.480469 213.875 356.71875 215 357.90625 216.1875 C 359.09375 217.375 360.21875 218.617188 361.285156 219.914062 C 362.347656 221.210938 363.347656 222.558594 364.277344 223.953125 C 365.210938 225.347656 366.070312 226.785156 366.863281 228.265625 C 367.652344 229.746094 368.371094 231.261719 369.011719 232.8125 C 369.652344 234.363281 370.21875 235.941406 370.707031 237.546875 C 371.191406 239.152344 371.597656 240.777344 371.925781 242.425781 C 372.253906 244.070312 372.5 245.730469 372.664062 247.398438 C 372.828125 249.070312 372.910156 250.742188 372.910156 252.421875 C 372.90625 254.097656 372.824219 255.769531 372.65625 257.441406 C 372.492188 259.109375 372.246094 260.765625 371.914062 262.410156 C 371.585938 264.054688 371.179688 265.679688 370.691406 267.285156 C 370.203125 268.890625 369.636719 270.464844 368.996094 272.015625 C 368.351562 273.566406 367.636719 275.078125 366.84375 276.558594 C 366.050781 278.035156 365.191406 279.472656 364.257812 280.867188 C 363.328125 282.261719 362.328125 283.605469 361.265625 284.902344 C 360.199219 286.199219 359.074219 287.441406 357.886719 288.625 C 356.703125 289.8125 355.460938 290.9375 354.164062 292.003906 C 352.867188 293.066406 351.523438 294.0625 350.128906 294.996094 C 348.734375 295.929688 347.296875 296.789062 345.820312 297.582031 C 344.339844 298.375 342.828125 299.089844 341.277344 299.734375 C 339.726562 300.375 338.152344 300.941406 336.546875 301.429688 C 334.941406 301.917969 333.316406 302.324219 331.671875 302.652344 C 330.027344 302.980469 328.371094 303.230469 326.703125 303.394531 C 325.03125 303.5625 323.359375 303.644531 321.683594 303.648438 Z M 321.683594 206.167969 C 320.167969 206.167969 318.65625 206.242188 317.148438 206.390625 C 315.640625 206.539062 314.144531 206.761719 312.660156 207.054688 C 311.171875 207.351562 309.707031 207.71875 308.253906 208.160156 C 306.804688 208.597656 305.382812 209.109375 303.980469 209.6875 C 302.582031 210.265625 301.214844 210.914062 299.878906 211.628906 C 298.542969 212.339844 297.242188 213.117188 295.984375 213.960938 C 294.726562 214.800781 293.507812 215.703125 292.339844 216.664062 C 291.167969 217.625 290.046875 218.640625 288.972656 219.710938 C 287.902344 220.78125 286.886719 221.902344 285.925781 223.074219 C 284.964844 224.246094 284.0625 225.460938 283.222656 226.71875 C 282.378906 227.980469 281.601562 229.277344 280.886719 230.613281 C 280.171875 231.949219 279.527344 233.316406 278.945312 234.714844 C 278.367188 236.113281 277.855469 237.539062 277.417969 238.988281 C 276.976562 240.4375 276.609375 241.90625 276.3125 243.390625 C 276.015625 244.878906 275.792969 246.375 275.644531 247.882812 C 275.496094 249.390625 275.421875 250.902344 275.421875 252.414062 C 275.421875 253.929688 275.496094 255.441406 275.644531 256.949219 C 275.792969 258.457031 276.015625 259.953125 276.308594 261.4375 C 276.605469 262.925781 276.972656 264.394531 277.414062 265.84375 C 277.851562 267.292969 278.363281 268.714844 278.941406 270.117188 C 279.519531 271.515625 280.167969 272.882812 280.882812 274.21875 C 281.597656 275.554688 282.375 276.855469 283.214844 278.113281 C 284.054688 279.375 284.957031 280.589844 285.917969 281.757812 C 286.878906 282.929688 287.894531 284.050781 288.964844 285.125 C 290.039062 286.195312 291.160156 287.210938 292.328125 288.171875 C 293.5 289.132812 294.714844 290.035156 295.976562 290.875 C 297.234375 291.71875 298.53125 292.496094 299.867188 293.210938 C 301.203125 293.925781 302.570312 294.570312 303.972656 295.152344 C 305.371094 295.730469 306.796875 296.242188 308.246094 296.679688 C 309.695312 297.121094 311.164062 297.488281 312.648438 297.785156 C 314.132812 298.078125 315.628906 298.300781 317.136719 298.449219 C 318.644531 298.597656 320.15625 298.671875 321.671875 298.671875 C 323.1875 298.671875 324.699219 298.597656 326.207031 298.449219 C 327.714844 298.300781 329.210938 298.078125 330.695312 297.785156 C 332.179688 297.488281 333.648438 297.121094 335.097656 296.683594 C 336.546875 296.242188 337.972656 295.734375 339.371094 295.152344 C 340.773438 294.574219 342.140625 293.925781 343.476562 293.210938 C 344.8125 292.5 346.109375 291.71875 347.371094 290.878906 C 348.628906 290.039062 349.84375 289.136719 351.015625 288.175781 C 352.1875 287.214844 353.308594 286.199219 354.378906 285.128906 C 355.449219 284.054688 356.464844 282.933594 357.425781 281.765625 C 358.386719 280.59375 359.289062 279.378906 360.132812 278.117188 C 360.972656 276.859375 361.75 275.5625 362.464844 274.226562 C 363.179688 272.890625 363.824219 271.519531 364.40625 270.121094 C 364.984375 268.722656 365.496094 267.296875 365.933594 265.847656 C 366.375 264.398438 366.742188 262.929688 367.039062 261.445312 C 367.332031 259.957031 367.554688 258.460938 367.703125 256.953125 C 367.851562 255.445312 367.925781 253.9375 367.925781 252.421875 C 367.925781 250.90625 367.847656 249.394531 367.699219 247.890625 C 367.550781 246.382812 367.324219 244.886719 367.03125 243.402344 C 366.734375 241.917969 366.363281 240.449219 365.925781 239 C 365.484375 237.554688 364.972656 236.128906 364.394531 234.730469 C 363.8125 233.332031 363.164062 231.964844 362.453125 230.628906 C 361.738281 229.296875 360.960938 228 360.117188 226.738281 C 359.277344 225.480469 358.375 224.265625 357.414062 223.09375 C 356.453125 221.925781 355.4375 220.804688 354.367188 219.734375 C 353.296875 218.664062 352.175781 217.648438 351.007812 216.6875 C 349.835938 215.726562 348.621094 214.824219 347.363281 213.980469 C 346.105469 213.140625 344.808594 212.363281 343.472656 211.648438 C 342.136719 210.933594 340.769531 210.285156 339.371094 209.707031 C 337.972656 209.125 336.550781 208.613281 335.101562 208.175781 C 333.652344 207.734375 332.1875 207.363281 330.703125 207.066406 C 329.214844 206.769531 327.722656 206.546875 326.214844 206.398438 C 324.707031 206.246094 323.195312 206.171875 321.683594 206.167969 Z M 321.683594 206.167969 " fill-opacity="1" fill-rule="nonzero"/></g><path fill="#ff3131" d="M 295.554688 264.988281 L 334.316406 226.226562 L 347.441406 239.355469 L 308.679688 278.113281 Z M 295.554688 264.988281 " fill-opacity="1" fill-rule="nonzero"/><path fill="#ff3131" d="M 295.5625 239.355469 L 308.6875 226.226562 L 347.445312 264.988281 L 334.320312 278.113281 Z M 295.5625 239.355469 " fill-opacity="1" fill-rule="nonzero"/><path fill="#f5f5f5" d="M 94.203125 329.367188 C 94.203125 329.722656 94.167969 330.070312 94.097656 330.417969 C 94.03125 330.765625 93.929688 331.101562 93.792969 331.429688 C 93.65625 331.753906 93.492188 332.066406 93.296875 332.359375 C 93.097656 332.652344 92.875 332.925781 92.625 333.175781 C 92.375 333.425781 92.105469 333.648438 91.8125 333.84375 C 91.515625 334.039062 91.207031 334.207031 90.878906 334.339844 C 90.554688 334.476562 90.21875 334.578125 89.871094 334.648438 C 89.523438 334.714844 89.175781 334.75 88.820312 334.75 C 88.46875 334.75 88.117188 334.714844 87.769531 334.648438 C 87.425781 334.578125 87.089844 334.476562 86.761719 334.339844 C 86.433594 334.207031 86.125 334.039062 85.832031 333.84375 C 85.539062 333.648438 85.265625 333.425781 85.015625 333.175781 C 84.765625 332.925781 84.542969 332.652344 84.347656 332.359375 C 84.148438 332.066406 83.984375 331.753906 83.847656 331.429688 C 83.714844 331.101562 83.613281 330.765625 83.542969 330.417969 C 83.472656 330.070312 83.4375 329.722656 83.4375 329.367188 C 83.4375 329.015625 83.472656 328.664062 83.542969 328.320312 C 83.613281 327.972656 83.714844 327.636719 83.847656 327.308594 C 83.984375 326.984375 84.148438 326.671875 84.347656 326.378906 C 84.542969 326.085938 84.765625 325.8125 85.015625 325.5625 C 85.265625 325.3125 85.539062 325.089844 85.832031 324.894531 C 86.125 324.699219 86.433594 324.53125 86.761719 324.398438 C 87.089844 324.261719 87.425781 324.160156 87.769531 324.089844 C 88.117188 324.023438 88.46875 323.988281 88.820312 323.988281 C 89.175781 323.988281 89.523438 324.023438 89.871094 324.089844 C 90.21875 324.160156 90.554688 324.261719 90.878906 324.398438 C 91.207031 324.53125 91.515625 324.699219 91.8125 324.894531 C 92.105469 325.089844 92.375 325.3125 92.625 325.5625 C 92.875 325.8125 93.097656 326.085938 93.296875 326.378906 C 93.492188 326.671875 93.65625 326.984375 93.792969 327.308594 C 93.929688 327.636719 94.03125 327.972656 94.097656 328.320312 C 94.167969 328.664062 94.203125 329.015625 94.203125 329.367188 Z M 94.203125 329.367188 " fill-opacity="1" fill-rule="nonzero"/><path fill="#f5f5f5" d="M 241.230469 329.367188 C 241.230469 329.722656 241.195312 330.070312 241.125 330.417969 C 241.058594 330.765625 240.957031 331.101562 240.820312 331.429688 C 240.683594 331.753906 240.519531 332.066406 240.324219 332.359375 C 240.125 332.652344 239.902344 332.925781 239.652344 333.175781 C 239.402344 333.425781 239.132812 333.648438 238.839844 333.84375 C 238.542969 334.039062 238.234375 334.207031 237.90625 334.339844 C 237.582031 334.476562 237.246094 334.578125 236.898438 334.648438 C 236.550781 334.714844 236.203125 334.75 235.847656 334.75 C 235.496094 334.75 235.144531 334.714844 234.796875 334.648438 C 234.453125 334.578125 234.117188 334.476562 233.789062 334.339844 C 233.460938 334.207031 233.152344 334.039062 232.859375 333.84375 C 232.566406 333.648438 232.292969 333.425781 232.042969 333.175781 C 231.792969 332.925781 231.570312 332.652344 231.375 332.359375 C 231.175781 332.066406 231.011719 331.753906 230.875 331.429688 C 230.742188 331.101562 230.640625 330.765625 230.570312 330.417969 C 230.5 330.070312 230.464844 329.722656 230.464844 329.367188 C 230.464844 329.015625 230.5 328.664062 230.570312 328.320312 C 230.640625 327.972656 230.742188 327.636719 230.875 327.308594 C 231.011719 326.984375 231.175781 326.671875 231.375 326.378906 C 231.570312 326.085938 231.792969 325.8125 232.042969 325.5625 C 232.292969 325.3125 232.566406 325.089844 232.859375 324.894531 C 233.152344 324.699219 233.460938 324.53125 233.789062 324.398438 C 234.117188 324.261719 234.453125 324.160156 234.796875 324.089844 C 235.144531 324.023438 235.496094 323.988281 235.847656 323.988281 C 236.203125 323.988281 236.550781 324.023438 236.898438 324.089844 C 237.246094 324.160156 237.582031 324.261719 237.90625 324.398438 C 238.234375 324.53125 238.542969 324.699219 238.839844 324.894531 C 239.132812 325.089844 239.402344 325.3125 239.652344 325.5625 C 239.902344 325.8125 240.125 326.085938 240.324219 326.378906 C 240.519531 326.671875 240.683594 326.984375 240.820312 327.308594 C 240.957031 327.636719 241.058594 327.972656 241.125 328.320312 C 241.195312 328.664062 241.230469 329.015625 241.230469 329.367188 Z M 241.230469 329.367188 " fill-opacity="1" fill-rule="nonzero"/><g fill="#000000" fill-opacity="1"><g transform="translate(70.985633, 104.633139)"><g><path d="M 2.28125 -2.796875 C 2.28125 -3.890625 2.570312 -4.710938 3.15625 -5.265625 C 3.75 -5.828125 4.601562 -6.109375 5.71875 -6.109375 C 6.800781 -6.109375 7.640625 -5.820312 8.234375 -5.25 C 8.828125 -4.675781 9.125 -3.859375 9.125 -2.796875 C 9.125 -1.765625 8.820312 -0.953125 8.21875 -0.359375 C 7.625 0.234375 6.789062 0.53125 5.71875 0.53125 C 4.625 0.53125 3.773438 0.238281 3.171875 -0.34375 C 2.578125 -0.925781 2.28125 -1.742188 2.28125 -2.796875 Z M 2.28125 -2.796875 "/></g></g></g></svg>