<svg xmlns="http://www.w3.org/2000/svg" xmlns:xlink="http://www.w3.org/1999/xlink" width="300" zoomAndPan="magnify" viewBox="0 0 224.87999 225" height="300" preserveAspectRatio="xMidYMid meet" version="1.0"><defs><g/><clipPath id="166b7d0459"><path d="M 0 0.0585938 L 224.761719 0.0585938 L 224.761719 224.9375 L 0 224.9375 Z M 0 0.0585938 " clip-rule="nonzero"/></clipPath></defs><g clip-path="url(#166b7d0459)"><path fill="#ffffff" d="M 0 0.0585938 L 224.878906 0.0585938 L 224.878906 224.941406 L 0 224.941406 Z M 0 0.0585938 " fill-opacity="1" fill-rule="nonzero"/><path fill="#000000" d="M 0 0.0585938 L 224.878906 0.0585938 L 224.878906 224.941406 L 0 224.941406 Z M 0 0.0585938 " fill-opacity="1" fill-rule="nonzero"/></g><g fill="#ffffff" fill-opacity="1"><g transform="translate(1.84902, 141.354213)"><g><path d="M 3.96875 0 L 3.96875 -42.203125 L 20.609375 -42.203125 L 20.609375 0 Z M 3.96875 -48.15625 L 3.96875 -63.21875 L 20.109375 -63.21875 L 20.109375 -48.15625 Z M 3.96875 -48.15625 "/></g></g></g><g fill="#ffffff" fill-opacity="1"><g transform="translate(26.421946, 141.354213)"><g><path d="M 77.78125 -7.53125 C 77.78125 -9.25 77.203125 -10.6875 76.046875 -11.84375 C 74.890625 -13 73.519531 -13.578125 71.9375 -13.578125 L 26.359375 -13.578125 C 21.867188 -13.578125 17.9375 -14.5 14.5625 -16.34375 C 11.195312 -18.195312 8.585938 -20.722656 6.734375 -23.921875 C 4.890625 -27.128906 3.96875 -30.710938 3.96875 -34.671875 L 3.96875 -42.203125 L 20.515625 -42.203125 L 20.515625 -34.671875 C 20.515625 -32.953125 21.09375 -31.515625 22.25 -30.359375 C 23.40625 -29.210938 24.773438 -28.640625 26.359375 -28.640625 L 71.9375 -28.640625 C 76.425781 -28.640625 80.351562 -27.710938 83.71875 -25.859375 C 87.09375 -24.003906 89.703125 -21.492188 91.546875 -18.328125 C 93.398438 -15.160156 94.328125 -11.5625 94.328125 -7.53125 L 94.328125 0 L 77.78125 0 Z M 77.78125 -7.53125 "/></g></g></g><g fill="#ffffff" fill-opacity="1"><g transform="translate(124.713631, 141.354213)"><g><path d="M 3.96875 0 L 3.96875 -69.25 L 20.515625 -69.25 L 20.515625 -42.203125 L 71.9375 -42.203125 C 76.425781 -42.203125 80.351562 -41.273438 83.71875 -39.421875 C 87.09375 -37.578125 89.703125 -35.066406 91.546875 -31.890625 C 93.398438 -28.722656 94.328125 -25.128906 94.328125 -21.109375 L 94.328125 0 L 77.78125 0 L 77.78125 -21.109375 C 77.78125 -22.816406 77.203125 -24.25 76.046875 -25.40625 C 74.890625 -26.5625 73.519531 -27.140625 71.9375 -27.140625 L 20.515625 -27.140625 L 20.515625 0 Z M 3.96875 0 "/></g></g></g></svg>