<svg class="mi-svg" xmlns="http://www.w3.org/2000/svg" xmlns:xlink="http://www.w3.org/1999/xlink" width="412" zoomAndPan="magnify" viewBox="0 0 309 83.999999" height="112" preserveAspectRatio="xMidYMid meet" version="1.0">
  <defs><g/></defs>
  <g fill="currentColor">
    <g transform="translate(0.0859575, 57.638685)">
      <g><path d="M 2.9375 0 L 2.9375 -31.203125 L 15.234375 -31.203125 L 15.234375 0 Z M 2.9375 -35.59375 L 2.9375 -46.734375 L 14.875 -46.734375 L 14.875 -35.59375 Z M 2.9375 -35.59375 "/></g>
    </g>
    <g transform="translate(18.251678, 57.638685)">
      <g><path d="M 57.5 -5.5625 C 57.5 -6.832031 57.070312 -7.894531 56.21875 -8.75 C 55.363281 -9.601562 54.347656 -10.03125 53.171875 -10.03125 L 19.484375 -10.03125 C 16.160156 -10.03125 13.253906 -10.710938 10.765625 -12.078125 C 8.273438 -13.453125 6.347656 -15.320312 4.984375 -17.6875 C 3.617188 -20.0625 2.9375 -22.710938 2.9375 -25.640625 L 2.9375 -31.203125 L 15.15625 -31.203125 L 15.15625 -25.640625 C 15.15625 -24.367188 15.582031 -23.304688 16.4375 -22.453125 C 17.289062 -21.597656 18.304688 -21.171875 19.484375 -21.171875 L 53.171875 -21.171875 C 56.492188 -21.171875 59.398438 -20.484375 61.890625 -19.109375 C 64.378906 -17.742188 66.304688 -15.890625 67.671875 -13.546875 C 69.046875 -11.203125 69.734375 -8.539062 69.734375 -5.5625 L 69.734375 0 L 57.5 0 Z M 57.5 -5.5625 "/></g>
    </g>
    <g transform="translate(90.914572, 57.638685)">
      <g><path d="M 2.9375 0 L 2.9375 -51.203125 L 15.15625 -51.203125 L 15.15625 -31.203125 L 53.171875 -31.203125 C 56.492188 -31.203125 59.398438 -30.519531 61.890625 -29.15625 C 64.378906 -27.789062 66.304688 -25.9375 67.671875 -23.59375 C 69.046875 -21.25 69.734375 -18.585938 69.734375 -15.609375 L 69.734375 0 L 57.5 0 L 57.5 -15.609375 C 57.5 -16.867188 57.070312 -17.925781 56.21875 -18.78125 C 55.363281 -19.644531 54.347656 -20.078125 53.171875 -20.078125 L 15.15625 -20.078125 L 15.15625 0 Z M 2.9375 0 "/></g>
    </g>
    <g transform="translate(163.577467, 57.638685)">
      <g><path d="M 19.484375 0 C 16.160156 0 13.253906 -0.679688 10.765625 -2.046875 C 8.273438 -3.421875 6.347656 -5.289062 4.984375 -7.65625 C 3.617188 -10.019531 2.9375 -12.671875 2.9375 -15.609375 C 2.9375 -18.585938 3.617188 -21.25 4.984375 -23.59375 C 6.347656 -25.9375 8.273438 -27.789062 10.765625 -29.15625 C 13.253906 -30.519531 16.160156 -31.203125 19.484375 -31.203125 L 53.171875 -31.203125 C 56.492188 -31.203125 59.398438 -30.519531 61.890625 -29.15625 C 64.378906 -27.789062 66.304688 -25.9375 67.671875 -23.59375 C 69.046875 -21.25 69.734375 -18.585938 69.734375 -15.609375 C 69.734375 -12.671875 69.046875 -10.019531 67.671875 -7.65625 C 66.304688 -5.289062 64.378906 -3.421875 61.890625 -2.046875 C 59.398438 -0.679688 56.492188 0 53.171875 0 Z M 15.15625 -15.609375 C 15.15625 -14.335938 15.582031 -13.273438 16.4375 -12.421875 C 17.289062 -11.566406 18.304688 -11.140625 19.484375 -11.140625 L 53.171875 -11.140625 C 54.347656 -11.140625 55.363281 -11.566406 56.21875 -12.421875 C 57.070312 -13.273438 57.5 -14.335938 57.5 -15.609375 C 57.5 -16.867188 57.070312 -17.925781 56.21875 -18.78125 C 55.363281 -19.644531 54.347656 -20.078125 53.171875 -20.078125 L 19.484375 -20.078125 C 18.304688 -20.078125 17.289062 -19.644531 16.4375 -18.78125 C 15.582031 -17.925781 15.15625 -16.867188 15.15625 -15.609375 Z M 15.15625 -15.609375 "/></g>
    </g>
    <g transform="translate(236.24035, 57.638685)">
      <g><path d="M 2.9375 -31.203125 L 53.171875 -31.203125 C 56.492188 -31.203125 59.398438 -30.519531 61.890625 -29.15625 C 64.378906 -27.789062 66.304688 -25.9375 67.671875 -23.59375 C 69.046875 -21.25 69.734375 -18.585938 69.734375 -15.609375 C 69.734375 -12.671875 69.046875 -10.019531 67.671875 -7.65625 C 66.304688 -5.289062 64.378906 -3.421875 61.890625 -2.046875 C 59.398438 -0.679688 56.492188 0 53.171875 0 L 15.15625 0 L 15.15625 20.078125 L 2.9375 20.078125 Z M 15.15625 -11.140625 L 53.171875 -11.140625 C 54.347656 -11.140625 55.363281 -11.566406 56.21875 -12.421875 C 57.070312 -13.273438 57.5 -14.335938 57.5 -15.609375 C 57.5 -16.867188 57.070312 -17.925781 56.21875 -18.78125 C 55.363281 -19.644531 54.347656 -20.078125 53.171875 -20.078125 L 15.15625 -20.078125 Z M 15.15625 -11.140625 "/></g>
    </g>
  </g>
</svg>
