<svg xmlns="http://www.w3.org/2000/svg" xmlns:xlink="http://www.w3.org/1999/xlink" width="300" zoomAndPan="magnify" viewBox="0 0 224.87999 225" height="300" preserveAspectRatio="xMidYMid meet" version="1.0"><defs><clipPath id="58dfc91aee"><path d="M 54 0.0585938 L 199 0.0585938 L 199 217 L 54 217 Z M 54 0.0585938 " clip-rule="nonzero"/></clipPath><clipPath id="48e496a4c0"><path d="M 48 0.0585938 L 193 0.0585938 L 193 217 L 48 217 Z M 48 0.0585938 " clip-rule="nonzero"/></clipPath><clipPath id="4f6f581b35"><path d="M 22 213 L 45 213 L 45 224.9375 L 22 224.9375 Z M 22 213 " clip-rule="nonzero"/></clipPath><clipPath id="3968440d04"><path d="M 176 198 L 205 198 L 205 224.9375 L 176 224.9375 Z M 176 198 " clip-rule="nonzero"/></clipPath><clipPath id="4f77576ef2"><path d="M 127.90625 2.574219 L 138.402344 2.574219 L 138.402344 13.070312 L 127.90625 13.070312 Z M 127.90625 2.574219 " clip-rule="nonzero"/></clipPath></defs><path fill="#ffffff" d="M 24.40625 66.949219 C 23.871094 72.015625 19.324219 75.6875 14.257812 75.148438 C 9.191406 74.609375 5.519531 70.066406 6.058594 65 C 6.597656 59.933594 11.140625 56.261719 16.207031 56.800781 C 21.273438 57.339844 24.945312 61.882812 24.40625 66.949219 " fill-opacity="1" fill-rule="nonzero"/><path fill="#000000" d="M 24.40625 66.949219 L 24.410156 66.949219 Z M 15.226562 57.023438 C 10.710938 57.023438 6.820312 60.441406 6.332031 65.027344 C 5.8125 69.9375 9.378906 74.351562 14.289062 74.875 C 19.195312 75.390625 23.613281 71.828125 24.132812 66.917969 C 24.386719 64.542969 23.699219 62.207031 22.195312 60.347656 C 20.695312 58.488281 18.558594 57.324219 16.179688 57.070312 C 15.859375 57.039062 15.542969 57.023438 15.226562 57.023438 Z M 15.242188 75.472656 C 14.90625 75.472656 14.570312 75.457031 14.230469 75.421875 C 9.023438 74.867188 5.234375 70.179688 5.785156 64.96875 C 6.054688 62.449219 7.289062 60.179688 9.261719 58.582031 C 11.238281 56.988281 13.714844 56.257812 16.238281 56.527344 C 18.761719 56.792969 21.027344 58.027344 22.625 60.003906 C 24.21875 61.976562 24.949219 64.453125 24.679688 66.976562 C 24.164062 71.847656 20.03125 75.472656 15.242188 75.472656 " fill-opacity="1" fill-rule="nonzero"/><path fill="#000000" d="M 14.148438 70.183594 C 14.035156 70.183594 13.929688 70.113281 13.890625 70.007812 L 11.554688 63.90625 C 11.5 63.765625 11.570312 63.609375 11.710938 63.554688 C 11.851562 63.5 12.011719 63.570312 12.066406 63.710938 L 14.140625 69.125 C 15.386719 65.78125 16.796875 63.363281 18.449219 61.742188 C 18.558594 61.636719 18.730469 61.640625 18.839844 61.746094 C 18.945312 61.855469 18.941406 62.03125 18.835938 62.136719 C 17.132812 63.804688 15.683594 66.378906 14.40625 70 C 14.367188 70.109375 14.265625 70.183594 14.152344 70.183594 C 14.148438 70.183594 14.148438 70.183594 14.148438 70.183594 " fill-opacity="1" fill-rule="nonzero"/><g clip-path="url(#58dfc91aee)"><path fill="#000000" d="M 164.351562 216.171875 L 62.019531 216.171875 C 57.609375 216.171875 54.488281 212.609375 55.042969 208.214844 L 80.242188 9.15625 C 80.796875 4.757812 84.824219 1.195312 89.234375 1.195312 L 186.429688 0.0585938 C 197.585938 0.0585938 199.097656 4.757812 198.542969 9.15625 L 173.34375 208.214844 C 172.789062 212.609375 168.761719 216.171875 164.351562 216.171875 " fill-opacity="1" fill-rule="nonzero"/></g><g clip-path="url(#48e496a4c0)"><path fill="#ffffff" d="M 158.195312 216.171875 L 55.863281 216.171875 C 51.453125 216.171875 48.328125 212.597656 48.886719 208.1875 L 74.082031 8.496094 C 74.640625 4.085938 78.664062 0.511719 83.074219 0.511719 L 185.40625 0.511719 C 189.816406 0.511719 192.941406 4.085938 192.382812 8.496094 L 167.1875 208.1875 C 166.628906 212.597656 162.605469 216.171875 158.195312 216.171875 " fill-opacity="1" fill-rule="nonzero"/><path fill="#000000" d="M 83.074219 0.785156 C 78.804688 0.785156 74.894531 4.261719 74.355469 8.53125 L 49.160156 208.222656 C 48.898438 210.289062 49.457031 212.226562 50.738281 213.675781 C 52 215.109375 53.820312 215.898438 55.863281 215.898438 L 158.195312 215.898438 C 162.464844 215.898438 166.375 212.425781 166.914062 208.152344 L 192.113281 8.460938 C 192.371094 6.394531 191.8125 4.460938 190.53125 3.007812 C 189.269531 1.574219 187.449219 0.785156 185.40625 0.785156 Z M 158.195312 216.449219 L 55.863281 216.449219 C 53.660156 216.449219 51.695312 215.59375 50.324219 214.039062 C 48.941406 212.46875 48.332031 210.378906 48.613281 208.152344 L 73.8125 8.460938 C 74.382812 3.925781 78.539062 0.238281 83.074219 0.238281 L 185.40625 0.238281 C 187.609375 0.238281 189.574219 1.09375 190.945312 2.644531 C 192.328125 4.214844 192.9375 6.304688 192.65625 8.53125 L 167.460938 208.222656 C 166.886719 212.757812 162.730469 216.449219 158.195312 216.449219 " fill-opacity="1" fill-rule="nonzero"/></g><path fill="#ffffff" d="M 54.71875 208.464844 L 78.777344 17.792969 C 78.90625 16.773438 79.832031 15.949219 80.851562 15.949219 L 183.734375 15.949219 C 184.753906 15.949219 185.472656 16.773438 185.34375 17.792969 L 161.285156 208.464844 C 161.15625 209.480469 160.226562 210.308594 159.210938 210.308594 L 56.328125 210.308594 C 55.308594 210.308594 54.589844 209.480469 54.71875 208.464844 " fill-opacity="1" fill-rule="nonzero"/><path fill="#000000" d="M 80.851562 16.222656 C 79.96875 16.222656 79.160156 16.941406 79.050781 17.824219 L 54.988281 208.496094 C 54.9375 208.914062 55.050781 209.300781 55.304688 209.589844 C 55.554688 209.875 55.917969 210.03125 56.328125 210.03125 L 159.210938 210.03125 C 160.09375 210.03125 160.902344 209.3125 161.015625 208.429688 L 185.074219 17.753906 C 185.125 17.339844 185.015625 16.953125 184.757812 16.664062 C 184.507812 16.378906 184.144531 16.222656 183.734375 16.222656 Z M 159.210938 210.582031 L 56.328125 210.582031 C 55.757812 210.582031 55.25 210.359375 54.890625 209.953125 C 54.53125 209.542969 54.371094 209.003906 54.445312 208.429688 L 54.71875 208.464844 L 54.445312 208.429688 L 78.503906 17.753906 C 78.648438 16.605469 79.703125 15.671875 80.851562 15.671875 L 183.734375 15.671875 C 184.304688 15.671875 184.816406 15.894531 185.171875 16.300781 C 185.53125 16.710938 185.691406 17.25 185.617188 17.824219 L 161.558594 208.496094 C 161.414062 209.648438 160.359375 210.582031 159.210938 210.582031 " fill-opacity="1" fill-rule="nonzero"/><path fill="#000000" d="M 133.714844 4.960938 C 132.199219 4.960938 130.808594 6.195312 130.617188 7.710938 C 130.527344 8.4375 130.722656 9.113281 131.167969 9.621094 C 131.609375 10.117188 132.246094 10.394531 132.960938 10.394531 C 134.476562 10.394531 135.863281 9.160156 136.054688 7.640625 C 136.144531 6.917969 135.953125 6.242188 135.503906 5.734375 C 135.066406 5.234375 134.429688 4.960938 133.714844 4.960938 Z M 132.960938 10.941406 C 132.085938 10.941406 131.300781 10.601562 130.757812 9.980469 C 130.203125 9.355469 129.960938 8.527344 130.074219 7.640625 C 130.300781 5.859375 131.929688 4.410156 133.714844 4.410156 C 134.589844 4.410156 135.371094 4.753906 135.917969 5.371094 C 136.46875 5.996094 136.710938 6.828125 136.601562 7.710938 C 136.375 9.492188 134.742188 10.941406 132.960938 10.941406 " fill-opacity="1" fill-rule="nonzero"/><path fill="#000000" d="M 80.792969 15.992188 L 51.425781 36.050781 L 78.101562 36.03125 L 96.214844 16.042969 L 80.792969 15.992188 " fill-opacity="1" fill-rule="nonzero"/><path fill="#000000" d="M 80.878906 16.265625 L 52.316406 35.773438 L 77.980469 35.757812 L 95.597656 16.316406 Z M 51.425781 36.324219 C 51.308594 36.324219 51.199219 36.246094 51.164062 36.132812 C 51.128906 36.015625 51.171875 35.890625 51.273438 35.824219 L 80.636719 15.761719 C 80.683594 15.734375 80.738281 15.714844 80.792969 15.714844 L 96.214844 15.765625 C 96.324219 15.769531 96.421875 15.832031 96.464844 15.929688 C 96.511719 16.03125 96.492188 16.144531 96.417969 16.226562 L 78.304688 36.214844 C 78.253906 36.273438 78.179688 36.304688 78.101562 36.304688 L 51.425781 36.324219 " fill-opacity="1" fill-rule="nonzero"/><path fill="#ffffff" d="M 96.214844 16.042969 L 78.101562 36.03125 L 105.277344 36.011719 L 116.976562 16.113281 L 96.214844 16.042969 " fill-opacity="1" fill-rule="nonzero"/><path fill="#000000" d="M 96.335938 16.316406 L 78.71875 35.757812 L 105.117188 35.738281 L 116.5 16.386719 Z M 78.101562 36.304688 C 77.992188 36.304688 77.894531 36.242188 77.847656 36.144531 C 77.804688 36.042969 77.824219 35.929688 77.898438 35.847656 L 96.011719 15.859375 C 96.0625 15.800781 96.136719 15.769531 96.214844 15.769531 L 116.980469 15.835938 C 117.078125 15.835938 117.167969 15.890625 117.214844 15.976562 C 117.265625 16.0625 117.265625 16.164062 117.214844 16.25 L 105.511719 36.152344 C 105.464844 36.234375 105.375 36.285156 105.277344 36.285156 L 78.101562 36.304688 " fill-opacity="1" fill-rule="nonzero"/><path fill="#000000" d="M 187.898438 35.953125 L 184.765625 16.339844 L 162.117188 16.261719 L 163.402344 35.972656 L 187.898438 35.953125 " fill-opacity="1" fill-rule="nonzero"/><path fill="#000000" d="M 162.410156 16.539062 L 163.660156 35.695312 L 187.578125 35.679688 L 184.53125 16.613281 Z M 163.402344 36.246094 C 163.257812 36.246094 163.136719 36.132812 163.128906 35.988281 L 161.84375 16.28125 C 161.839844 16.203125 161.863281 16.128906 161.917969 16.074219 C 161.96875 16.019531 162.042969 15.988281 162.117188 15.988281 L 184.765625 16.0625 C 184.902344 16.066406 185.015625 16.160156 185.035156 16.296875 L 188.171875 35.910156 C 188.183594 35.988281 188.160156 36.070312 188.105469 36.132812 C 188.054688 36.195312 187.980469 36.230469 187.898438 36.230469 L 163.402344 36.246094 " fill-opacity="1" fill-rule="nonzero"/><path fill="#000000" d="M 116.976562 16.113281 L 105.277344 36.011719 L 135.753906 35.992188 L 140.621094 16.191406 L 116.976562 16.113281 " fill-opacity="1" fill-rule="nonzero"/><path fill="#000000" d="M 117.136719 16.386719 L 105.757812 35.738281 L 135.539062 35.71875 L 140.269531 16.464844 Z M 105.277344 36.289062 C 105.175781 36.289062 105.085938 36.234375 105.035156 36.148438 C 104.988281 36.0625 104.988281 35.960938 105.039062 35.875 L 116.742188 15.972656 C 116.792969 15.890625 116.878906 15.839844 116.976562 15.839844 L 140.621094 15.917969 C 140.703125 15.917969 140.785156 15.957031 140.835938 16.023438 C 140.890625 16.089844 140.90625 16.175781 140.886719 16.257812 L 136.019531 36.058594 C 135.988281 36.179688 135.878906 36.265625 135.753906 36.265625 L 105.277344 36.289062 " fill-opacity="1" fill-rule="nonzero"/><path fill="#ffffff" d="M 162.117188 16.261719 L 140.621094 16.191406 L 135.753906 35.992188 L 163.402344 35.972656 L 162.117188 16.261719 " fill-opacity="1" fill-rule="nonzero"/><path fill="#000000" d="M 140.835938 16.464844 L 136.105469 35.714844 L 163.109375 35.695312 L 161.859375 16.535156 Z M 135.753906 36.265625 C 135.671875 36.265625 135.589844 36.226562 135.535156 36.160156 C 135.484375 36.09375 135.46875 36.007812 135.488281 35.925781 L 140.351562 16.125 C 140.382812 16.003906 140.496094 15.917969 140.621094 15.917969 L 162.117188 15.988281 C 162.265625 15.988281 162.382812 16.101562 162.394531 16.246094 L 163.675781 35.953125 C 163.683594 36.03125 163.65625 36.101562 163.605469 36.160156 C 163.554688 36.214844 163.480469 36.246094 163.40625 36.246094 L 135.753906 36.265625 " fill-opacity="1" fill-rule="nonzero"/><path fill="#ffffff" d="M 77.585938 36.03125 C 77.480469 36.238281 77.386719 36.449219 77.296875 36.65625 C 77.304688 36.644531 77.3125 36.636719 77.316406 36.628906 C 77.300781 36.660156 77.285156 36.691406 77.265625 36.726562 C 77.136719 37.011719 77.007812 37.292969 76.835938 37.5625 C 73.074219 49.378906 97.714844 51.285156 104.40625 37.429688 C 104.527344 36.960938 104.648438 36.484375 104.769531 36.011719 L 77.585938 36.03125 " fill-opacity="1" fill-rule="nonzero"/><path fill="#000000" d="M 77.085938 37.679688 C 75.949219 41.300781 77.535156 44.265625 81.441406 45.824219 C 84.878906 47.191406 89.464844 47.214844 93.703125 45.882812 C 98.496094 44.375 102.203125 41.339844 104.148438 37.332031 L 104.417969 36.289062 L 77.753906 36.304688 C 77.699219 36.429688 77.644531 36.550781 77.589844 36.671875 C 77.585938 36.703125 77.574219 36.734375 77.554688 36.765625 L 77.503906 36.859375 C 77.398438 37.097656 77.261719 37.394531 77.085938 37.679688 Z M 87.367188 47.414062 C 85.15625 47.414062 83.042969 47.054688 81.238281 46.332031 C 77.015625 44.652344 75.316406 41.425781 76.570312 37.476562 C 76.578125 37.457031 76.589844 37.433594 76.601562 37.414062 C 76.769531 37.152344 76.898438 36.875 77.015625 36.613281 L 77.03125 36.578125 C 77.035156 36.566406 77.039062 36.554688 77.046875 36.542969 C 77.144531 36.316406 77.238281 36.113281 77.339844 35.90625 C 77.386719 35.816406 77.480469 35.757812 77.585938 35.757812 L 104.769531 35.738281 C 104.855469 35.738281 104.933594 35.777344 104.988281 35.84375 C 105.039062 35.910156 105.054688 36 105.035156 36.082031 L 104.671875 37.496094 C 104.667969 37.515625 104.660156 37.53125 104.652344 37.546875 C 102.648438 41.707031 98.816406 44.851562 93.871094 46.40625 C 91.730469 47.078125 89.5 47.414062 87.367188 47.414062 " fill-opacity="1" fill-rule="nonzero"/><path fill="#000000" d="M 104.683594 36.011719 C 104.5625 36.484375 104.441406 36.960938 104.320312 37.429688 C 104.609375 37.277344 104.535156 37.128906 104.613281 36.972656 C 100.394531 51.464844 134 50.570312 135.21875 36.742188 C 135.171875 37.03125 135.160156 37.3125 135.144531 37.589844 C 135.285156 37.046875 135.371094 36.503906 135.398438 35.992188 L 104.683594 36.011719 " fill-opacity="1" fill-rule="nonzero"/><path fill="#000000" d="M 104.777344 36.753906 C 104.871094 36.820312 104.914062 36.9375 104.878906 37.050781 C 104.0625 39.855469 104.640625 42.191406 106.597656 43.984375 C 110.5625 47.617188 119.644531 48.300781 126.839844 45.507812 C 131.558594 43.671875 134.402344 40.707031 134.898438 37.121094 C 134.910156 36.984375 134.925781 36.84375 134.945312 36.703125 C 134.960938 36.617188 135.007812 36.546875 135.074219 36.507812 C 135.085938 36.425781 135.09375 36.34375 135.105469 36.265625 L 104.898438 36.289062 Z M 117.441406 47.765625 C 112.871094 47.765625 108.644531 46.601562 106.226562 44.390625 C 104.3125 42.632812 103.605469 40.316406 104.164062 37.652344 C 104.15625 37.648438 104.15625 37.648438 104.148438 37.644531 C 104.066406 37.574219 104.027344 37.464844 104.054688 37.359375 L 104.417969 35.945312 C 104.449219 35.824219 104.558594 35.738281 104.683594 35.738281 L 135.398438 35.714844 C 135.476562 35.714844 135.546875 35.746094 135.597656 35.800781 C 135.652344 35.859375 135.679688 35.929688 135.675781 36.007812 C 135.644531 36.53125 135.554688 37.085938 135.410156 37.65625 C 135.398438 37.703125 135.375 37.746094 135.34375 37.78125 C 134.605469 41.308594 131.699219 44.207031 127.035156 46.019531 C 124.003906 47.199219 120.636719 47.765625 117.441406 47.765625 " fill-opacity="1" fill-rule="nonzero"/><path fill="#000000" d="M 163.171875 35.972656 C 163.183594 36.445312 163.210938 36.921875 163.214844 37.410156 C 162.058594 49.644531 184.28125 50.667969 187.898438 35.953125 L 163.171875 35.972656 " fill-opacity="1" fill-rule="nonzero"/><path fill="#000000" d="M 163.457031 36.246094 C 163.460938 36.335938 163.460938 36.421875 163.464844 36.511719 C 163.476562 36.808594 163.488281 37.105469 163.492188 37.40625 C 163.492188 37.414062 163.488281 37.425781 163.488281 37.433594 C 162.96875 42.925781 167.152344 45.625 171.242188 46.3125 C 177.585938 47.386719 185.390625 44.210938 187.546875 36.226562 Z M 173.675781 47.066406 C 172.820312 47.066406 171.972656 46.996094 171.148438 46.855469 C 165.714844 45.9375 162.492188 42.226562 162.941406 37.398438 C 162.9375 37.105469 162.925781 36.816406 162.917969 36.53125 C 162.910156 36.347656 162.902344 36.160156 162.898438 35.976562 C 162.898438 35.902344 162.921875 35.832031 162.976562 35.777344 C 163.027344 35.726562 163.097656 35.695312 163.175781 35.695312 L 187.898438 35.679688 C 187.984375 35.679688 188.066406 35.714844 188.117188 35.78125 C 188.167969 35.847656 188.1875 35.9375 188.167969 36.019531 C 186.324219 43.515625 179.765625 47.066406 173.675781 47.066406 " fill-opacity="1" fill-rule="nonzero"/><path fill="#ffffff" d="M 135.449219 35.988281 C 135.421875 36.503906 135.296875 37.046875 135.15625 37.585938 C 133.582031 49.882812 162.839844 49.265625 163.128906 36.511719 C 163.148438 36.816406 163.179688 37.117188 163.214844 37.410156 C 163.210938 36.921875 163.183594 36.445312 163.175781 35.96875 L 135.449219 35.988281 " fill-opacity="1" fill-rule="nonzero"/><path fill="#000000" d="M 135.425781 37.636719 C 135.117188 40.082031 136.089844 42.175781 138.230469 43.695312 C 142.699219 46.859375 151.4375 47.039062 157.308594 44.085938 C 159.789062 42.839844 162.765625 40.511719 162.855469 36.507812 C 162.859375 36.445312 162.878906 36.394531 162.910156 36.347656 C 162.910156 36.3125 162.90625 36.28125 162.90625 36.246094 L 135.699219 36.265625 C 135.648438 36.734375 135.535156 37.214844 135.425781 37.636719 Z M 147.742188 46.726562 C 143.96875 46.726562 140.335938 45.859375 137.914062 44.140625 C 135.589844 42.496094 134.542969 40.21875 134.882812 37.554688 C 134.886719 37.542969 134.886719 37.53125 134.890625 37.519531 C 135.019531 37.015625 135.144531 36.480469 135.171875 35.976562 C 135.183594 35.832031 135.304688 35.714844 135.449219 35.714844 L 163.171875 35.695312 C 163.320312 35.695312 163.445312 35.816406 163.449219 35.964844 C 163.453125 36.144531 163.457031 36.328125 163.464844 36.511719 C 163.476562 36.808594 163.488281 37.105469 163.488281 37.40625 C 163.492188 37.53125 163.414062 37.632812 163.300781 37.671875 C 162.726562 41.246094 159.925781 43.382812 157.554688 44.574219 C 154.691406 46.015625 151.160156 46.726562 147.742188 46.726562 " fill-opacity="1" fill-rule="nonzero"/><path fill="#000000" d="M 51.425781 36.050781 C 47.742188 48.425781 67.992188 51.996094 77.296875 36.65625 C 77.386719 36.449219 77.480469 36.238281 77.585938 36.03125 L 51.425781 36.050781 " fill-opacity="1" fill-rule="nonzero"/><path fill="#000000" d="M 51.632812 36.324219 C 50.488281 40.4375 52.042969 43.875 55.8125 45.546875 C 58.816406 46.878906 62.691406 46.863281 66.449219 45.507812 C 69.457031 44.421875 73.738281 41.980469 77.050781 36.527344 C 77.085938 36.453125 77.117188 36.378906 77.148438 36.308594 Z M 60.792969 47.085938 C 58.921875 47.085938 57.148438 46.738281 55.589844 46.050781 C 51.480469 44.230469 49.828125 40.460938 51.164062 35.972656 C 51.199219 35.855469 51.304688 35.777344 51.425781 35.777344 L 77.585938 35.757812 C 77.679688 35.757812 77.769531 35.808594 77.816406 35.890625 C 77.867188 35.96875 77.871094 36.070312 77.828125 36.15625 C 77.730469 36.351562 77.644531 36.546875 77.558594 36.742188 C 77.554688 36.75 77.535156 36.785156 77.53125 36.796875 C 74.132812 42.398438 69.730469 44.90625 66.636719 46.023438 C 64.679688 46.730469 62.6875 47.085938 60.792969 47.085938 " fill-opacity="1" fill-rule="nonzero"/><path fill="#ffffff" d="M 163.40625 36.246094 C 163.253906 36.246094 163.128906 36.121094 163.128906 35.972656 C 163.128906 35.816406 163.253906 35.695312 163.40625 35.695312 L 187.898438 35.679688 C 188.050781 35.679688 188.175781 35.800781 188.175781 35.953125 C 188.175781 36.105469 188.050781 36.226562 187.898438 36.226562 L 163.40625 36.246094 " fill-opacity="1" fill-rule="nonzero"/><path fill="#ffffff" d="M 104.769531 36.289062 C 104.617188 36.289062 104.496094 36.164062 104.496094 36.011719 C 104.496094 35.863281 104.617188 35.738281 104.769531 35.738281 L 135.753906 35.714844 C 135.90625 35.714844 136.027344 35.839844 136.027344 35.992188 C 136.027344 36.144531 135.90625 36.265625 135.753906 36.265625 L 104.769531 36.289062 " fill-opacity="1" fill-rule="nonzero"/><path fill="#ffffff" d="M 51.425781 36.324219 C 51.273438 36.324219 51.152344 36.203125 51.152344 36.050781 C 51.152344 35.902344 51.273438 35.777344 51.425781 35.777344 L 78.101562 35.757812 C 78.25 35.757812 78.375 35.882812 78.375 36.03125 C 78.375 36.183594 78.25 36.308594 78.101562 36.308594 L 51.425781 36.324219 " fill-opacity="1" fill-rule="nonzero"/><path fill="#ffffff" d="M 141.871094 134.148438 C 142.734375 134.144531 143.484375 133.511719 143.695312 132.617188 L 149.40625 107.90625 C 149.53125 107.367188 149.175781 106.871094 148.65625 106.871094 L 92.339844 106.96875 C 91.703125 106.96875 91.195312 107.601562 91.300781 108.253906 L 95.246094 132.605469 C 95.421875 133.691406 96.292969 134.449219 97.351562 134.4375 L 141.871094 134.148438 " fill-opacity="1" fill-rule="nonzero"/><path fill="#000000" d="M 141.871094 134.148438 L 141.875 134.148438 Z M 148.65625 107.144531 L 92.339844 107.246094 C 92.128906 107.246094 91.921875 107.347656 91.769531 107.523438 C 91.605469 107.71875 91.53125 107.96875 91.570312 108.210938 L 95.515625 132.5625 C 95.667969 133.507812 96.410156 134.164062 97.320312 134.164062 C 97.328125 134.164062 97.335938 134.164062 97.347656 134.164062 L 141.871094 133.875 C 142.605469 133.871094 143.246094 133.328125 143.425781 132.554688 L 149.140625 107.84375 C 149.183594 107.65625 149.144531 107.464844 149.035156 107.328125 C 148.941406 107.210938 148.808594 107.144531 148.65625 107.144531 Z M 97.316406 134.714844 C 96.132812 134.714844 95.171875 133.867188 94.972656 132.648438 L 91.03125 108.296875 C 90.964844 107.898438 91.082031 107.484375 91.351562 107.167969 C 91.605469 106.867188 91.964844 106.695312 92.339844 106.695312 L 148.65625 106.597656 C 148.976562 106.597656 149.269531 106.738281 149.464844 106.988281 C 149.683594 107.257812 149.757812 107.617188 149.675781 107.96875 L 143.960938 132.675781 C 143.722656 133.699219 142.867188 134.417969 141.875 134.425781 L 97.351562 134.710938 C 97.339844 134.714844 97.328125 134.714844 97.316406 134.714844 " fill-opacity="1" fill-rule="nonzero"/><path fill="#ffffff" d="M 89.179688 105.371094 L 151.386719 105.539062 C 152.222656 105.539062 152.929688 104.773438 152.898438 103.890625 L 152.800781 100.804688 C 152.777344 100.054688 152.21875 99.480469 151.503906 99.480469 L 89.277344 99.367188 C 88.4375 99.367188 87.734375 100.140625 87.765625 101.023438 L 87.878906 104.054688 C 87.910156 104.804688 88.464844 105.371094 89.179688 105.371094 " fill-opacity="1" fill-rule="nonzero"/><path fill="#000000" d="M 89.273438 99.644531 C 88.960938 99.644531 88.660156 99.777344 88.421875 100.023438 C 88.167969 100.289062 88.027344 100.648438 88.042969 101.011719 L 88.15625 104.042969 C 88.175781 104.640625 88.617188 105.097656 89.179688 105.097656 L 151.386719 105.261719 C 151.390625 105.261719 151.390625 105.261719 151.390625 105.261719 C 151.703125 105.261719 152.003906 105.128906 152.238281 104.886719 C 152.496094 104.621094 152.636719 104.265625 152.625 103.902344 L 152.527344 100.816406 C 152.507812 100.210938 152.066406 99.753906 151.503906 99.753906 L 89.277344 99.644531 C 89.273438 99.644531 89.273438 99.644531 89.273438 99.644531 Z M 151.390625 105.8125 C 151.390625 105.8125 151.386719 105.8125 151.386719 105.8125 L 89.175781 105.648438 C 88.316406 105.644531 87.640625 104.964844 87.605469 104.0625 L 87.492188 101.035156 C 87.472656 100.519531 87.667969 100.015625 88.027344 99.640625 C 88.367188 99.289062 88.808594 99.09375 89.273438 99.09375 C 89.273438 99.09375 89.277344 99.09375 89.277344 99.09375 L 151.503906 99.203125 C 152.371094 99.207031 153.046875 99.890625 153.074219 100.796875 L 153.175781 103.882812 C 153.191406 104.394531 152.992188 104.898438 152.632812 105.269531 C 152.292969 105.621094 151.851562 105.8125 151.390625 105.8125 " fill-opacity="1" fill-rule="nonzero"/><path fill="#ffffff" d="M 100.683594 111.984375 L 101.0625 130.09375 C 101.070312 130.410156 101.304688 130.652344 101.601562 130.65625 L 103.957031 130.6875 C 104.3125 130.691406 104.609375 130.367188 104.597656 129.996094 L 103.953125 111.851562 C 103.941406 111.539062 103.707031 111.300781 103.40625 111.300781 L 101.3125 111.300781 C 100.96875 111.300781 100.671875 111.617188 100.683594 111.984375 " fill-opacity="1" fill-rule="nonzero"/><path fill="#000000" d="M 101.3125 111.574219 C 101.226562 111.574219 101.140625 111.613281 101.074219 111.683594 C 100.996094 111.761719 100.953125 111.867188 100.957031 111.976562 L 101.339844 130.089844 C 101.339844 130.257812 101.453125 130.382812 101.605469 130.382812 L 103.960938 130.410156 C 104.0625 130.410156 104.136719 130.375 104.207031 130.304688 C 104.285156 130.222656 104.328125 130.113281 104.324219 130.003906 L 103.675781 111.863281 C 103.671875 111.695312 103.558594 111.574219 103.40625 111.574219 Z M 103.964844 130.960938 C 103.960938 130.960938 103.960938 130.960938 103.957031 130.960938 L 101.597656 130.933594 C 101.152344 130.925781 100.800781 130.5625 100.789062 130.101562 L 100.40625 111.988281 C 100.402344 111.734375 100.5 111.480469 100.683594 111.296875 C 100.855469 111.121094 101.078125 111.023438 101.3125 111.023438 L 103.40625 111.023438 C 103.859375 111.023438 104.210938 111.375 104.226562 111.84375 L 104.871094 129.984375 C 104.882812 130.242188 104.78125 130.5 104.597656 130.6875 C 104.425781 130.863281 104.203125 130.960938 103.964844 130.960938 " fill-opacity="1" fill-rule="nonzero"/><path fill="#ffffff" d="M 108.804688 111.910156 L 108.042969 129.960938 C 108.027344 130.320312 108.289062 130.605469 108.628906 130.601562 L 110.808594 130.574219 C 111.15625 130.570312 111.457031 130.257812 111.46875 129.886719 L 112.035156 111.917969 C 112.046875 111.570312 111.800781 111.292969 111.472656 111.285156 L 109.492188 111.230469 C 109.132812 111.222656 108.824219 111.53125 108.804688 111.910156 " fill-opacity="1" fill-rule="nonzero"/><path fill="#000000" d="M 108.804688 111.910156 L 108.808594 111.910156 Z M 109.476562 111.503906 C 109.273438 111.503906 109.089844 111.699219 109.082031 111.921875 L 108.316406 129.972656 C 108.3125 130.078125 108.347656 130.171875 108.410156 130.238281 C 108.453125 130.277344 108.527344 130.332031 108.625 130.324219 L 110.804688 130.296875 C 111.007812 130.296875 111.1875 130.101562 111.195312 129.878906 L 111.757812 111.910156 C 111.761719 111.808594 111.730469 111.714844 111.667969 111.648438 C 111.628906 111.609375 111.566406 111.5625 111.464844 111.558594 L 109.484375 111.507812 C 109.480469 111.503906 109.480469 111.503906 109.476562 111.503906 Z M 108.621094 130.875 C 108.390625 130.875 108.175781 130.785156 108.019531 130.621094 C 107.847656 130.445312 107.757812 130.203125 107.769531 129.949219 L 108.53125 111.898438 C 108.554688 111.375 108.972656 110.957031 109.476562 110.957031 C 109.480469 110.957031 109.492188 110.957031 109.5 110.957031 L 111.480469 111.007812 C 111.707031 111.015625 111.914062 111.109375 112.066406 111.273438 C 112.230469 111.445312 112.316406 111.675781 112.308594 111.925781 L 111.742188 129.894531 C 111.726562 130.414062 111.308594 130.84375 110.808594 130.847656 L 108.632812 130.875 C 108.628906 130.875 108.625 130.875 108.621094 130.875 " fill-opacity="1" fill-rule="nonzero"/><path fill="#ffffff" d="M 115.4375 112.105469 L 114.433594 129.753906 C 114.40625 130.199219 114.730469 130.550781 115.152344 130.539062 L 117.199219 130.460938 C 117.609375 130.449219 117.960938 130.082031 117.976562 129.644531 L 118.714844 112.074219 C 118.730469 111.640625 118.421875 111.300781 118.019531 111.300781 L 116.242188 111.300781 C 115.824219 111.300781 115.460938 111.664062 115.4375 112.105469 " fill-opacity="1" fill-rule="nonzero"/><path fill="#000000" d="M 115.4375 112.105469 Z M 116.242188 111.574219 C 115.96875 111.574219 115.726562 111.824219 115.710938 112.121094 L 114.707031 129.769531 C 114.699219 129.914062 114.742188 130.046875 114.835938 130.140625 C 114.917969 130.222656 115.023438 130.261719 115.144531 130.261719 L 117.1875 130.1875 C 117.460938 130.179688 117.691406 129.929688 117.703125 129.632812 L 118.4375 112.058594 C 118.445312 111.917969 118.398438 111.789062 118.3125 111.699219 C 118.257812 111.640625 118.164062 111.574219 118.019531 111.574219 Z M 115.125 130.8125 C 114.867188 130.8125 114.625 130.710938 114.445312 130.527344 C 114.246094 130.324219 114.140625 130.035156 114.15625 129.738281 L 115.160156 112.089844 C 115.195312 111.503906 115.679688 111.023438 116.242188 111.023438 L 118.019531 111.023438 C 118.28125 111.023438 118.527344 111.128906 118.707031 111.320312 C 118.902344 111.519531 119 111.789062 118.988281 112.082031 L 118.253906 129.65625 C 118.226562 130.242188 117.769531 130.714844 117.207031 130.734375 L 115.164062 130.8125 C 115.152344 130.8125 115.136719 130.8125 115.125 130.8125 " fill-opacity="1" fill-rule="nonzero"/><path fill="#ffffff" d="M 141.140625 111.992188 L 138.226562 129.664062 C 138.160156 130.078125 137.8125 130.394531 137.421875 130.402344 L 135.5 130.425781 C 135.042969 130.429688 134.710938 130.007812 134.789062 129.523438 L 137.777344 111.847656 C 137.847656 111.4375 138.191406 111.121094 138.582031 111.117188 L 140.425781 111.09375 C 140.886719 111.089844 141.21875 111.507812 141.140625 111.992188 " fill-opacity="1" fill-rule="nonzero"/><path fill="#000000" d="M 140.4375 111.371094 C 140.433594 111.371094 140.433594 111.371094 140.429688 111.371094 L 138.585938 111.394531 C 138.328125 111.394531 138.09375 111.613281 138.046875 111.894531 L 135.0625 129.570312 C 135.035156 129.730469 135.074219 129.890625 135.171875 130 C 135.253906 130.097656 135.371094 130.152344 135.5 130.148438 L 137.417969 130.125 C 137.675781 130.121094 137.910156 129.902344 137.957031 129.621094 L 140.867188 111.949219 C 140.894531 111.785156 140.855469 111.628906 140.757812 111.515625 C 140.675781 111.421875 140.5625 111.371094 140.4375 111.371094 Z M 135.492188 130.699219 C 135.207031 130.699219 134.9375 130.574219 134.753906 130.359375 C 134.550781 130.121094 134.464844 129.800781 134.519531 129.476562 L 137.507812 111.804688 C 137.597656 111.261719 138.058594 110.851562 138.582031 110.84375 L 140.421875 110.820312 C 140.710938 110.816406 140.988281 110.941406 141.175781 111.15625 C 141.378906 111.394531 141.460938 111.714844 141.410156 112.035156 L 138.5 129.710938 C 138.410156 130.253906 137.945312 130.667969 137.425781 130.675781 L 135.503906 130.699219 C 135.5 130.699219 135.496094 130.699219 135.492188 130.699219 " fill-opacity="1" fill-rule="nonzero"/><path fill="#ffffff" d="M 133.058594 111.78125 L 131.261719 129.90625 C 131.230469 130.222656 130.964844 130.472656 130.667969 130.464844 L 128.332031 130.40625 C 128.03125 130.398438 127.808594 130.128906 127.84375 129.808594 L 129.710938 111.800781 C 129.742188 111.496094 129.992188 111.25 130.28125 111.242188 L 132.542969 111.183594 C 132.859375 111.175781 133.09375 111.449219 133.058594 111.78125 " fill-opacity="1" fill-rule="nonzero"/><path fill="#000000" d="M 133.058594 111.78125 L 133.0625 111.78125 Z M 132.558594 111.460938 C 132.554688 111.460938 132.554688 111.460938 132.550781 111.460938 L 130.289062 111.519531 C 130.140625 111.523438 130.003906 111.660156 129.984375 111.828125 L 128.117188 129.835938 C 128.109375 129.921875 128.132812 130 128.179688 130.058594 C 128.210938 130.089844 128.261719 130.128906 128.339844 130.132812 L 130.671875 130.191406 C 130.675781 130.191406 130.675781 130.191406 130.679688 130.191406 C 130.832031 130.191406 130.972656 130.050781 130.988281 129.878906 L 132.789062 111.753906 C 132.796875 111.667969 132.773438 111.585938 132.71875 111.53125 C 132.6875 111.496094 132.636719 111.460938 132.558594 111.460938 Z M 130.679688 130.738281 C 130.671875 130.738281 130.667969 130.738281 130.660156 130.738281 L 128.328125 130.679688 C 128.109375 130.675781 127.910156 130.582031 127.769531 130.417969 C 127.617188 130.25 127.546875 130.015625 127.570312 129.777344 L 129.4375 111.769531 C 129.484375 111.332031 129.851562 110.980469 130.277344 110.96875 L 132.535156 110.910156 C 132.757812 110.910156 132.96875 110.992188 133.121094 111.15625 C 133.28125 111.328125 133.359375 111.566406 133.335938 111.808594 L 131.535156 129.933594 C 131.492188 130.386719 131.117188 130.738281 130.679688 130.738281 " fill-opacity="1" fill-rule="nonzero"/><path fill="#ffffff" d="M 126.402344 111.957031 L 124.894531 129.824219 C 124.863281 130.210938 124.542969 130.519531 124.179688 130.515625 L 121.957031 130.488281 C 121.589844 130.480469 121.316406 130.160156 121.355469 129.769531 L 123.054688 111.902344 C 123.089844 111.519531 123.410156 111.21875 123.769531 111.222656 L 125.800781 111.246094 C 126.167969 111.253906 126.4375 111.570312 126.402344 111.957031 " fill-opacity="1" fill-rule="nonzero"/><path fill="#000000" d="M 123.761719 111.496094 C 123.542969 111.496094 123.351562 111.6875 123.328125 111.929688 L 121.628906 129.792969 C 121.617188 129.914062 121.652344 130.023438 121.722656 130.105469 C 121.765625 130.152344 121.84375 130.210938 121.960938 130.210938 L 124.183594 130.238281 C 124.183594 130.238281 124.1875 130.238281 124.1875 130.238281 C 124.402344 130.238281 124.601562 130.039062 124.621094 129.800781 L 126.128906 111.9375 C 126.140625 111.816406 126.105469 111.707031 126.035156 111.628906 C 125.992188 111.582031 125.914062 111.523438 125.796875 111.523438 L 123.765625 111.496094 C 123.761719 111.496094 123.761719 111.496094 123.761719 111.496094 Z M 124.1875 130.789062 C 124.183594 130.789062 124.179688 130.789062 124.175781 130.789062 L 121.953125 130.761719 C 121.707031 130.757812 121.480469 130.65625 121.316406 130.472656 C 121.140625 130.277344 121.058594 130.011719 121.082031 129.742188 L 122.78125 111.875 C 122.828125 111.355469 123.257812 110.945312 123.761719 110.945312 C 123.765625 110.945312 123.765625 110.945312 123.769531 110.945312 L 125.804688 110.972656 C 126.050781 110.976562 126.277344 111.078125 126.441406 111.261719 C 126.613281 111.449219 126.699219 111.714844 126.675781 111.980469 L 125.167969 129.847656 C 125.125 130.378906 124.695312 130.789062 124.1875 130.789062 " fill-opacity="1" fill-rule="nonzero"/><path fill="#ffffff" d="M 135.316406 175.480469 L 94.691406 175.480469 C 93.726562 175.480469 92.976562 174.644531 93.082031 173.683594 L 95.753906 149.253906 C 95.84375 148.433594 96.539062 147.808594 97.367188 147.808594 L 137.992188 147.808594 C 138.957031 147.808594 139.707031 148.648438 139.601562 149.605469 L 136.925781 174.035156 C 136.835938 174.859375 136.140625 175.480469 135.316406 175.480469 " fill-opacity="1" fill-rule="nonzero"/><path fill="#000000" d="M 97.367188 148.085938 C 96.675781 148.085938 96.105469 148.601562 96.027344 149.285156 L 93.351562 173.714844 C 93.3125 174.09375 93.433594 174.472656 93.691406 174.757812 C 93.945312 175.042969 94.308594 175.207031 94.691406 175.207031 L 135.316406 175.207031 C 136.003906 175.207031 136.578125 174.691406 136.652344 174.007812 L 139.328125 149.578125 C 139.367188 149.195312 139.246094 148.816406 138.992188 148.53125 C 138.734375 148.25 138.371094 148.085938 137.992188 148.085938 Z M 135.316406 175.753906 L 94.691406 175.753906 C 94.152344 175.753906 93.640625 175.523438 93.28125 175.125 C 92.921875 174.722656 92.75 174.1875 92.808594 173.652344 L 95.480469 149.222656 C 95.585938 148.261719 96.398438 147.535156 97.367188 147.535156 L 137.992188 147.535156 C 138.527344 147.535156 139.042969 147.765625 139.402344 148.164062 C 139.757812 148.566406 139.933594 149.101562 139.871094 149.636719 L 137.199219 174.066406 C 137.09375 175.027344 136.285156 175.753906 135.316406 175.753906 " fill-opacity="1" fill-rule="nonzero"/><path fill="#000000" d="M 108.167969 161.382812 L 114.109375 172.832031 C 114.382812 173.398438 115.207031 173.359375 115.554688 172.765625 L 128 151.457031 C 128.101562 151.28125 128.03125 151.070312 127.851562 151.019531 L 124.578125 150.089844 C 124.460938 150.054688 124.320312 150.113281 124.25 150.230469 L 115.636719 164.390625 C 115.488281 164.632812 115.148438 164.648438 115.035156 164.414062 L 112.101562 159.414062 C 111.972656 159.15625 111.65625 159.066406 111.382812 159.214844 L 108.363281 160.847656 C 108.167969 160.953125 108.078125 161.195312 108.167969 161.382812 " fill-opacity="1" fill-rule="nonzero"/><path fill="#ffffff" d="M 156.988281 84.964844 L 88.558594 84.964844 L 89.765625 74.144531 L 158.195312 74.144531 L 156.988281 84.964844 " fill-opacity="1" fill-rule="nonzero"/><path fill="#000000" d="M 88.867188 84.691406 L 156.742188 84.691406 L 157.890625 74.417969 L 90.011719 74.417969 Z M 156.988281 85.238281 L 88.558594 85.238281 C 88.480469 85.238281 88.40625 85.207031 88.351562 85.148438 C 88.300781 85.089844 88.277344 85.011719 88.285156 84.933594 L 89.492188 74.113281 C 89.507812 73.976562 89.625 73.871094 89.765625 73.871094 L 158.195312 73.871094 C 158.273438 73.871094 158.351562 73.902344 158.402344 73.960938 C 158.453125 74.019531 158.476562 74.097656 158.46875 74.175781 L 157.261719 84.996094 C 157.246094 85.132812 157.128906 85.238281 156.988281 85.238281 " fill-opacity="1" fill-rule="nonzero"/><path fill="#ffffff" d="M 158.671875 69.898438 L 90.242188 69.898438 L 91.453125 59.039062 L 159.882812 59.039062 L 158.671875 69.898438 " fill-opacity="1" fill-rule="nonzero"/><path fill="#000000" d="M 90.546875 69.625 L 158.425781 69.625 L 159.574219 59.316406 L 91.695312 59.316406 Z M 158.671875 70.171875 L 90.238281 70.171875 C 90.164062 70.171875 90.089844 70.140625 90.035156 70.082031 C 89.984375 70.023438 89.957031 69.945312 89.96875 69.867188 L 91.179688 59.007812 C 91.195312 58.871094 91.3125 58.765625 91.453125 58.765625 L 159.882812 58.765625 C 159.960938 58.765625 160.035156 58.796875 160.089844 58.855469 C 160.140625 58.914062 160.164062 58.992188 160.15625 59.070312 L 158.945312 69.929688 C 158.929688 70.066406 158.8125 70.171875 158.671875 70.171875 " fill-opacity="1" fill-rule="nonzero"/><path fill="#000000" d="M 196.703125 99.355469 C 196.550781 99.355469 196.425781 99.230469 196.425781 99.078125 L 196.425781 96.945312 C 196.425781 96.796875 196.550781 96.671875 196.703125 96.671875 C 196.851562 96.671875 196.976562 96.796875 196.976562 96.945312 L 196.976562 99.078125 C 196.976562 99.230469 196.851562 99.355469 196.703125 99.355469 " fill-opacity="1" fill-rule="nonzero"/><path fill="#000000" d="M 196.703125 104.316406 C 196.550781 104.316406 196.425781 104.195312 196.425781 104.042969 L 196.425781 101.910156 C 196.425781 101.757812 196.550781 101.636719 196.703125 101.636719 C 196.851562 101.636719 196.976562 101.757812 196.976562 101.910156 L 196.976562 104.042969 C 196.976562 104.195312 196.851562 104.316406 196.703125 104.316406 " fill-opacity="1" fill-rule="nonzero"/><path fill="#000000" d="M 195.285156 100.765625 L 193.15625 100.765625 C 193.003906 100.765625 192.882812 100.644531 192.882812 100.492188 C 192.882812 100.339844 193.003906 100.21875 193.15625 100.21875 L 195.285156 100.21875 C 195.441406 100.21875 195.5625 100.339844 195.5625 100.492188 C 195.5625 100.644531 195.441406 100.765625 195.285156 100.765625 " fill-opacity="1" fill-rule="nonzero"/><path fill="#000000" d="M 200.25 100.769531 L 198.117188 100.769531 C 197.964844 100.769531 197.84375 100.644531 197.84375 100.496094 C 197.84375 100.34375 197.964844 100.21875 198.117188 100.21875 L 200.25 100.21875 C 200.398438 100.21875 200.523438 100.34375 200.523438 100.496094 C 200.523438 100.644531 200.398438 100.769531 200.25 100.769531 " fill-opacity="1" fill-rule="nonzero"/><path fill="#000000" d="M 57.027344 60.335938 C 56.875 60.335938 56.75 60.214844 56.75 60.0625 L 56.75 57.933594 C 56.75 57.78125 56.875 57.65625 57.027344 57.65625 C 57.175781 57.65625 57.300781 57.78125 57.300781 57.933594 L 57.300781 60.0625 C 57.300781 60.214844 57.175781 60.335938 57.027344 60.335938 " fill-opacity="1" fill-rule="nonzero"/><path fill="#000000" d="M 57.027344 65.300781 C 56.875 65.300781 56.75 65.175781 56.75 65.027344 L 56.75 62.894531 C 56.75 62.742188 56.875 62.621094 57.027344 62.621094 C 57.175781 62.621094 57.300781 62.742188 57.300781 62.894531 L 57.300781 65.027344 C 57.300781 65.175781 57.175781 65.300781 57.027344 65.300781 " fill-opacity="1" fill-rule="nonzero"/><path fill="#000000" d="M 55.609375 61.753906 L 53.476562 61.753906 C 53.328125 61.753906 53.203125 61.628906 53.203125 61.480469 C 53.203125 61.328125 53.328125 61.203125 53.476562 61.203125 L 55.609375 61.203125 C 55.761719 61.203125 55.882812 61.328125 55.882812 61.480469 C 55.882812 61.628906 55.761719 61.753906 55.609375 61.753906 " fill-opacity="1" fill-rule="nonzero"/><path fill="#000000" d="M 60.574219 61.753906 L 58.441406 61.753906 C 58.289062 61.753906 58.167969 61.628906 58.167969 61.480469 C 58.167969 61.328125 58.289062 61.203125 58.441406 61.203125 L 60.574219 61.203125 C 60.722656 61.203125 60.847656 61.328125 60.847656 61.480469 C 60.847656 61.628906 60.722656 61.753906 60.574219 61.753906 " fill-opacity="1" fill-rule="nonzero"/><path fill="#000000" d="M 29.453125 40.582031 C 29.402344 40.582031 29.347656 40.566406 29.304688 40.539062 C 29.175781 40.457031 29.140625 40.285156 29.222656 40.15625 C 34.132812 32.605469 42.660156 21.773438 59.976562 14.953125 C 60.117188 14.898438 60.277344 14.964844 60.332031 15.105469 C 60.386719 15.246094 60.320312 15.40625 60.175781 15.464844 C 43.007812 22.226562 34.550781 32.96875 29.683594 40.457031 C 29.628906 40.539062 29.542969 40.582031 29.453125 40.582031 " fill-opacity="1" fill-rule="nonzero"/><path fill="#000000" d="M 23.796875 39.179688 C 23.761719 39.179688 23.726562 39.171875 23.691406 39.15625 C 23.550781 39.097656 23.484375 38.9375 23.542969 38.796875 C 23.566406 38.742188 26.011719 32.972656 32.667969 26.164062 C 38.800781 19.894531 49.875 11.417969 67.804688 6.65625 C 67.953125 6.617188 68.101562 6.703125 68.140625 6.847656 C 68.179688 6.996094 68.09375 7.144531 67.945312 7.183594 C 50.152344 11.914062 39.164062 20.3125 33.082031 26.527344 C 26.488281 33.261719 24.074219 38.953125 24.050781 39.007812 C 24.003906 39.113281 23.902344 39.179688 23.796875 39.179688 " fill-opacity="1" fill-rule="nonzero"/><path fill="#000000" d="M 207.375 139.984375 C 207.34375 139.984375 207.316406 139.980469 207.285156 139.96875 C 207.140625 139.917969 207.066406 139.761719 207.117188 139.621094 C 215.09375 116.574219 214.160156 98.8125 211.972656 87.96875 C 209.601562 76.238281 205.308594 69.882812 205.265625 69.820312 C 205.179688 69.695312 205.210938 69.523438 205.335938 69.4375 C 205.460938 69.351562 205.632812 69.386719 205.71875 69.511719 C 205.757812 69.574219 210.121094 76.019531 212.507812 87.859375 C 214.710938 98.769531 215.652344 116.636719 207.632812 139.800781 C 207.59375 139.914062 207.488281 139.984375 207.375 139.984375 " fill-opacity="1" fill-rule="nonzero"/><path fill="#000000" d="M 215.40625 131.195312 C 215.386719 131.195312 215.363281 131.191406 215.34375 131.1875 C 215.195312 131.152344 215.105469 131.003906 215.140625 130.855469 C 220.902344 107.230469 218.441406 89.847656 215.363281 79.421875 C 212.027344 68.132812 207.269531 62.347656 207.222656 62.292969 C 207.125 62.175781 207.140625 62.003906 207.257812 61.90625 C 207.375 61.808594 207.546875 61.824219 207.644531 61.941406 C 207.695312 61.996094 212.511719 67.847656 215.878906 79.234375 C 218.984375 89.726562 221.46875 107.222656 215.671875 130.984375 C 215.644531 131.113281 215.53125 131.195312 215.40625 131.195312 " fill-opacity="1" fill-rule="nonzero"/><path fill="#000000" d="M 216 68.25 C 215.964844 68.25 215.929688 68.246094 215.894531 68.230469 C 215.753906 68.171875 215.6875 68.011719 215.746094 67.871094 C 216.085938 67.050781 216.125 66.414062 215.867188 65.976562 C 215.703125 65.707031 215.484375 65.613281 215.207031 65.496094 C 214.921875 65.378906 214.601562 65.246094 214.324219 64.90625 C 213.789062 64.253906 213.941406 63.5 214.074219 62.835938 C 214.1875 62.265625 214.296875 61.726562 214.027344 61.257812 C 213.710938 60.707031 213.089844 60.625 212.363281 60.53125 C 211.609375 60.4375 210.757812 60.324219 210.210938 59.585938 C 209.597656 58.753906 209.839844 57.78125 210.070312 56.84375 C 210.285156 55.984375 210.484375 55.175781 210.015625 54.554688 C 209.621094 54.035156 208.996094 53.933594 208.332031 53.828125 C 207.628906 53.714844 206.898438 53.597656 206.5 52.933594 C 205.988281 52.089844 206.277344 50.839844 207.386719 49.109375 C 207.46875 48.984375 207.636719 48.945312 207.765625 49.027344 C 207.894531 49.109375 207.929688 49.277344 207.847656 49.40625 C 206.894531 50.898438 206.589844 52.019531 206.96875 52.648438 C 207.238281 53.09375 207.785156 53.183594 208.421875 53.285156 C 209.128906 53.398438 209.925781 53.527344 210.453125 54.222656 C 211.078125 55.050781 210.839844 56.03125 210.605469 56.972656 C 210.394531 57.828125 210.195312 58.636719 210.65625 59.261719 C 211.058594 59.8125 211.730469 59.894531 212.4375 59.988281 C 213.230469 60.089844 214.054688 60.195312 214.503906 60.984375 C 214.875 61.632812 214.738281 62.328125 214.613281 62.945312 C 214.488281 63.566406 214.378906 64.109375 214.746094 64.554688 C 214.941406 64.792969 215.160156 64.882812 215.417969 64.992188 C 215.730469 65.121094 216.082031 65.269531 216.339844 65.695312 C 216.691406 66.289062 216.664062 67.089844 216.253906 68.082031 C 216.210938 68.1875 216.109375 68.25 216 68.25 " fill-opacity="1" fill-rule="nonzero"/><path fill="#000000" d="M 20.304688 41.589844 L 21.679688 46.179688 L 24.953125 42.105469 Z M 21.566406 47.035156 C 21.550781 47.035156 21.53125 47.035156 21.515625 47.03125 C 21.414062 47.011719 21.332031 46.9375 21.304688 46.839844 L 19.660156 41.351562 C 19.632812 41.261719 19.652344 41.167969 19.714844 41.09375 C 19.773438 41.023438 19.863281 40.988281 19.953125 40.996094 L 25.511719 41.613281 C 25.609375 41.625 25.695312 41.6875 25.734375 41.78125 C 25.773438 41.875 25.757812 41.980469 25.695312 42.058594 L 21.78125 46.933594 C 21.726562 47 21.648438 47.035156 21.566406 47.035156 " fill-opacity="1" fill-rule="nonzero"/><path fill="#ffffff" d="M 43.464844 206.84375 L 41.457031 220.015625 L 36.59375 217.542969 L 37.984375 204.402344 L 43.464844 206.84375 " fill-opacity="1" fill-rule="nonzero"/><path fill="#000000" d="M 36.890625 217.382812 L 41.242188 219.597656 L 43.164062 207.011719 L 38.21875 204.804688 Z M 41.457031 220.289062 C 41.414062 220.289062 41.371094 220.277344 41.332031 220.257812 L 36.472656 217.785156 C 36.371094 217.734375 36.3125 217.625 36.324219 217.511719 L 37.710938 204.371094 C 37.722656 204.285156 37.769531 204.207031 37.847656 204.164062 C 37.921875 204.121094 38.015625 204.113281 38.097656 204.152344 L 43.578125 206.59375 C 43.691406 206.644531 43.757812 206.765625 43.738281 206.886719 L 41.730469 220.058594 C 41.714844 220.144531 41.660156 220.21875 41.582031 220.257812 C 41.542969 220.277344 41.5 220.289062 41.457031 220.289062 " fill-opacity="1" fill-rule="nonzero"/><g clip-path="url(#4f6f581b35)"><path fill="#ffffff" d="M 42.710938 215.03125 C 43.265625 216.300781 43.792969 218.703125 44.324219 221.832031 C 44.578125 223.3125 43.414062 224.664062 41.890625 224.664062 L 24.007812 224.664062 C 22.773438 224.664062 22.195312 223.164062 23.113281 222.351562 C 26.671875 219.207031 32.121094 215.722656 36.828125 213.671875 L 38.621094 216.207031 C 38.621094 216.207031 42.554688 214.675781 42.710938 215.03125 " fill-opacity="1" fill-rule="nonzero"/><path fill="#000000" d="M 42.578125 215.253906 L 42.582031 215.253906 Z M 36.730469 214.011719 C 32.203125 216.019531 26.832031 219.433594 23.292969 222.558594 C 22.894531 222.914062 22.882812 223.382812 23.007812 223.707031 C 23.132812 224.039062 23.460938 224.390625 24.007812 224.390625 L 41.890625 224.390625 C 42.546875 224.390625 43.160156 224.105469 43.578125 223.609375 C 43.988281 223.128906 44.160156 222.496094 44.054688 221.878906 C 43.484375 218.535156 42.992188 216.421875 42.503906 215.25 C 42.03125 215.273438 40.234375 215.875 38.722656 216.464844 C 38.605469 216.507812 38.472656 216.46875 38.398438 216.367188 Z M 41.890625 224.941406 L 24.007812 224.941406 C 23.328125 224.941406 22.730469 224.53125 22.492188 223.902344 C 22.253906 223.269531 22.421875 222.597656 22.929688 222.148438 C 26.558594 218.941406 32.097656 215.433594 36.71875 213.421875 C 36.835938 213.367188 36.976562 213.40625 37.050781 213.511719 L 38.722656 215.875 C 42.707031 214.335938 42.859375 214.6875 42.960938 214.921875 C 43.480469 216.109375 44 218.289062 44.597656 221.785156 C 44.730469 222.5625 44.511719 223.355469 44 223.964844 C 43.476562 224.585938 42.707031 224.941406 41.890625 224.941406 " fill-opacity="1" fill-rule="nonzero"/></g><path fill="#000000" d="M 41.695312 222.902344 L 25.703125 222.902344 C 25.550781 222.902344 25.429688 222.78125 25.429688 222.628906 C 25.429688 222.476562 25.550781 222.351562 25.703125 222.351562 L 41.695312 222.351562 C 41.847656 222.351562 41.972656 222.476562 41.972656 222.628906 C 41.972656 222.78125 41.847656 222.902344 41.695312 222.902344 " fill-opacity="1" fill-rule="nonzero"/><path fill="#000000" d="M 34.613281 219.621094 C 34.519531 219.621094 34.425781 219.570312 34.375 219.484375 L 32.539062 216.375 C 32.460938 216.242188 32.507812 216.074219 32.636719 215.996094 C 32.765625 215.921875 32.9375 215.964844 33.011719 216.09375 L 34.847656 219.207031 C 34.925781 219.335938 34.882812 219.503906 34.75 219.582031 C 34.707031 219.609375 34.660156 219.621094 34.613281 219.621094 " fill-opacity="1" fill-rule="nonzero"/><path fill="#000000" d="M 31.921875 220.074219 C 31.824219 220.074219 31.730469 220.023438 31.679688 219.933594 L 30.492188 217.804688 C 30.417969 217.671875 30.464844 217.503906 30.597656 217.429688 C 30.730469 217.355469 30.898438 217.402344 30.972656 217.535156 L 32.160156 219.664062 C 32.234375 219.796875 32.1875 219.964844 32.054688 220.039062 C 32.011719 220.0625 31.96875 220.074219 31.921875 220.074219 " fill-opacity="1" fill-rule="nonzero"/><path fill="#ffffff" d="M 47.398438 180.273438 C 48.671875 179.726562 51.074219 179.214844 54.207031 178.695312 C 55.691406 178.453125 57.035156 179.625 57.027344 181.148438 L 56.925781 199.03125 C 56.917969 200.261719 55.414062 200.835938 54.609375 199.914062 C 51.484375 196.335938 48.027344 190.867188 46.003906 186.148438 L 48.550781 184.367188 C 48.550781 184.367188 47.042969 180.425781 47.398438 180.273438 " fill-opacity="1" fill-rule="nonzero"/><path fill="#000000" d="M 47.507812 180.527344 Z M 46.347656 186.246094 C 48.324219 190.785156 51.707031 196.179688 54.816406 199.734375 C 55.167969 200.132812 55.636719 200.148438 55.960938 200.027344 C 56.292969 199.902344 56.648438 199.578125 56.652344 199.03125 L 56.75 181.144531 C 56.753906 180.492188 56.472656 179.875 55.980469 179.453125 C 55.5 179.042969 54.867188 178.863281 54.25 178.96875 C 50.90625 179.519531 48.789062 180 47.617188 180.480469 C 47.636719 180.953125 48.226562 182.753906 48.808594 184.269531 C 48.851562 184.386719 48.8125 184.519531 48.707031 184.59375 Z M 55.585938 200.644531 C 55.140625 200.644531 54.714844 200.453125 54.402344 200.09375 C 51.214844 196.449219 47.738281 190.886719 45.753906 186.257812 C 45.699219 186.136719 45.742188 186 45.847656 185.925781 L 48.21875 184.265625 C 46.703125 180.273438 47.054688 180.121094 47.289062 180.023438 C 48.476562 179.507812 50.664062 179.003906 54.160156 178.425781 C 54.941406 178.296875 55.734375 178.519531 56.335938 179.035156 C 56.953125 179.5625 57.304688 180.332031 57.300781 181.148438 L 57.199219 199.035156 C 57.195312 199.714844 56.785156 200.304688 56.152344 200.542969 C 55.964844 200.609375 55.773438 200.644531 55.585938 200.644531 " fill-opacity="1" fill-rule="nonzero"/><path fill="#000000" d="M 54.898438 197.597656 C 54.746094 197.597656 54.621094 197.472656 54.625 197.320312 L 54.714844 181.328125 C 54.714844 181.179688 54.835938 181.054688 54.988281 181.054688 C 55.140625 181.054688 55.261719 181.179688 55.261719 181.332031 L 55.171875 197.324219 C 55.171875 197.476562 55.050781 197.597656 54.898438 197.597656 " fill-opacity="1" fill-rule="nonzero"/><path fill="#000000" d="M 48.542969 190.488281 C 48.449219 190.488281 48.355469 190.441406 48.304688 190.351562 C 48.230469 190.222656 48.273438 190.054688 48.40625 189.976562 L 51.527344 188.160156 C 51.65625 188.082031 51.828125 188.128906 51.902344 188.257812 C 51.980469 188.390625 51.933594 188.558594 51.804688 188.632812 L 48.679688 190.453125 C 48.636719 190.476562 48.589844 190.488281 48.542969 190.488281 " fill-opacity="1" fill-rule="nonzero"/><path fill="#000000" d="M 49.96875 192.542969 C 49.871094 192.542969 49.777344 192.492188 49.726562 192.398438 C 49.652344 192.265625 49.699219 192.101562 49.835938 192.027344 L 51.972656 190.847656 C 52.105469 190.777344 52.273438 190.824219 52.34375 190.957031 C 52.417969 191.089844 52.371094 191.257812 52.238281 191.328125 L 50.097656 192.507812 C 50.058594 192.53125 50.011719 192.542969 49.96875 192.542969 " fill-opacity="1" fill-rule="nonzero"/><path fill="#000000" d="M 32.5625 122.726562 C 32.5625 122.726562 17.875 142.546875 13.25 155.582031 C 12.371094 158.058594 13.050781 160.820312 14.976562 162.609375 C 20.359375 167.59375 31.863281 178.128906 39.25 184.007812 L 41.457031 178.40625 C 41.457031 178.40625 38.792969 165.433594 28.789062 159.59375 L 41.199219 141.085938 L 43.933594 126.683594 L 32.5625 122.726562 " fill-opacity="1" fill-rule="nonzero"/><path fill="#000000" d="M 46.535156 126.152344 C 50.917969 126.949219 53.890625 131.066406 53.257812 135.480469 C 51.878906 145.125 49.691406 160.804688 49.273438 166.085938 C 48.660156 173.921875 50.242188 182.640625 50.546875 189.035156 C 50.851562 195.433594 43.59375 210.304688 43.59375 210.304688 L 36.59375 209.820312 L 35.296875 137.015625 L 33.414062 123.679688 L 46.535156 126.152344 " fill-opacity="1" fill-rule="nonzero"/><path fill="#ffffff" d="M 35.765625 183.378906 C 35.617188 183.378906 35.492188 183.261719 35.492188 183.109375 L 35.308594 171.589844 C 35.304688 171.4375 35.425781 171.3125 35.578125 171.308594 C 35.578125 171.308594 35.578125 171.308594 35.582031 171.308594 C 35.730469 171.308594 35.851562 171.429688 35.855469 171.582031 L 36.042969 183.101562 C 36.042969 183.253906 35.921875 183.378906 35.769531 183.378906 C 35.769531 183.378906 35.765625 183.378906 35.765625 183.378906 " fill-opacity="1" fill-rule="nonzero"/><path fill="#ffffff" d="M 35.199219 151.578125 C 35.046875 151.578125 34.921875 151.457031 34.921875 151.308594 L 34.894531 146.058594 C 34.882812 144.019531 33.886719 142.09375 32.226562 140.902344 L 31.867188 140.640625 C 31.742188 140.550781 31.714844 140.378906 31.804688 140.257812 C 31.890625 140.132812 32.0625 140.105469 32.1875 140.195312 L 32.546875 140.453125 C 34.347656 141.75 35.429688 143.84375 35.441406 146.058594 L 35.472656 151.304688 C 35.472656 151.457031 35.351562 151.578125 35.199219 151.578125 " fill-opacity="1" fill-rule="nonzero"/><path fill="#000000" d="M 33.667969 71.8125 C 36.253906 69.011719 40.097656 68.425781 42.988281 69.214844 C 46.648438 70.214844 48.492188 73.378906 49.792969 75.609375 C 52.09375 79.554688 50.984375 80.984375 52.789062 83.277344 C 55.992188 87.335938 61.011719 84.800781 64.910156 87.765625 C 70.863281 92.289062 71.671875 107.640625 63.617188 113.484375 C 58.246094 117.382812 50.941406 115.128906 48.953125 114.515625 C 42.921875 112.652344 35.417969 107.457031 34.339844 100.414062 C 33.449219 94.589844 37.285156 89.746094 34.074219 84.863281 C 33.257812 83.621094 32.582031 83.285156 31.972656 81.730469 C 30.988281 79.207031 30.765625 74.953125 33.667969 71.8125 " fill-opacity="1" fill-rule="nonzero"/><path fill="#000000" d="M 41.46875 72.503906 C 40.09375 71.390625 40.960938 68.101562 41.84375 66.324219 C 42.171875 65.660156 43.648438 62.6875 45.585938 62.804688 C 47.578125 62.921875 49.488281 66.265625 48.777344 68.914062 C 47.886719 72.226562 43.078125 73.808594 41.46875 72.503906 " fill-opacity="1" fill-rule="nonzero"/><path fill="#000000" d="M 16.328125 99.921875 L 11.207031 99.953125 L 5 89.050781 L 10.039062 89.011719 L 16.328125 99.921875 " fill-opacity="1" fill-rule="nonzero"/><path fill="#ffffff" d="M 35.925781 93.320312 C 32.625 93.414062 29.09375 101.441406 21.226562 106.625 C 20.414062 107.160156 19.496094 107.488281 18.738281 106.871094 C 16.203125 104.8125 11.011719 100.324219 10.175781 97.46875 C 10.007812 96.894531 9.714844 93.453125 8.546875 92.027344 C 7.816406 91.132812 7.175781 92.1875 7.175781 92.1875 C 7.175781 92.1875 3.738281 96.863281 7.492188 99.777344 C 8.058594 100.214844 8.507812 100.78125 8.820312 101.425781 C 10.21875 104.296875 14.691406 111.871094 16.703125 114.222656 C 19.328125 117.289062 20.300781 117.183594 22.933594 115.785156 L 34.980469 108.683594 C 34.980469 108.683594 38.152344 93.257812 35.925781 93.320312 " fill-opacity="1" fill-rule="nonzero"/><path fill="#000000" d="M 7.933594 91.941406 C 7.925781 91.941406 7.917969 91.941406 7.914062 91.941406 C 7.6875 91.957031 7.46875 92.234375 7.410156 92.328125 C 7.261719 92.53125 4.164062 96.84375 7.664062 99.5625 C 8.246094 100.015625 8.734375 100.617188 9.066406 101.304688 C 10.394531 104.035156 14.863281 111.652344 16.910156 114.042969 C 19.519531 117.089844 20.34375 116.847656 22.804688 115.542969 L 34.738281 108.511719 C 35.832031 103.148438 37.082031 94.863281 36.089844 93.679688 C 36.023438 93.605469 35.972656 93.589844 35.933594 93.597656 C 34.433594 93.636719 32.746094 95.613281 30.609375 98.113281 C 28.292969 100.824219 25.410156 104.199219 21.378906 106.851562 C 20.242188 107.601562 19.296875 107.679688 18.566406 107.085938 C 15.695312 104.753906 10.75 100.410156 9.910156 97.546875 C 9.871094 97.402344 9.828125 97.136719 9.765625 96.765625 C 9.566406 95.539062 9.195312 93.253906 8.335938 92.199219 C 8.195312 92.027344 8.058594 91.941406 7.933594 91.941406 Z M 20.246094 117 C 19.085938 117 18.066406 116.238281 16.496094 114.402344 C 14.421875 111.980469 9.910156 104.292969 8.574219 101.546875 C 8.277344 100.933594 7.84375 100.398438 7.324219 99.996094 C 3.402344 96.953125 6.917969 92.070312 6.953125 92.023438 C 6.976562 91.980469 7.328125 91.429688 7.875 91.394531 C 8.191406 91.371094 8.492188 91.527344 8.761719 91.851562 C 9.714844 93.019531 10.101562 95.402344 10.308594 96.679688 C 10.359375 97.003906 10.40625 97.28125 10.4375 97.390625 C 11.265625 100.214844 16.640625 104.8125 18.910156 106.660156 C 19.441406 107.089844 20.152344 107.003906 21.078125 106.394531 C 25.042969 103.78125 27.898438 100.441406 30.191406 97.757812 C 32.503906 95.050781 34.171875 93.097656 35.917969 93.046875 C 36.144531 93.046875 36.351562 93.136719 36.507812 93.324219 C 38 95.101562 35.535156 107.347656 35.25 108.738281 C 35.234375 108.816406 35.1875 108.882812 35.121094 108.921875 L 23.074219 116.019531 C 21.910156 116.640625 21.042969 117 20.246094 117 " fill-opacity="1" fill-rule="nonzero"/><path fill="#ffffff" d="M 55 92.960938 C 55 92.960938 46.027344 88.050781 35.628906 92.226562 C 34.953125 92.5 34.53125 93.179688 34.597656 93.90625 C 34.683594 94.890625 34.554688 96.410156 33.410156 98.007812 C 28.988281 104.1875 31.636719 106.769531 30.875 109.84375 C 29.328125 116.082031 27.808594 120.007812 24.578125 128.289062 C 23.363281 131.410156 28.320312 131.414062 32.542969 130.742188 C 36.765625 130.066406 47.128906 130.074219 51.46875 132.460938 C 55.8125 134.851562 56.257812 129.003906 55.769531 125.105469 C 55.28125 121.207031 55 92.960938 55 92.960938 " fill-opacity="1" fill-rule="nonzero"/><path fill="#000000" d="M 38.671875 130.074219 C 43.285156 130.074219 48.703125 130.628906 51.601562 132.222656 C 52.6875 132.820312 53.566406 132.902344 54.207031 132.46875 C 55.710938 131.449219 55.839844 127.882812 55.496094 125.140625 C 55.027344 121.382812 54.753906 95.679688 54.730469 93.128906 C 53.550781 92.539062 45.183594 88.683594 35.734375 92.480469 C 35.160156 92.710938 34.816406 93.273438 34.871094 93.882812 C 34.964844 94.921875 34.824219 96.503906 33.632812 98.167969 C 30.675781 102.304688 30.941406 104.75 31.175781 106.910156 C 31.289062 107.925781 31.394531 108.886719 31.140625 109.910156 C 29.566406 116.253906 27.984375 120.3125 24.835938 128.390625 C 24.585938 129.027344 24.609375 129.515625 24.910156 129.890625 C 25.710938 130.882812 28.550781 131.101562 32.5 130.46875 C 33.996094 130.230469 36.21875 130.074219 38.671875 130.074219 Z M 53.28125 133.292969 C 52.703125 133.292969 52.054688 133.097656 51.335938 132.703125 C 47.066406 130.355469 36.710938 130.355469 32.585938 131.011719 C 30.113281 131.40625 25.769531 131.832031 24.484375 130.234375 C 24.054688 129.703125 24 129.015625 24.324219 128.191406 C 27.464844 120.132812 29.042969 116.089844 30.605469 109.777344 C 30.835938 108.851562 30.742188 107.980469 30.632812 106.96875 C 30.398438 104.824219 30.105469 102.15625 33.1875 97.851562 C 34.28125 96.324219 34.40625 94.878906 34.324219 93.933594 C 34.246094 93.082031 34.730469 92.292969 35.527344 91.972656 C 45.921875 87.792969 55.042969 92.667969 55.132812 92.71875 C 55.222656 92.765625 55.277344 92.859375 55.277344 92.957031 C 55.277344 93.238281 55.558594 121.234375 56.042969 125.070312 C 56.421875 128.109375 56.222656 131.765625 54.515625 132.921875 C 54.148438 133.171875 53.738281 133.292969 53.28125 133.292969 " fill-opacity="1" fill-rule="nonzero"/><path fill="#ffffff" d="M 52.46875 116.265625 L 42.546875 110.351562 C 41.324219 109.625 39.839844 109.488281 38.507812 109.984375 L 33.859375 111.710938 C 33.113281 111.988281 33.261719 113.074219 34.054688 113.148438 C 34.332031 113.175781 34.652344 113.15625 35.023438 113.058594 C 36.089844 112.789062 37.539062 112.808594 38.585938 113.664062 C 39.152344 114.125 39.824219 114.089844 40.324219 113.957031 C 40.800781 113.835938 41.300781 114.023438 41.585938 114.421875 C 43.578125 117.164062 50.777344 126.449219 57.242188 126.671875 C 63.40625 126.886719 61.414062 106.65625 59.382812 97.121094 C 58.988281 95.269531 56.929688 93.707031 55.160156 93.03125 L 52.890625 92.164062 L 54.050781 115.3125 C 54.09375 116.148438 53.1875 116.695312 52.46875 116.265625 " fill-opacity="1" fill-rule="nonzero"/><path fill="#000000" d="M 40.625 113.644531 C 41.085938 113.644531 41.527344 113.867188 41.808594 114.257812 C 43.835938 117.050781 50.933594 126.179688 57.25 126.398438 C 57.992188 126.421875 58.609375 126.128906 59.144531 125.492188 C 62.410156 121.601562 61.058594 106.296875 59.117188 97.179688 C 58.742188 95.425781 56.753906 93.933594 55.0625 93.285156 L 53.183594 92.570312 L 54.324219 115.300781 C 54.351562 115.792969 54.113281 116.242188 53.6875 116.5 C 53.261719 116.753906 52.753906 116.753906 52.328125 116.503906 L 42.40625 110.585938 C 41.25 109.898438 39.863281 109.773438 38.605469 110.238281 L 33.953125 111.96875 C 33.695312 112.0625 33.628906 112.289062 33.652344 112.46875 C 33.675781 112.648438 33.800781 112.851562 34.078125 112.875 C 34.347656 112.902344 34.640625 112.875 34.953125 112.792969 C 35.488281 112.65625 37.347656 112.300781 38.761719 113.453125 C 39.148438 113.769531 39.652344 113.851562 40.253906 113.691406 C 40.378906 113.660156 40.5 113.644531 40.625 113.644531 Z M 57.339844 126.949219 C 57.304688 126.949219 57.269531 126.949219 57.230469 126.949219 C 50.667969 126.71875 43.429688 117.425781 41.367188 114.582031 C 41.144531 114.273438 40.753906 114.128906 40.394531 114.226562 C 39.621094 114.425781 38.9375 114.308594 38.414062 113.878906 C 37.203125 112.886719 35.5625 113.207031 35.089844 113.324219 C 34.714844 113.421875 34.359375 113.453125 34.027344 113.421875 C 33.542969 113.378906 33.171875 113.019531 33.109375 112.539062 C 33.042969 112.058594 33.308594 111.621094 33.761719 111.453125 L 38.414062 109.726562 C 39.828125 109.199219 41.386719 109.339844 42.6875 110.113281 L 52.609375 116.027344 C 52.855469 116.179688 53.15625 116.179688 53.402344 116.027344 C 53.652344 115.878906 53.792969 115.617188 53.777344 115.328125 L 52.617188 92.179688 C 52.609375 92.085938 52.652344 91.996094 52.726562 91.941406 C 52.804688 91.886719 52.902344 91.875 52.988281 91.90625 L 55.257812 92.773438 C 57.082031 93.46875 59.238281 95.109375 59.652344 97.066406 C 61.242188 104.527344 63.308594 121.378906 59.5625 125.847656 C 58.949219 126.578125 58.203125 126.949219 57.339844 126.949219 " fill-opacity="1" fill-rule="nonzero"/><path fill="#ffffff" d="M 39.074219 86.117188 C 38.46875 86.425781 37.726562 86.316406 37.242188 85.839844 C 36.675781 85.273438 36.21875 84.671875 35.847656 84.0625 L 35.140625 84.074219 C 34.917969 84.082031 34.730469 83.902344 34.71875 83.679688 L 34.597656 80.921875 C 32.976562 78.277344 34.253906 76.859375 34.253906 76.859375 C 35.058594 75.457031 37.820312 74.675781 39.71875 77.308594 C 40.375 78.21875 41.40625 77.542969 41.964844 77.054688 C 42.195312 76.855469 42.378906 76.605469 42.527344 76.339844 C 42.902344 75.640625 43.851562 74.195312 44.605469 75.558594 C 46.21875 78.480469 43.894531 80.777344 43.894531 80.777344 L 45.59375 88.015625 C 45.984375 89.6875 47.179688 91.054688 48.78125 91.667969 L 50.414062 92.292969 C 50.414062 92.292969 47.863281 100.644531 40.640625 100.492188 C 35.128906 100.375 37.507812 92.925781 37.507812 92.925781 L 38.230469 92.605469 C 40.125 91.769531 41.164062 89.710938 40.703125 87.691406 L 40.21875 85.546875 L 39.074219 86.117188 " fill-opacity="1" fill-rule="nonzero"/><path fill="#000000" d="M 39.074219 86.117188 L 39.078125 86.117188 Z M 37.734375 93.125 C 37.542969 93.792969 36.671875 97.175781 37.980469 99.007812 C 38.535156 99.785156 39.433594 100.191406 40.648438 100.21875 C 46.890625 100.34375 49.578125 93.808594 50.066406 92.457031 L 48.683594 91.925781 C 46.992188 91.277344 45.738281 89.839844 45.324219 88.082031 L 43.625 80.839844 C 43.605469 80.746094 43.632812 80.648438 43.699219 80.582031 C 43.789062 80.496094 45.855469 78.390625 44.363281 75.691406 C 44.257812 75.5 44.089844 75.269531 43.898438 75.269531 C 43.601562 75.269531 43.167969 75.730469 42.765625 76.46875 C 42.597656 76.785156 42.386719 77.050781 42.144531 77.261719 C 41.699219 77.652344 41.035156 78.097656 40.386719 78.023438 C 40.03125 77.984375 39.730469 77.796875 39.496094 77.46875 C 38.699219 76.367188 37.65625 75.785156 36.554688 75.847656 C 35.675781 75.890625 34.867188 76.34375 34.488281 76.996094 C 34.480469 77.011719 34.46875 77.03125 34.457031 77.042969 C 34.410156 77.09375 33.347656 78.359375 34.832031 80.78125 C 34.855469 80.820312 34.871094 80.863281 34.871094 80.910156 L 34.992188 83.667969 C 34.996094 83.742188 35.0625 83.796875 35.136719 83.800781 L 35.839844 83.785156 C 35.941406 83.785156 36.03125 83.835938 36.082031 83.917969 C 36.46875 84.550781 36.921875 85.132812 37.4375 85.644531 C 37.832031 86.039062 38.441406 86.128906 38.953125 85.875 L 40.097656 85.300781 C 40.171875 85.261719 40.261719 85.261719 40.335938 85.296875 C 40.414062 85.332031 40.46875 85.402344 40.488281 85.484375 L 40.972656 87.628906 C 41.457031 89.769531 40.351562 91.972656 38.339844 92.859375 Z M 40.835938 100.769531 C 40.769531 100.769531 40.703125 100.769531 40.636719 100.765625 C 39.238281 100.734375 38.195312 100.25 37.535156 99.328125 C 35.921875 97.070312 37.191406 93.015625 37.246094 92.84375 C 37.269531 92.765625 37.324219 92.707031 37.394531 92.671875 L 38.121094 92.355469 C 39.890625 91.574219 40.863281 89.636719 40.4375 87.75 L 40.027344 85.949219 L 39.199219 86.363281 C 38.476562 86.726562 37.613281 86.59375 37.050781 86.03125 C 36.542969 85.527344 36.085938 84.957031 35.695312 84.339844 L 35.148438 84.351562 C 34.78125 84.355469 34.460938 84.0625 34.445312 83.691406 L 34.324219 81.007812 C 32.765625 78.410156 33.851562 76.914062 34.027344 76.699219 C 34.5 75.902344 35.476562 75.351562 36.527344 75.296875 C 37.273438 75.257812 38.714844 75.449219 39.941406 77.148438 C 40.085938 77.347656 40.25 77.457031 40.449219 77.480469 C 40.796875 77.515625 41.273438 77.292969 41.785156 76.847656 C 41.976562 76.679688 42.144531 76.464844 42.285156 76.207031 C 42.652344 75.53125 43.230469 74.722656 43.894531 74.71875 C 43.894531 74.71875 43.898438 74.71875 43.898438 74.71875 C 44.269531 74.71875 44.585938 74.957031 44.847656 75.425781 C 46.332031 78.113281 44.648438 80.332031 44.195312 80.855469 L 45.859375 87.957031 C 46.230469 89.539062 47.359375 90.832031 48.878906 91.414062 L 50.511719 92.039062 C 50.644531 92.089844 50.71875 92.238281 50.675781 92.375 C 50.648438 92.457031 48.027344 100.769531 40.835938 100.769531 " fill-opacity="1" fill-rule="nonzero"/><path fill="#000000" d="M 39.464844 86.6875 C 39.363281 86.6875 39.265625 86.632812 39.21875 86.535156 C 39.152344 86.398438 39.207031 86.234375 39.34375 86.167969 C 41.214844 85.257812 41.460938 82.808594 41.460938 82.785156 C 41.476562 82.632812 41.609375 82.519531 41.761719 82.535156 C 41.910156 82.550781 42.023438 82.683594 42.007812 82.832031 C 42 82.945312 41.738281 85.613281 39.585938 86.660156 C 39.546875 86.679688 39.503906 86.6875 39.464844 86.6875 " fill-opacity="1" fill-rule="nonzero"/><path fill="#000000" d="M 196.011719 195.09375 C 196 195.09375 195.988281 195.09375 195.976562 195.09375 C 195.824219 195.074219 195.71875 194.9375 195.738281 194.785156 L 196.824219 186.203125 C 197.378906 181.835938 197.160156 177.445312 196.179688 173.152344 C 196.148438 173.007812 196.242188 172.859375 196.386719 172.824219 C 196.535156 172.789062 196.683594 172.882812 196.71875 173.03125 C 197.707031 177.386719 197.929688 181.839844 197.371094 186.269531 L 196.28125 194.855469 C 196.265625 194.992188 196.148438 195.09375 196.011719 195.09375 " fill-opacity="1" fill-rule="nonzero"/><path fill="#ffffff" d="M 191.847656 202.195312 L 191.925781 202.210938 C 191.917969 202.246094 191.90625 202.28125 191.898438 202.316406 Z M 203.558594 151.261719 C 203.410156 150.21875 201.984375 150.070312 201.632812 151.058594 C 199.777344 156.28125 197.058594 164.757812 196.148438 171.894531 C 195.546875 169.605469 194.734375 167.367188 193.707031 165.214844 C 189.160156 155.703125 188.804688 144.695312 192.722656 134.902344 L 196.089844 126.496094 C 196.515625 125.433594 195.160156 124.570312 194.394531 125.414062 L 189.667969 130.613281 C 178.949219 142.40625 175.328125 159.101562 180.1875 174.335938 L 181.816406 179.4375 C 179.5625 176.820312 176.597656 174.855469 173.226562 173.835938 L 168.269531 172.335938 C 167.066406 171.972656 166.261719 173.5625 167.253906 174.335938 L 170.300781 176.703125 C 173.601562 179.269531 175.570312 183.207031 175.65625 187.410156 C 175.710938 189.882812 176.414062 192.292969 177.695312 194.398438 L 182.621094 202.476562 L 191.625 203.285156 C 190.039062 208.898438 188.625 213.023438 188.625 213.023438 C 188.625 213.023438 194.503906 211.183594 204.140625 192.488281 C 212.273438 176.710938 205.023438 161.460938 203.558594 151.261719 " fill-opacity="1" fill-rule="nonzero"/><path fill="#000000" d="M 191.898438 202.59375 C 191.785156 202.59375 191.683594 202.523438 191.640625 202.414062 L 191.59375 202.296875 C 191.558594 202.203125 191.574219 202.097656 191.636719 202.019531 C 191.703125 201.941406 191.804688 201.90625 191.902344 201.925781 L 191.980469 201.941406 C 192.054688 201.957031 192.121094 202 192.160156 202.066406 C 192.199219 202.128906 192.210938 202.210938 192.191406 202.285156 L 192.164062 202.390625 C 192.128906 202.503906 192.03125 202.585938 191.910156 202.589844 C 191.90625 202.59375 191.902344 202.59375 191.898438 202.59375 Z M 182.78125 202.214844 L 191.652344 203.011719 C 191.734375 203.015625 191.804688 203.0625 191.851562 203.128906 C 191.898438 203.195312 191.910156 203.28125 191.890625 203.359375 C 190.675781 207.660156 189.550781 211.121094 189.09375 212.484375 C 190.765625 211.515625 196.121094 207.457031 203.894531 192.363281 C 210.140625 180.253906 207.253906 168.464844 204.9375 158.996094 C 204.257812 156.234375 203.621094 153.628906 203.289062 151.296875 C 203.226562 150.875 202.902344 150.695312 202.640625 150.671875 C 202.371094 150.644531 202.035156 150.753906 201.894531 151.148438 C 199.886719 156.792969 197.308594 164.976562 196.421875 171.925781 C 196.40625 172.058594 196.300781 172.15625 196.167969 172.167969 C 196.035156 172.171875 195.917969 172.089844 195.886719 171.960938 C 195.285156 169.671875 194.46875 167.441406 193.460938 165.332031 C 188.894531 155.769531 188.53125 144.644531 192.472656 134.800781 L 195.835938 126.394531 C 196.011719 125.957031 195.785156 125.621094 195.535156 125.46875 C 195.296875 125.316406 194.90625 125.261719 194.597656 125.597656 L 189.871094 130.796875 C 179.242188 142.492188 175.632812 159.144531 180.453125 174.253906 L 182.078125 179.351562 C 182.117188 179.476562 182.066406 179.613281 181.949219 179.675781 C 181.835938 179.742188 181.695312 179.714844 181.609375 179.617188 C 179.359375 177.003906 176.433594 175.09375 173.148438 174.097656 L 168.191406 172.597656 C 167.695312 172.449219 167.339844 172.734375 167.1875 173.027344 C 167.03125 173.324219 167.003906 173.789062 167.425781 174.117188 L 170.46875 176.488281 C 173.855469 179.117188 175.84375 183.097656 175.933594 187.40625 C 175.984375 189.828125 176.671875 192.195312 177.929688 194.257812 Z M 188.625 213.296875 C 188.550781 213.296875 188.480469 213.265625 188.429688 213.214844 C 188.355469 213.140625 188.332031 213.03125 188.367188 212.933594 C 188.378906 212.890625 189.742188 208.910156 191.273438 203.527344 L 182.597656 202.75 C 182.507812 202.742188 182.429688 202.691406 182.386719 202.617188 L 177.460938 194.542969 C 176.152344 192.398438 175.4375 189.933594 175.382812 187.417969 C 175.296875 183.273438 173.382812 179.449219 170.132812 176.917969 L 167.085938 174.550781 C 166.445312 174.050781 166.429688 173.296875 166.699219 172.773438 C 166.96875 172.257812 167.582031 171.839844 168.351562 172.074219 L 173.304688 173.574219 C 176.292969 174.476562 178.992188 176.113281 181.175781 178.335938 L 179.929688 174.421875 C 175.046875 159.125 178.703125 142.269531 189.464844 130.429688 L 194.191406 125.230469 C 194.691406 124.679688 195.375 124.71875 195.828125 125.003906 C 196.285156 125.289062 196.628906 125.894531 196.347656 126.597656 L 192.980469 135.003906 C 189.097656 144.703125 189.453125 155.671875 193.957031 165.097656 C 194.792969 166.847656 195.496094 168.675781 196.0625 170.558594 C 197.085938 163.859375 199.484375 156.285156 201.375 150.964844 C 201.578125 150.402344 202.105469 150.066406 202.695312 150.125 C 203.289062 150.183594 203.746094 150.625 203.832031 151.222656 C 204.160156 153.519531 204.796875 156.117188 205.46875 158.863281 C 207.808594 168.425781 210.71875 180.324219 204.386719 192.617188 C 194.808594 211.199219 188.953125 213.207031 188.707031 213.285156 C 188.679688 213.292969 188.652344 213.296875 188.625 213.296875 " fill-opacity="1" fill-rule="nonzero"/><path fill="#000000" d="M 191.222656 194.898438 C 191.214844 194.898438 191.207031 194.898438 191.199219 194.898438 C 191.046875 194.882812 190.9375 194.75 190.949219 194.597656 C 192.058594 182.746094 189.675781 175.113281 187.574219 168.382812 C 186.605469 165.269531 185.6875 162.328125 185.144531 159.167969 C 182.574219 144.25 191.339844 131.304688 191.429688 131.171875 C 191.511719 131.046875 191.683594 131.015625 191.8125 131.105469 C 191.933594 131.1875 191.964844 131.359375 191.878906 131.484375 C 191.792969 131.613281 183.15625 144.382812 185.6875 159.074219 C 186.226562 162.199219 187.136719 165.125 188.101562 168.21875 C 190.21875 175 192.613281 182.6875 191.496094 194.648438 C 191.484375 194.792969 191.363281 194.898438 191.222656 194.898438 " fill-opacity="1" fill-rule="nonzero"/><path fill="#000000" d="M 188.140625 189.433594 C 188.027344 189.433594 187.917969 189.359375 187.878906 189.246094 C 186.9375 186.402344 184.820312 183.449219 183.203125 181.472656 C 183.109375 181.351562 183.125 181.179688 183.242188 181.082031 C 183.359375 180.988281 183.53125 181.003906 183.628906 181.121094 C 185.273438 183.136719 187.433594 186.148438 188.402344 189.074219 C 188.449219 189.214844 188.371094 189.371094 188.226562 189.417969 C 188.195312 189.429688 188.167969 189.433594 188.140625 189.433594 " fill-opacity="1" fill-rule="nonzero"/><path fill="#000000" d="M 200.902344 186.972656 C 200.890625 186.972656 200.871094 186.972656 200.855469 186.96875 C 200.707031 186.941406 200.605469 186.800781 200.632812 186.652344 C 202.613281 174.945312 201.925781 156.925781 201.921875 156.746094 C 201.914062 156.59375 202.03125 156.464844 202.183594 156.457031 C 202.332031 156.449219 202.460938 156.570312 202.46875 156.722656 C 202.476562 156.902344 203.164062 174.980469 201.175781 186.742188 C 201.152344 186.878906 201.035156 186.972656 200.902344 186.972656 " fill-opacity="1" fill-rule="nonzero"/><path fill="#000000" d="M 183.550781 196.671875 C 183.402344 196.671875 183.277344 196.550781 183.277344 196.398438 C 183.136719 181.832031 171.496094 175.421875 171.375 175.359375 C 171.242188 175.289062 171.191406 175.121094 171.261719 174.988281 C 171.335938 174.855469 171.5 174.804688 171.636719 174.875 C 171.757812 174.9375 183.683594 181.492188 183.828125 196.394531 C 183.828125 196.542969 183.707031 196.667969 183.554688 196.671875 C 183.554688 196.671875 183.554688 196.671875 183.550781 196.671875 " fill-opacity="1" fill-rule="nonzero"/><path fill="#000000" d="M 185.128906 169.386719 C 185.046875 169.386719 184.964844 169.347656 184.910156 169.277344 C 181.757812 165.226562 180.359375 159.75 180.34375 159.695312 C 180.308594 159.546875 180.398438 159.398438 180.546875 159.363281 C 180.691406 159.324219 180.839844 159.414062 180.878906 159.5625 C 180.890625 159.617188 182.261719 164.984375 185.34375 168.941406 C 185.4375 169.058594 185.417969 169.234375 185.296875 169.328125 C 185.246094 169.367188 185.1875 169.386719 185.128906 169.386719 " fill-opacity="1" fill-rule="nonzero"/><g clip-path="url(#3968440d04)"><path fill="#000000" d="M 194.960938 224.914062 L 186.191406 224.914062 C 181.011719 224.914062 176.808594 220.714844 176.808594 215.53125 L 176.808594 198.859375 L 204.34375 198.859375 L 204.34375 215.53125 C 204.34375 220.714844 200.144531 224.914062 194.960938 224.914062 " fill-opacity="1" fill-rule="nonzero"/></g><path fill="#ffffff" d="M 201.644531 203.730469 L 179.507812 203.730469 C 179.359375 203.730469 179.234375 203.609375 179.234375 203.457031 C 179.234375 203.304688 179.359375 203.183594 179.507812 203.183594 L 201.644531 203.183594 C 201.796875 203.183594 201.917969 203.304688 201.917969 203.457031 C 201.917969 203.609375 201.796875 203.730469 201.644531 203.730469 " fill-opacity="1" fill-rule="nonzero"/><g clip-path="url(#4f77576ef2)"><path fill="#000000" d="M 138.402344 7.824219 C 138.402344 8.167969 138.367188 8.507812 138.300781 8.847656 C 138.234375 9.183594 138.132812 9.511719 138.003906 9.832031 C 137.871094 10.148438 137.710938 10.453125 137.519531 10.738281 C 137.328125 11.023438 137.109375 11.289062 136.863281 11.53125 C 136.621094 11.777344 136.355469 11.992188 136.070312 12.183594 C 135.785156 12.375 135.480469 12.539062 135.164062 12.671875 C 134.84375 12.800781 134.515625 12.902344 134.179688 12.96875 C 133.839844 13.035156 133.5 13.070312 133.15625 13.070312 C 132.808594 13.070312 132.46875 13.035156 132.132812 12.96875 C 131.792969 12.902344 131.464844 12.800781 131.148438 12.671875 C 130.828125 12.539062 130.527344 12.375 130.238281 12.183594 C 129.953125 11.992188 129.6875 11.777344 129.445312 11.53125 C 129.199219 11.289062 128.984375 11.023438 128.792969 10.738281 C 128.601562 10.453125 128.4375 10.148438 128.308594 9.832031 C 128.175781 9.511719 128.074219 9.183594 128.007812 8.847656 C 127.941406 8.507812 127.90625 8.167969 127.90625 7.824219 C 127.90625 7.476562 127.941406 7.136719 128.007812 6.800781 C 128.074219 6.460938 128.175781 6.132812 128.308594 5.816406 C 128.4375 5.496094 128.601562 5.195312 128.792969 4.90625 C 128.984375 4.621094 129.199219 4.355469 129.445312 4.113281 C 129.6875 3.867188 129.953125 3.652344 130.238281 3.460938 C 130.527344 3.269531 130.828125 3.105469 131.148438 2.976562 C 131.464844 2.84375 131.792969 2.742188 132.132812 2.675781 C 132.46875 2.609375 132.808594 2.574219 133.15625 2.574219 C 133.5 2.574219 133.839844 2.609375 134.179688 2.675781 C 134.515625 2.742188 134.84375 2.84375 135.164062 2.976562 C 135.480469 3.105469 135.785156 3.269531 136.070312 3.460938 C 136.355469 3.652344 136.621094 3.867188 136.863281 4.113281 C 137.109375 4.355469 137.328125 4.621094 137.519531 4.90625 C 137.710938 5.195312 137.871094 5.496094 138.003906 5.816406 C 138.132812 6.132812 138.234375 6.460938 138.300781 6.800781 C 138.367188 7.136719 138.402344 7.476562 138.402344 7.824219 Z M 138.402344 7.824219 " fill-opacity="1" fill-rule="nonzero"/></g></svg>